<svg xmlns="http://www.w3.org/2000/svg" height="1858" preserveAspectRatio="none" style="width:930px;height:1858px" viewBox="0 0 930 1858" width="930"><text font-family="sans-serif" font-size="14" font-weight="bold" lengthAdjust="spacingAndGlyphs" textLength="203" x="362.25" y="23.535">Account Information Service</text><path fill="#FFF" stroke="#a80036" d="M22.5 128.086h10v118.242h-10zm0 282.416h10v133.553h-10zm0 267.105h10V826.47h-10zm0 282.416h10v133.553h-10zm0 267.106h10v194.795h-10zm0 328.348h10v164.174h-10zm624-1144.975h10v133.553h-10zm0 267.105h10V826.47h-10zm0 282.416h10v133.553h-10zm0 267.106h10v194.795h-10zm0 328.348h10v164.174h-10zm182-1427.391h10v118.242h-10z"/><path stroke="#a80036" stroke-dasharray="5,5" d="M27 81.465v1720.117M651.5 81.465v1720.117m182-1720.117v1720.117"/><path fill="#FEFECE" stroke="#a80036" stroke-width="1.5" d="M8 49.977h39v30.488H8z"/><text font-family="sans-serif" font-size="14" lengthAdjust="spacingAndGlyphs" textLength="25" x="15" y="70.512">TPP</text><path fill="#FEFECE" stroke="#a80036" stroke-width="1.5" d="M8 1800.582h39v30.488H8z"/><text font-family="sans-serif" font-size="14" lengthAdjust="spacingAndGlyphs" textLength="25" x="15" y="1821.117">TPP</text><path fill="#FEFECE" stroke="#a80036" stroke-width="1.5" d="M565.5 33.488h172v46.977h-172z"/><text font-family="sans-serif" font-size="14" lengthAdjust="spacingAndGlyphs" textLength="158" x="572.5" y="54.023">Open Banking Platform</text><text font-family="sans-serif" font-size="14" lengthAdjust="spacingAndGlyphs" textLength="22" x="640.5" y="70.512">API</text><path fill="#FEFECE" stroke="#a80036" stroke-width="1.5" d="M565.5 1800.582h172v46.977h-172z"/><text font-family="sans-serif" font-size="14" lengthAdjust="spacingAndGlyphs" textLength="158" x="572.5" y="1821.117">Open Banking Platform</text><text font-family="sans-serif" font-size="14" lengthAdjust="spacingAndGlyphs" textLength="22" x="640.5" y="1837.605">API</text><path fill="#FEFECE" stroke="#a80036" stroke-width="1.5" d="M747.5 33.488h172v46.977h-172z"/><text font-family="sans-serif" font-size="14" lengthAdjust="spacingAndGlyphs" textLength="158" x="754.5" y="54.023">Open Banking Platform</text><text font-family="sans-serif" font-size="14" lengthAdjust="spacingAndGlyphs" textLength="33" x="817" y="70.512">Auth</text><path fill="#FEFECE" stroke="#a80036" stroke-width="1.5" d="M747.5 1800.582h172v46.977h-172z"/><text font-family="sans-serif" font-size="14" lengthAdjust="spacingAndGlyphs" textLength="158" x="754.5" y="1821.117">Open Banking Platform</text><text font-family="sans-serif" font-size="14" lengthAdjust="spacingAndGlyphs" textLength="33" x="817" y="1837.605">Auth</text><path fill="#FFF" stroke="#a80036" d="M22.5 128.086h10v118.242h-10zm0 282.416h10v133.553h-10zm0 267.105h10V826.47h-10zm0 282.416h10v133.553h-10zm0 267.106h10v194.795h-10zm0 328.348h10v164.174h-10zm624-1144.975h10v133.553h-10zm0 267.105h10V826.47h-10zm0 282.416h10v133.553h-10zm0 267.106h10v194.795h-10zm0 328.348h10v164.174h-10zm182-1427.391h10v118.242h-10z"/><path fill="#A80036" stroke="#a80036" d="M816.5 124.086l10 4-10 4 4-4z"/><path stroke="#a80036" d="M32.5 128.086h790"/><text font-family="sans-serif" font-size="13" font-weight="bold" lengthAdjust="spacingAndGlyphs" textLength="69" x="39.5" y="108.033">Get Token</text><text font-family="sans-serif" font-size="13" lengthAdjust="spacingAndGlyphs" textLength="136" x="39.5" y="123.344">POST /connect/token</text><path fill="#FBFB77" stroke="#a80036" d="M37 141.086h103v69H37z"/><text font-family="sans-serif" font-size="13" lengthAdjust="spacingAndGlyphs" textLength="69" x="41" y="157.654">B: client_id</text><text font-family="sans-serif" font-size="13" lengthAdjust="spacingAndGlyphs" textLength="95" x="41" y="172.965">B: client_secret</text><text font-family="sans-serif" font-size="13" lengthAdjust="spacingAndGlyphs" textLength="82" x="41" y="188.275">B: grant_type</text><text font-family="sans-serif" font-size="13" lengthAdjust="spacingAndGlyphs" textLength="52" x="41" y="203.586">B: scope</text><path fill="#A80036" stroke="#a80036" d="M38.5 242.328l-10 4 10 4-4-4z"/><path stroke="#a80036" stroke-dasharray="2,2" d="M32.5 246.328h800"/><path fill="#FBFB77" stroke="#a80036" d="M720 259.328h108v84H720z"/><text font-family="sans-serif" font-size="13" lengthAdjust="spacingAndGlyphs" textLength="61" x="724" y="275.897">HTTP 200</text><text font-family="sans-serif" font-size="13" lengthAdjust="spacingAndGlyphs" textLength="100" x="724" y="291.207">B: access_token</text><text font-family="sans-serif" font-size="13" lengthAdjust="spacingAndGlyphs" textLength="80" x="724" y="306.518">B: expires_in</text><text font-family="sans-serif" font-size="13" lengthAdjust="spacingAndGlyphs" textLength="85" x="724" y="321.828">B: token_type</text><text font-family="sans-serif" font-size="13" lengthAdjust="spacingAndGlyphs" textLength="52" x="724" y="337.139">B: scope</text><path fill="#A80036" stroke="#a80036" d="M634.5 406.502l10 4-10 4 4-4z"/><path stroke="#a80036" d="M32.5 410.502h608"/><text font-family="sans-serif" font-size="13" font-weight="bold" lengthAdjust="spacingAndGlyphs" textLength="110" x="39.5" y="390.449">Get Account List</text><text font-family="sans-serif" font-size="13" lengthAdjust="spacingAndGlyphs" textLength="276" x="39.5" y="405.76">GET psd2/accountinformation/v1/accounts</text><path fill="#FBFB77" stroke="#a80036" d="M37 423.502h114v84H37z"/><text font-family="sans-serif" font-size="13" lengthAdjust="spacingAndGlyphs" textLength="104" x="41" y="440.07">H: Authorization</text><text font-family="sans-serif" font-size="13" lengthAdjust="spacingAndGlyphs" textLength="106" x="41" y="455.381">H: X-Request-ID</text><text font-family="sans-serif" font-size="13" lengthAdjust="spacingAndGlyphs" textLength="92" x="41" y="470.691">H: Consent-ID</text><text font-family="sans-serif" font-size="13" lengthAdjust="spacingAndGlyphs" textLength="63" x="41" y="486.002">H: X-BicFi</text><text font-family="sans-serif" font-size="13" lengthAdjust="spacingAndGlyphs" textLength="100" x="41" y="501.313">Q: [withBalance]</text><path fill="#A80036" stroke="#a80036" d="M38.5 540.055l-10 4 10 4-4-4z"/><path stroke="#a80036" stroke-dasharray="2,2" d="M32.5 544.055h618"/><path fill="#FBFB77" stroke="#a80036" d="M532 557.055h114v53H532z"/><text font-family="sans-serif" font-size="13" lengthAdjust="spacingAndGlyphs" textLength="61" x="536" y="573.623">HTTP 200</text><text font-family="sans-serif" font-size="13" lengthAdjust="spacingAndGlyphs" textLength="106" x="536" y="588.934">H: X-Request-ID</text><text font-family="sans-serif" font-size="13" lengthAdjust="spacingAndGlyphs" textLength="88" x="536" y="604.244">B: accountList</text><path fill="#A80036" stroke="#a80036" d="M634.5 673.607l10 4-10 4 4-4z"/><path stroke="#a80036" d="M32.5 677.607h608"/><text font-family="sans-serif" font-size="13" font-weight="bold" lengthAdjust="spacingAndGlyphs" textLength="132" x="39.5" y="657.555">Get Account Details</text><text font-family="sans-serif" font-size="13" lengthAdjust="spacingAndGlyphs" textLength="417" x="39.5" y="672.865">GET psd2/accountinformation/v1/accounts/accounts/{accountId}</text><path fill="#FBFB77" stroke="#a80036" d="M37 690.607h114v99H37z"/><text font-family="sans-serif" font-size="13" lengthAdjust="spacingAndGlyphs" textLength="77" x="41" y="707.176">P: accountId</text><text font-family="sans-serif" font-size="13" lengthAdjust="spacingAndGlyphs" textLength="104" x="41" y="722.486">H: Authorization</text><text font-family="sans-serif" font-size="13" lengthAdjust="spacingAndGlyphs" textLength="106" x="41" y="737.797">H: X-Request-ID</text><text font-family="sans-serif" font-size="13" lengthAdjust="spacingAndGlyphs" textLength="92" x="41" y="753.107">H: Consent-ID</text><text font-family="sans-serif" font-size="13" lengthAdjust="spacingAndGlyphs" textLength="63" x="41" y="768.418">H: X-BicFi</text><text font-family="sans-serif" font-size="13" lengthAdjust="spacingAndGlyphs" textLength="100" x="41" y="783.729">Q: [withBalance]</text><path fill="#A80036" stroke="#a80036" d="M38.5 822.47l-10 4 10 4-4-4z"/><path stroke="#a80036" stroke-dasharray="2,2" d="M32.5 826.471h618"/><path fill="#FBFB77" stroke="#a80036" d="M529 839.471h117v53H529z"/><text font-family="sans-serif" font-size="13" lengthAdjust="spacingAndGlyphs" textLength="61" x="533" y="856.039">HTTP 200</text><text font-family="sans-serif" font-size="13" lengthAdjust="spacingAndGlyphs" textLength="106" x="533" y="871.35">H: X-Request-ID</text><text font-family="sans-serif" font-size="13" lengthAdjust="spacingAndGlyphs" textLength="109" x="533" y="886.66">B: accountDetails</text><path fill="#A80036" stroke="#a80036" d="M634.5 956.023l10 4-10 4 4-4z"/><path stroke="#a80036" d="M32.5 960.023h608"/><text font-family="sans-serif" font-size="13" font-weight="bold" lengthAdjust="spacingAndGlyphs" textLength="86" x="39.5" y="939.971">Get Balances</text><text font-family="sans-serif" font-size="13" lengthAdjust="spacingAndGlyphs" textLength="479" x="39.5" y="955.281">GET psd2/accountinformation/v1/accounts/accounts/{accountId}/balances</text><path fill="#FBFB77" stroke="#a80036" d="M37 973.023h114v84H37z"/><text font-family="sans-serif" font-size="13" lengthAdjust="spacingAndGlyphs" textLength="77" x="41" y="989.592">P: accountId</text><text font-family="sans-serif" font-size="13" lengthAdjust="spacingAndGlyphs" textLength="104" x="41" y="1004.902">H: Authorization</text><text font-family="sans-serif" font-size="13" lengthAdjust="spacingAndGlyphs" textLength="106" x="41" y="1020.213">H: X-Request-ID</text><text font-family="sans-serif" font-size="13" lengthAdjust="spacingAndGlyphs" textLength="92" x="41" y="1035.523">H: Consent-ID</text><text font-family="sans-serif" font-size="13" lengthAdjust="spacingAndGlyphs" textLength="63" x="41" y="1050.834">H: X-BicFi</text><path fill="#A80036" stroke="#a80036" d="M38.5 1089.576l-10 4 10 4-4-4z"/><path stroke="#a80036" stroke-dasharray="2,2" d="M32.5 1093.576h618"/><path fill="#FBFB77" stroke="#a80036" d="M405 1106.576h241v53H405z"/><text font-family="sans-serif" font-size="13" lengthAdjust="spacingAndGlyphs" textLength="61" x="409" y="1123.145">HTTP 200</text><text font-family="sans-serif" font-size="13" lengthAdjust="spacingAndGlyphs" textLength="106" x="409" y="1138.455">H: X-Request-ID</text><text font-family="sans-serif" font-size="13" lengthAdjust="spacingAndGlyphs" textLength="233" x="409" y="1153.766">B: readAccountBalanceResponse-200</text><path fill="#A80036" stroke="#a80036" d="M634.5 1223.129l10 4-10 4 4-4z"/><path stroke="#a80036" d="M32.5 1227.129h608"/><text font-family="sans-serif" font-size="13" font-weight="bold" lengthAdjust="spacingAndGlyphs" textLength="135" x="39.5" y="1207.076">Get Transaction List</text><text font-family="sans-serif" font-size="13" lengthAdjust="spacingAndGlyphs" textLength="502" x="39.5" y="1222.387">GET psd2/accountinformation/v1/accounts/accounts/{accountId}/transactions</text><path fill="#FBFB77" stroke="#a80036" d="M37 1240.129h117v145H37z"/><text font-family="sans-serif" font-size="13" lengthAdjust="spacingAndGlyphs" textLength="77" x="41" y="1256.697">P: accountId</text><text font-family="sans-serif" font-size="13" lengthAdjust="spacingAndGlyphs" textLength="104" x="41" y="1272.008">H: Authorization</text><text font-family="sans-serif" font-size="13" lengthAdjust="spacingAndGlyphs" textLength="106" x="41" y="1287.318">H: X-Request-ID</text><text font-family="sans-serif" font-size="13" lengthAdjust="spacingAndGlyphs" textLength="92" x="41" y="1302.629">H: Consent-ID</text><text font-family="sans-serif" font-size="13" lengthAdjust="spacingAndGlyphs" textLength="63" x="41" y="1317.939">H: X-BicFi</text><text font-family="sans-serif" font-size="13" lengthAdjust="spacingAndGlyphs" textLength="109" x="41" y="1333.25">Q: bookingStatus</text><text font-family="sans-serif" font-size="13" lengthAdjust="spacingAndGlyphs" textLength="85" x="41" y="1348.561">Q: [dateFrom]</text><text font-family="sans-serif" font-size="13" lengthAdjust="spacingAndGlyphs" textLength="69" x="41" y="1363.871">Q: [dateTo]</text><text font-family="sans-serif" font-size="13" lengthAdjust="spacingAndGlyphs" textLength="100" x="41" y="1379.182">Q: [withBalance]</text><path fill="#A80036" stroke="#a80036" d="M38.5 1417.924l-10 4 10 4-4-4z"/><path stroke="#a80036" stroke-dasharray="2,2" d="M32.5 1421.924h618"/><path fill="#FBFB77" stroke="#a80036" d="M419 1434.924h227v53H419z"/><text font-family="sans-serif" font-size="13" lengthAdjust="spacingAndGlyphs" textLength="61" x="423" y="1451.492">HTTP 200</text><text font-family="sans-serif" font-size="13" lengthAdjust="spacingAndGlyphs" textLength="106" x="423" y="1466.803">H: X-Request-ID</text><text font-family="sans-serif" font-size="13" lengthAdjust="spacingAndGlyphs" textLength="219" x="423" y="1482.113">B: transactionsResponse-200_json</text><path fill="#A80036" stroke="#a80036" d="M634.5 1551.477l10 4-10 4 4-4z"/><path stroke="#a80036" d="M32.5 1555.477h608"/><text font-family="sans-serif" font-size="13" font-weight="bold" lengthAdjust="spacingAndGlyphs" textLength="157" x="39.5" y="1535.424">Get Transaction Details</text><text font-family="sans-serif" font-size="13" lengthAdjust="spacingAndGlyphs" textLength="600" x="39.5" y="1550.734">GET psd2/accountinformation/v1/accounts/accounts/{accountId}/transactions/{transactionId}</text><path fill="#FBFB77" stroke="#a80036" d="M37 1568.477h117v115H37z"/><text font-family="sans-serif" font-size="13" lengthAdjust="spacingAndGlyphs" textLength="77" x="41" y="1585.045">P: accountId</text><text font-family="sans-serif" font-size="13" lengthAdjust="spacingAndGlyphs" textLength="98" x="41" y="1600.355">P: transactionId</text><text font-family="sans-serif" font-size="13" lengthAdjust="spacingAndGlyphs" textLength="104" x="41" y="1615.666">H: Authorization</text><text font-family="sans-serif" font-size="13" lengthAdjust="spacingAndGlyphs" textLength="106" x="41" y="1630.977">H: X-Request-ID</text><text font-family="sans-serif" font-size="13" lengthAdjust="spacingAndGlyphs" textLength="92" x="41" y="1646.287">H: Consent-ID</text><text font-family="sans-serif" font-size="13" lengthAdjust="spacingAndGlyphs" textLength="63" x="41" y="1661.598">H: X-BicFi</text><text font-family="sans-serif" font-size="13" lengthAdjust="spacingAndGlyphs" textLength="109" x="41" y="1676.908">Q: bookingStatus</text><path fill="#A80036" stroke="#a80036" d="M38.5 1715.65l-10 4 10 4-4-4z"/><path stroke="#a80036" stroke-dasharray="2,2" d="M32.5 1719.65h618"/><path fill="#FBFB77" stroke="#a80036" d="M508 1732.65h138v53H508z"/><text font-family="sans-serif" font-size="13" lengthAdjust="spacingAndGlyphs" textLength="61" x="512" y="1749.219">HTTP 200</text><text font-family="sans-serif" font-size="13" lengthAdjust="spacingAndGlyphs" textLength="106" x="512" y="1764.529">H: X-Request-ID</text><text font-family="sans-serif" font-size="13" lengthAdjust="spacingAndGlyphs" textLength="130" x="512" y="1779.84">B: transactionDetails</text></svg>