<svg xmlns="http://www.w3.org/2000/svg" height="1629" preserveAspectRatio="none" style="width:930px;height:1629px" viewBox="0 0 930 1629" width="930"><path fill="#FFF" stroke="#a80036" d="M22.5 97.598h10v133.553h-10zm0 236.484h10v133.553h-10zm0 236.484h10v148.863h-10zm0 251.795h10v133.553h-10zm0 236.485h10v194.795h-10zm0 297.726h10v164.174h-10zm624-1022.49h10v133.553h-10zm0 236.484h10v148.863h-10zm0 251.795h10v133.553h-10zm0 236.485h10v194.795h-10zm0 297.726h10v164.174h-10zm182-1258.974h10v133.553h-10z"/><path stroke="#a80036" stroke-dasharray="5,5" d="M27 50.977v1521.08M651.5 50.977v1521.08m182-1521.08v1521.08"/><path fill="#FEFECE" stroke="#a80036" stroke-width="1.5" d="M8 19.488h39v30.488H8z"/><text font-family="sans-serif" font-size="14" lengthAdjust="spacingAndGlyphs" textLength="25" x="15" y="40.023">TPP</text><path fill="#FEFECE" stroke="#a80036" stroke-width="1.5" d="M8 1571.057h39v30.488H8z"/><text font-family="sans-serif" font-size="14" lengthAdjust="spacingAndGlyphs" textLength="25" x="15" y="1591.592">TPP</text><path fill="#FEFECE" stroke="#a80036" stroke-width="1.5" d="M565.5 3h172v46.977h-172z"/><text font-family="sans-serif" font-size="14" lengthAdjust="spacingAndGlyphs" textLength="158" x="572.5" y="23.535">Open Banking Platform</text><text font-family="sans-serif" font-size="14" lengthAdjust="spacingAndGlyphs" textLength="22" x="640.5" y="40.023">API</text><path fill="#FEFECE" stroke="#a80036" stroke-width="1.5" d="M565.5 1571.057h172v46.977h-172z"/><text font-family="sans-serif" font-size="14" lengthAdjust="spacingAndGlyphs" textLength="158" x="572.5" y="1591.592">Open Banking Platform</text><text font-family="sans-serif" font-size="14" lengthAdjust="spacingAndGlyphs" textLength="22" x="640.5" y="1608.08">API</text><path fill="#FEFECE" stroke="#a80036" stroke-width="1.5" d="M747.5 3h172v46.977h-172z"/><text font-family="sans-serif" font-size="14" lengthAdjust="spacingAndGlyphs" textLength="158" x="754.5" y="23.535">Open Banking Platform</text><text font-family="sans-serif" font-size="14" lengthAdjust="spacingAndGlyphs" textLength="33" x="817" y="40.023">Auth</text><path fill="#FEFECE" stroke="#a80036" stroke-width="1.5" d="M747.5 1571.057h172v46.977h-172z"/><text font-family="sans-serif" font-size="14" lengthAdjust="spacingAndGlyphs" textLength="158" x="754.5" y="1591.592">Open Banking Platform</text><text font-family="sans-serif" font-size="14" lengthAdjust="spacingAndGlyphs" textLength="33" x="817" y="1608.08">Auth</text><path fill="#FFF" stroke="#a80036" d="M22.5 97.598h10v133.553h-10zm0 236.484h10v133.553h-10zm0 236.484h10v148.863h-10zm0 251.795h10v133.553h-10zm0 236.485h10v194.795h-10zm0 297.726h10v164.174h-10zm624-1022.49h10v133.553h-10zm0 236.484h10v148.863h-10zm0 251.795h10v133.553h-10zm0 236.485h10v194.795h-10zm0 297.726h10v164.174h-10zm182-1258.974h10v133.553h-10z"/><path fill="#A80036" stroke="#a80036" d="M816.5 93.598l10 4-10 4 4-4z"/><path stroke="#a80036" d="M32.5 97.598h790"/><text font-family="sans-serif" font-size="13" font-weight="bold" lengthAdjust="spacingAndGlyphs" textLength="69" x="39.5" y="77.545">Get Token</text><text font-family="sans-serif" font-size="13" lengthAdjust="spacingAndGlyphs" textLength="136" x="39.5" y="92.856">POST /connect/token</text><path fill="#FBFB77" stroke="#a80036" d="M37 110.598h103v69H37z"/><text font-family="sans-serif" font-size="13" lengthAdjust="spacingAndGlyphs" textLength="69" x="41" y="127.166">B: client_id</text><text font-family="sans-serif" font-size="13" lengthAdjust="spacingAndGlyphs" textLength="95" x="41" y="142.477">B: client_secret</text><text font-family="sans-serif" font-size="13" lengthAdjust="spacingAndGlyphs" textLength="82" x="41" y="157.787">B: grant_type</text><text font-family="sans-serif" font-size="13" lengthAdjust="spacingAndGlyphs" textLength="52" x="41" y="173.098">B: scope</text><path fill="#A80036" stroke="#a80036" d="M38.5 227.15l-10 4 10 4-4-4z"/><path stroke="#a80036" stroke-dasharray="2,2" d="M32.5 231.15h800"/><text font-family="sans-serif" font-size="13" lengthAdjust="spacingAndGlyphs" textLength="85" x="44.5" y="226.408">access_token</text><path fill="#FBFB77" stroke="#a80036" d="M735 244.15h93v23h-93z"/><text font-family="sans-serif" font-size="13" lengthAdjust="spacingAndGlyphs" textLength="85" x="739" y="260.719">access_token</text><path fill="#A80036" stroke="#a80036" d="M634.5 330.082l10 4-10 4 4-4z"/><path stroke="#a80036" d="M32.5 334.082h608"/><text font-family="sans-serif" font-size="13" font-weight="bold" lengthAdjust="spacingAndGlyphs" textLength="121" x="39.5" y="314.029">Read Account List</text><text font-family="sans-serif" font-size="13" lengthAdjust="spacingAndGlyphs" textLength="276" x="39.5" y="329.34">GET psd2/accountinformation/v1/accounts</text><path fill="#FBFB77" stroke="#a80036" d="M37 347.082h114v84H37z"/><text font-family="sans-serif" font-size="13" lengthAdjust="spacingAndGlyphs" textLength="103" x="41" y="363.65">H: access_token</text><text font-family="sans-serif" font-size="13" lengthAdjust="spacingAndGlyphs" textLength="106" x="41" y="378.961">H: X-Request-ID</text><text font-family="sans-serif" font-size="13" lengthAdjust="spacingAndGlyphs" textLength="92" x="41" y="394.272">H: Consent-ID</text><text font-family="sans-serif" font-size="13" lengthAdjust="spacingAndGlyphs" textLength="63" x="41" y="409.582">H: X-BicFi</text><text font-family="sans-serif" font-size="13" lengthAdjust="spacingAndGlyphs" textLength="100" x="41" y="424.893">Q: [withBalance]</text><path fill="#A80036" stroke="#a80036" d="M38.5 463.635l-10 4 10 4-4-4z"/><path stroke="#a80036" stroke-dasharray="2,2" d="M32.5 467.635h618"/><path fill="#FBFB77" stroke="#a80036" d="M565 480.635h81v23h-81z"/><text font-family="sans-serif" font-size="13" lengthAdjust="spacingAndGlyphs" textLength="73" x="569" y="497.203">accountList</text><path fill="#A80036" stroke="#a80036" d="M634.5 566.566l10 4-10 4 4-4z"/><path stroke="#a80036" d="M32.5 570.566h608"/><text font-family="sans-serif" font-size="13" font-weight="bold" lengthAdjust="spacingAndGlyphs" textLength="143" x="39.5" y="550.514">Read Account Details</text><text font-family="sans-serif" font-size="13" lengthAdjust="spacingAndGlyphs" textLength="417" x="39.5" y="565.824">GET psd2/accountinformation/v1/accounts/accounts/{accountId}</text><path fill="#FBFB77" stroke="#a80036" d="M37 583.566h114v99H37z"/><text font-family="sans-serif" font-size="13" lengthAdjust="spacingAndGlyphs" textLength="77" x="41" y="600.135">P: accountId</text><text font-family="sans-serif" font-size="13" lengthAdjust="spacingAndGlyphs" textLength="103" x="41" y="615.445">H: access_token</text><text font-family="sans-serif" font-size="13" lengthAdjust="spacingAndGlyphs" textLength="106" x="41" y="630.756">H: X-Request-ID</text><text font-family="sans-serif" font-size="13" lengthAdjust="spacingAndGlyphs" textLength="92" x="41" y="646.066">H: Consent-ID</text><text font-family="sans-serif" font-size="13" lengthAdjust="spacingAndGlyphs" textLength="63" x="41" y="661.377">H: X-BicFi</text><text font-family="sans-serif" font-size="13" lengthAdjust="spacingAndGlyphs" textLength="100" x="41" y="676.688">Q: [withBalance]</text><path fill="#A80036" stroke="#a80036" d="M38.5 715.43l-10 4 10 4-4-4z"/><path stroke="#a80036" stroke-dasharray="2,2" d="M32.5 719.43h618"/><path fill="#FBFB77" stroke="#a80036" d="M544 732.43h102v23H544z"/><text font-family="sans-serif" font-size="13" lengthAdjust="spacingAndGlyphs" textLength="94" x="548" y="748.998">accountDetails</text><path fill="#A80036" stroke="#a80036" d="M634.5 818.361l10 4-10 4 4-4z"/><path stroke="#a80036" d="M32.5 822.361h608"/><text font-family="sans-serif" font-size="13" font-weight="bold" lengthAdjust="spacingAndGlyphs" textLength="90" x="39.5" y="802.309">Read Balance</text><text font-family="sans-serif" font-size="13" lengthAdjust="spacingAndGlyphs" textLength="479" x="39.5" y="817.619">GET psd2/accountinformation/v1/accounts/accounts/{accountId}/balances</text><path fill="#FBFB77" stroke="#a80036" d="M37 835.361h114v84H37z"/><text font-family="sans-serif" font-size="13" lengthAdjust="spacingAndGlyphs" textLength="77" x="41" y="851.93">P: accountId</text><text font-family="sans-serif" font-size="13" lengthAdjust="spacingAndGlyphs" textLength="103" x="41" y="867.24">H: access_token</text><text font-family="sans-serif" font-size="13" lengthAdjust="spacingAndGlyphs" textLength="106" x="41" y="882.551">H: X-Request-ID</text><text font-family="sans-serif" font-size="13" lengthAdjust="spacingAndGlyphs" textLength="92" x="41" y="897.861">H: Consent-ID</text><text font-family="sans-serif" font-size="13" lengthAdjust="spacingAndGlyphs" textLength="63" x="41" y="913.172">H: X-BicFi</text><path fill="#A80036" stroke="#a80036" d="M38.5 951.914l-10 4 10 4-4-4z"/><path stroke="#a80036" stroke-dasharray="2,2" d="M32.5 955.914h618"/><path fill="#FBFB77" stroke="#a80036" d="M452 968.914h194v23H452z"/><text font-family="sans-serif" font-size="13" lengthAdjust="spacingAndGlyphs" textLength="186" x="456" y="985.482">readAccountBalanceResponse</text><path fill="#A80036" stroke="#a80036" d="M634.5 1054.846l10 4-10 4 4-4z"/><path stroke="#a80036" d="M32.5 1058.846h608"/><text font-family="sans-serif" font-size="13" font-weight="bold" lengthAdjust="spacingAndGlyphs" textLength="233" x="39.5" y="1038.793">Read transaction list of an account</text><text font-family="sans-serif" font-size="13" lengthAdjust="spacingAndGlyphs" textLength="502" x="39.5" y="1054.103">GET psd2/accountinformation/v1/accounts/accounts/{accountId}/transactions</text><path fill="#FBFB77" stroke="#a80036" d="M37 1071.846h117v145H37z"/><text font-family="sans-serif" font-size="13" lengthAdjust="spacingAndGlyphs" textLength="77" x="41" y="1088.414">P: accountId</text><text font-family="sans-serif" font-size="13" lengthAdjust="spacingAndGlyphs" textLength="103" x="41" y="1103.725">H: access_token</text><text font-family="sans-serif" font-size="13" lengthAdjust="spacingAndGlyphs" textLength="106" x="41" y="1119.035">H: X-Request-ID</text><text font-family="sans-serif" font-size="13" lengthAdjust="spacingAndGlyphs" textLength="92" x="41" y="1134.346">H: Consent-ID</text><text font-family="sans-serif" font-size="13" lengthAdjust="spacingAndGlyphs" textLength="63" x="41" y="1149.656">H: X-BicFi</text><text font-family="sans-serif" font-size="13" lengthAdjust="spacingAndGlyphs" textLength="109" x="41" y="1164.967">Q: bookingStatus</text><text font-family="sans-serif" font-size="13" lengthAdjust="spacingAndGlyphs" textLength="85" x="41" y="1180.277">Q: [dateFrom]</text><text font-family="sans-serif" font-size="13" lengthAdjust="spacingAndGlyphs" textLength="69" x="41" y="1195.588">Q: [dateTo]</text><text font-family="sans-serif" font-size="13" lengthAdjust="spacingAndGlyphs" textLength="100" x="41" y="1210.898">Q: [withBalance]</text><path fill="#A80036" stroke="#a80036" d="M38.5 1249.64l-10 4 10 4-4-4z"/><path stroke="#a80036" stroke-dasharray="2,2" d="M32.5 1253.641h618"/><path fill="#FBFB77" stroke="#a80036" d="M500 1266.641h146v23H500z"/><text font-family="sans-serif" font-size="13" lengthAdjust="spacingAndGlyphs" textLength="138" x="504" y="1283.209">transactionsResponse</text><path fill="#A80036" stroke="#a80036" d="M634.5 1352.572l10 4-10 4 4-4z"/><path stroke="#a80036" d="M32.5 1356.572h608"/><text font-family="sans-serif" font-size="13" font-weight="bold" lengthAdjust="spacingAndGlyphs" textLength="168" x="39.5" y="1336.52">Read Transaction Details</text><text font-family="sans-serif" font-size="13" lengthAdjust="spacingAndGlyphs" textLength="600" x="39.5" y="1351.83">GET psd2/accountinformation/v1/accounts/accounts/{accountId}/transactions/{transactionId}</text><path fill="#FBFB77" stroke="#a80036" d="M37 1369.572h117v115H37z"/><text font-family="sans-serif" font-size="13" lengthAdjust="spacingAndGlyphs" textLength="77" x="41" y="1386.141">P: accountId</text><text font-family="sans-serif" font-size="13" lengthAdjust="spacingAndGlyphs" textLength="98" x="41" y="1401.451">P: transactionId</text><text font-family="sans-serif" font-size="13" lengthAdjust="spacingAndGlyphs" textLength="103" x="41" y="1416.762">H: access_token</text><text font-family="sans-serif" font-size="13" lengthAdjust="spacingAndGlyphs" textLength="106" x="41" y="1432.072">H: X-Request-ID</text><text font-family="sans-serif" font-size="13" lengthAdjust="spacingAndGlyphs" textLength="92" x="41" y="1447.383">H: Consent-ID</text><text font-family="sans-serif" font-size="13" lengthAdjust="spacingAndGlyphs" textLength="63" x="41" y="1462.693">H: X-BicFi</text><text font-family="sans-serif" font-size="13" lengthAdjust="spacingAndGlyphs" textLength="109" x="41" y="1478.004">Q: bookingStatus</text><path fill="#A80036" stroke="#a80036" d="M38.5 1516.746l-10 4 10 4-4-4z"/><path stroke="#a80036" stroke-dasharray="2,2" d="M32.5 1520.746h618"/><path fill="#FBFB77" stroke="#a80036" d="M523 1533.746h123v23H523z"/><text font-family="sans-serif" font-size="13" lengthAdjust="spacingAndGlyphs" textLength="115" x="527" y="1550.314">transactionDetails</text></svg>