<svg xmlns="http://www.w3.org/2000/svg" height="1865" preserveAspectRatio="none" style="width:718px;height:1865px" viewBox="0 0 718 1865" width="718"><text font-family="sans-serif" font-size="14" font-weight="bold" lengthAdjust="spacingAndGlyphs" textLength="135" x="290.25" y="23.535">ASPSP Information</text><path fill="#FFF" stroke="#a80036" d="M22.5 128.086h10v118.242h-10zm0 282.416h10v102.932h-10zm0 236.484h10v102.932h-10zm0 236.485h10v118.242h-10zm0 251.795h10v102.932h-10zm0 236.484h10v118.242h-10zm0 251.795h10v102.932h-10zm412-1213.043h10v102.932h-10zm0 236.484h10v102.932h-10zm0 236.485h10v118.242h-10zm0 251.795h10v102.932h-10zm0 236.484h10v118.242h-10zm0 251.795h10v102.932h-10zm182-1495.459h10v118.242h-10z"/><path stroke="#a80036" stroke-dasharray="5,5" d="M27 81.465v1726.943M439.5 81.465v1726.943m182-1726.943v1726.943"/><path fill="#FEFECE" stroke="#a80036" stroke-width="1.5" d="M8 49.977h39v30.488H8z"/><text font-family="sans-serif" font-size="14" lengthAdjust="spacingAndGlyphs" textLength="25" x="15" y="70.512">TPP</text><path fill="#FEFECE" stroke="#a80036" stroke-width="1.5" d="M8 1807.408h39v30.488H8z"/><text font-family="sans-serif" font-size="14" lengthAdjust="spacingAndGlyphs" textLength="25" x="15" y="1827.943">TPP</text><path fill="#FEFECE" stroke="#a80036" stroke-width="1.5" d="M353.5 33.488h172v46.977h-172z"/><text font-family="sans-serif" font-size="14" lengthAdjust="spacingAndGlyphs" textLength="158" x="360.5" y="54.023">Open Banking Platform</text><text font-family="sans-serif" font-size="14" lengthAdjust="spacingAndGlyphs" textLength="22" x="428.5" y="70.512">API</text><path fill="#FEFECE" stroke="#a80036" stroke-width="1.5" d="M353.5 1807.408h172v46.977h-172z"/><text font-family="sans-serif" font-size="14" lengthAdjust="spacingAndGlyphs" textLength="158" x="360.5" y="1827.943">Open Banking Platform</text><text font-family="sans-serif" font-size="14" lengthAdjust="spacingAndGlyphs" textLength="22" x="428.5" y="1844.432">API</text><path fill="#FEFECE" stroke="#a80036" stroke-width="1.5" d="M535.5 33.488h172v46.977h-172z"/><text font-family="sans-serif" font-size="14" lengthAdjust="spacingAndGlyphs" textLength="158" x="542.5" y="54.023">Open Banking Platform</text><text font-family="sans-serif" font-size="14" lengthAdjust="spacingAndGlyphs" textLength="33" x="605" y="70.512">Auth</text><path fill="#FEFECE" stroke="#a80036" stroke-width="1.5" d="M535.5 1807.408h172v46.977h-172z"/><text font-family="sans-serif" font-size="14" lengthAdjust="spacingAndGlyphs" textLength="158" x="542.5" y="1827.943">Open Banking Platform</text><text font-family="sans-serif" font-size="14" lengthAdjust="spacingAndGlyphs" textLength="33" x="605" y="1844.432">Auth</text><path fill="#FFF" stroke="#a80036" d="M22.5 128.086h10v118.242h-10zm0 282.416h10v102.932h-10zm0 236.484h10v102.932h-10zm0 236.485h10v118.242h-10zm0 251.795h10v102.932h-10zm0 236.484h10v118.242h-10zm0 251.795h10v102.932h-10zm412-1213.043h10v102.932h-10zm0 236.484h10v102.932h-10zm0 236.485h10v118.242h-10zm0 251.795h10v102.932h-10zm0 236.484h10v118.242h-10zm0 251.795h10v102.932h-10zm182-1495.459h10v118.242h-10z"/><path fill="#A80036" stroke="#a80036" d="M604.5 124.086l10 4-10 4 4-4z"/><path stroke="#a80036" d="M32.5 128.086h578"/><text font-family="sans-serif" font-size="13" font-weight="bold" lengthAdjust="spacingAndGlyphs" textLength="69" x="39.5" y="108.033">Get Token</text><text font-family="sans-serif" font-size="13" lengthAdjust="spacingAndGlyphs" textLength="136" x="39.5" y="123.344">POST /connect/token</text><path fill="#FBFB77" stroke="#a80036" d="M37 141.086h103v69H37z"/><text font-family="sans-serif" font-size="13" lengthAdjust="spacingAndGlyphs" textLength="69" x="41" y="157.654">B: client_id</text><text font-family="sans-serif" font-size="13" lengthAdjust="spacingAndGlyphs" textLength="95" x="41" y="172.965">B: client_secret</text><text font-family="sans-serif" font-size="13" lengthAdjust="spacingAndGlyphs" textLength="82" x="41" y="188.275">B: grant_type</text><text font-family="sans-serif" font-size="13" lengthAdjust="spacingAndGlyphs" textLength="52" x="41" y="203.586">B: scope</text><path fill="#A80036" stroke="#a80036" d="M38.5 242.328l-10 4 10 4-4-4z"/><path stroke="#a80036" stroke-dasharray="2,2" d="M32.5 246.328h588"/><path fill="#FBFB77" stroke="#a80036" d="M508 259.328h108v84H508z"/><text font-family="sans-serif" font-size="13" lengthAdjust="spacingAndGlyphs" textLength="61" x="512" y="275.897">HTTP 200</text><text font-family="sans-serif" font-size="13" lengthAdjust="spacingAndGlyphs" textLength="100" x="512" y="291.207">B: access_token</text><text font-family="sans-serif" font-size="13" lengthAdjust="spacingAndGlyphs" textLength="80" x="512" y="306.518">B: expires_in</text><text font-family="sans-serif" font-size="13" lengthAdjust="spacingAndGlyphs" textLength="85" x="512" y="321.828">B: token_type</text><text font-family="sans-serif" font-size="13" lengthAdjust="spacingAndGlyphs" textLength="52" x="512" y="337.139">B: scope</text><path fill="#A80036" stroke="#a80036" d="M422.5 406.502l10 4-10 4 4-4z"/><path stroke="#a80036" d="M32.5 410.502h396"/><text font-family="sans-serif" font-size="13" font-weight="bold" lengthAdjust="spacingAndGlyphs" textLength="109" x="39.5" y="390.449">Get Country List</text><text font-family="sans-serif" font-size="13" lengthAdjust="spacingAndGlyphs" textLength="272" x="39.5" y="405.76">GET /psd2/aspspinformation/v1/countries</text><path fill="#FBFB77" stroke="#a80036" d="M37 423.502h142v53H37z"/><text font-family="sans-serif" font-size="13" lengthAdjust="spacingAndGlyphs" textLength="104" x="41" y="440.07">H: Authorization</text><text font-family="sans-serif" font-size="13" lengthAdjust="spacingAndGlyphs" textLength="106" x="41" y="455.381">H: X-Request-ID</text><text font-family="sans-serif" font-size="13" lengthAdjust="spacingAndGlyphs" textLength="134" x="41" y="470.691">Q: [isoCountryCodes]</text><path fill="#A80036" stroke="#a80036" d="M38.5 509.434l-10 4 10 4-4-4z"/><path stroke="#a80036" stroke-dasharray="2,2" d="M32.5 513.434h406"/><path fill="#FBFB77" stroke="#a80036" d="M320 526.434h114v53H320z"/><text font-family="sans-serif" font-size="13" lengthAdjust="spacingAndGlyphs" textLength="61" x="324" y="543.002">HTTP 200</text><text font-family="sans-serif" font-size="13" lengthAdjust="spacingAndGlyphs" textLength="106" x="324" y="558.313">H: X-Request-ID</text><text font-family="sans-serif" font-size="13" lengthAdjust="spacingAndGlyphs" textLength="86" x="324" y="573.623">B: countryList</text><path fill="#A80036" stroke="#a80036" d="M422.5 642.986l10 4-10 4 4-4z"/><path stroke="#a80036" d="M32.5 646.986h396"/><text font-family="sans-serif" font-size="13" font-weight="bold" lengthAdjust="spacingAndGlyphs" textLength="131" x="39.5" y="626.934">Get Country Details</text><text font-family="sans-serif" font-size="13" lengthAdjust="spacingAndGlyphs" textLength="388" x="39.5" y="642.244">GET /psd2/aspspinformation/v1/countries/{isoCountryCode}</text><path fill="#FBFB77" stroke="#a80036" d="M37 659.986h124v53H37z"/><text font-family="sans-serif" font-size="13" lengthAdjust="spacingAndGlyphs" textLength="116" x="41" y="676.555">P: isoCountryCode</text><text font-family="sans-serif" font-size="13" lengthAdjust="spacingAndGlyphs" textLength="104" x="41" y="691.865">H: Authorization</text><text font-family="sans-serif" font-size="13" lengthAdjust="spacingAndGlyphs" textLength="106" x="41" y="707.176">H: X-Request-ID</text><path fill="#A80036" stroke="#a80036" d="M38.5 745.918l-10 4 10 4-4-4z"/><path stroke="#a80036" stroke-dasharray="2,2" d="M32.5 749.918h406"/><path fill="#FBFB77" stroke="#a80036" d="M320 762.918h114v53H320z"/><text font-family="sans-serif" font-size="13" lengthAdjust="spacingAndGlyphs" textLength="61" x="324" y="779.486">HTTP 200</text><text font-family="sans-serif" font-size="13" lengthAdjust="spacingAndGlyphs" textLength="106" x="324" y="794.797">H: X-Request-ID</text><text font-family="sans-serif" font-size="13" lengthAdjust="spacingAndGlyphs" textLength="63" x="324" y="810.107">B: country</text><path fill="#A80036" stroke="#a80036" d="M422.5 879.47l10 4-10 4 4-4z"/><path stroke="#a80036" d="M32.5 883.471h396"/><text font-family="sans-serif" font-size="13" font-weight="bold" lengthAdjust="spacingAndGlyphs" textLength="81" x="39.5" y="863.418">Get City List</text><text font-family="sans-serif" font-size="13" lengthAdjust="spacingAndGlyphs" textLength="247" x="39.5" y="878.729">GET /psd2/aspspinformation/v1/cities</text><path fill="#FBFB77" stroke="#a80036" d="M37 896.471h142v69H37z"/><text font-family="sans-serif" font-size="13" lengthAdjust="spacingAndGlyphs" textLength="104" x="41" y="913.039">H: Authorization</text><text font-family="sans-serif" font-size="13" lengthAdjust="spacingAndGlyphs" textLength="106" x="41" y="928.35">H: X-Request-ID</text><text font-family="sans-serif" font-size="13" lengthAdjust="spacingAndGlyphs" textLength="134" x="41" y="943.66">Q: [isoCountryCodes]</text><text font-family="sans-serif" font-size="13" lengthAdjust="spacingAndGlyphs" textLength="68" x="41" y="958.971">Q: [cityIds]</text><path fill="#A80036" stroke="#a80036" d="M38.5 997.713l-10 4 10 4-4-4z"/><path stroke="#a80036" stroke-dasharray="2,2" d="M32.5 1001.713h406"/><path fill="#FBFB77" stroke="#a80036" d="M320 1014.713h114v53H320z"/><text font-family="sans-serif" font-size="13" lengthAdjust="spacingAndGlyphs" textLength="61" x="324" y="1031.281">HTTP 200</text><text font-family="sans-serif" font-size="13" lengthAdjust="spacingAndGlyphs" textLength="106" x="324" y="1046.592">H: X-Request-ID</text><text font-family="sans-serif" font-size="13" lengthAdjust="spacingAndGlyphs" textLength="61" x="324" y="1061.902">B: cityList</text><path fill="#A80036" stroke="#a80036" d="M422.5 1131.266l10 4-10 4 4-4z"/><path stroke="#a80036" d="M32.5 1135.266h396"/><text font-family="sans-serif" font-size="13" font-weight="bold" lengthAdjust="spacingAndGlyphs" textLength="103" x="39.5" y="1115.213">Get City Details</text><text font-family="sans-serif" font-size="13" lengthAdjust="spacingAndGlyphs" textLength="305" x="39.5" y="1130.523">GET /psd2/aspspinformation/v1/cities/{city-id}</text><path fill="#FBFB77" stroke="#a80036" d="M37 1148.266h114v53H37z"/><text font-family="sans-serif" font-size="13" lengthAdjust="spacingAndGlyphs" textLength="58" x="41" y="1164.834">P: city-id</text><text font-family="sans-serif" font-size="13" lengthAdjust="spacingAndGlyphs" textLength="104" x="41" y="1180.145">H: Authorization</text><text font-family="sans-serif" font-size="13" lengthAdjust="spacingAndGlyphs" textLength="106" x="41" y="1195.455">H: X-Request-ID</text><path fill="#A80036" stroke="#a80036" d="M38.5 1234.197l-10 4 10 4-4-4z"/><path stroke="#a80036" stroke-dasharray="2,2" d="M32.5 1238.197h406"/><path fill="#FBFB77" stroke="#a80036" d="M320 1251.197h114v53H320z"/><text font-family="sans-serif" font-size="13" lengthAdjust="spacingAndGlyphs" textLength="61" x="324" y="1267.766">HTTP 200</text><text font-family="sans-serif" font-size="13" lengthAdjust="spacingAndGlyphs" textLength="106" x="324" y="1283.076">H: X-Request-ID</text><text font-family="sans-serif" font-size="13" lengthAdjust="spacingAndGlyphs" textLength="38" x="324" y="1298.387">B: city</text><path fill="#A80036" stroke="#a80036" d="M422.5 1367.75l10 4-10 4 4-4z"/><path stroke="#a80036" d="M32.5 1371.75h396"/><text font-family="sans-serif" font-size="13" font-weight="bold" lengthAdjust="spacingAndGlyphs" textLength="95" x="39.5" y="1351.697">Get ASPSP List</text><text font-family="sans-serif" font-size="13" lengthAdjust="spacingAndGlyphs" textLength="257" x="39.5" y="1367.008">GET /psd2/aspspinformation/v1/aspsps</text><path fill="#FBFB77" stroke="#a80036" d="M37 1384.75h142v69H37z"/><text font-family="sans-serif" font-size="13" lengthAdjust="spacingAndGlyphs" textLength="104" x="41" y="1401.318">H: Authorization</text><text font-family="sans-serif" font-size="13" lengthAdjust="spacingAndGlyphs" textLength="106" x="41" y="1416.629">H: X-Request-ID</text><text font-family="sans-serif" font-size="13" lengthAdjust="spacingAndGlyphs" textLength="134" x="41" y="1431.939">Q: [isoCountryCodes]</text><text font-family="sans-serif" font-size="13" lengthAdjust="spacingAndGlyphs" textLength="68" x="41" y="1447.25">Q: [cityIds]</text><path fill="#A80036" stroke="#a80036" d="M38.5 1485.992l-10 4 10 4-4-4z"/><path stroke="#a80036" stroke-dasharray="2,2" d="M32.5 1489.992h406"/><path fill="#FBFB77" stroke="#a80036" d="M320 1502.992h114v53H320z"/><text font-family="sans-serif" font-size="13" lengthAdjust="spacingAndGlyphs" textLength="61" x="324" y="1519.561">HTTP 200</text><text font-family="sans-serif" font-size="13" lengthAdjust="spacingAndGlyphs" textLength="106" x="324" y="1534.871">H: X-Request-ID</text><text font-family="sans-serif" font-size="13" lengthAdjust="spacingAndGlyphs" textLength="75" x="324" y="1550.182">B: aspspList</text><path fill="#A80036" stroke="#a80036" d="M422.5 1619.545l10 4-10 4 4-4z"/><path stroke="#a80036" d="M32.5 1623.545h396"/><text font-family="sans-serif" font-size="13" font-weight="bold" lengthAdjust="spacingAndGlyphs" textLength="117" x="39.5" y="1603.492">Get ASPSP Details</text><text font-family="sans-serif" font-size="13" lengthAdjust="spacingAndGlyphs" textLength="302" x="39.5" y="1618.803">GET /psd2/aspspinformation/v1/aspsps/{bicFi}</text><path fill="#FBFB77" stroke="#a80036" d="M37 1636.545h114v53H37z"/><text font-family="sans-serif" font-size="13" lengthAdjust="spacingAndGlyphs" textLength="45" x="41" y="1653.113">P: bicFi</text><text font-family="sans-serif" font-size="13" lengthAdjust="spacingAndGlyphs" textLength="104" x="41" y="1668.424">H: Authorization</text><text font-family="sans-serif" font-size="13" lengthAdjust="spacingAndGlyphs" textLength="106" x="41" y="1683.734">H: X-Request-ID</text><path fill="#A80036" stroke="#a80036" d="M38.5 1722.477l-10 4 10 4-4-4z"/><path stroke="#a80036" stroke-dasharray="2,2" d="M32.5 1726.477h406"/><path fill="#FBFB77" stroke="#a80036" d="M320 1739.477h114v53H320z"/><text font-family="sans-serif" font-size="13" lengthAdjust="spacingAndGlyphs" textLength="61" x="324" y="1756.045">HTTP 200</text><text font-family="sans-serif" font-size="13" lengthAdjust="spacingAndGlyphs" textLength="106" x="324" y="1771.355">H: X-Request-ID</text><text font-family="sans-serif" font-size="13" lengthAdjust="spacingAndGlyphs" textLength="52" x="324" y="1786.666">B: aspsp</text></svg>