<svg xmlns="http://www.w3.org/2000/svg" height="1605" preserveAspectRatio="none" style="width:718px;height:1605px" viewBox="0 0 718 1605" width="718"><path fill="#FFF" stroke="#a80036" d="M22.5 97.598h10v133.553h-10zm0 236.484h10v102.932h-10zm0 205.863h10v102.932h-10zm0 205.864h10v118.242h-10zm0 221.173h10v102.932h-10zm0 205.864h10v118.242h-10zm0 221.174h10v102.932h-10zm412-1059.938h10v102.932h-10zm0 205.863h10v102.932h-10zm0 205.864h10v118.242h-10zm0 221.173h10v102.932h-10zm0 205.864h10v118.242h-10zm0 221.174h10v102.932h-10zm182-1296.422h10v133.553h-10z"/><path stroke="#a80036" stroke-dasharray="5,5" d="M27 50.977v1497.285M439.5 50.977v1497.285m182-1497.285v1497.285"/><path fill="#FEFECE" stroke="#a80036" stroke-width="1.5" d="M8 19.488h39v30.488H8z"/><text font-family="sans-serif" font-size="14" lengthAdjust="spacingAndGlyphs" textLength="25" x="15" y="40.023">TPP</text><path fill="#FEFECE" stroke="#a80036" stroke-width="1.5" d="M8 1547.262h39v30.488H8z"/><text font-family="sans-serif" font-size="14" lengthAdjust="spacingAndGlyphs" textLength="25" x="15" y="1567.797">TPP</text><path fill="#FEFECE" stroke="#a80036" stroke-width="1.5" d="M353.5 3h172v46.977h-172z"/><text font-family="sans-serif" font-size="14" lengthAdjust="spacingAndGlyphs" textLength="158" x="360.5" y="23.535">Open Banking Platform</text><text font-family="sans-serif" font-size="14" lengthAdjust="spacingAndGlyphs" textLength="22" x="428.5" y="40.023">API</text><path fill="#FEFECE" stroke="#a80036" stroke-width="1.5" d="M353.5 1547.262h172v46.977h-172z"/><text font-family="sans-serif" font-size="14" lengthAdjust="spacingAndGlyphs" textLength="158" x="360.5" y="1567.797">Open Banking Platform</text><text font-family="sans-serif" font-size="14" lengthAdjust="spacingAndGlyphs" textLength="22" x="428.5" y="1584.285">API</text><path fill="#FEFECE" stroke="#a80036" stroke-width="1.5" d="M535.5 3h172v46.977h-172z"/><text font-family="sans-serif" font-size="14" lengthAdjust="spacingAndGlyphs" textLength="158" x="542.5" y="23.535">Open Banking Platform</text><text font-family="sans-serif" font-size="14" lengthAdjust="spacingAndGlyphs" textLength="33" x="605" y="40.023">Auth</text><path fill="#FEFECE" stroke="#a80036" stroke-width="1.5" d="M535.5 1547.262h172v46.977h-172z"/><text font-family="sans-serif" font-size="14" lengthAdjust="spacingAndGlyphs" textLength="158" x="542.5" y="1567.797">Open Banking Platform</text><text font-family="sans-serif" font-size="14" lengthAdjust="spacingAndGlyphs" textLength="33" x="605" y="1584.285">Auth</text><path fill="#FFF" stroke="#a80036" d="M22.5 97.598h10v133.553h-10zm0 236.484h10v102.932h-10zm0 205.863h10v102.932h-10zm0 205.864h10v118.242h-10zm0 221.173h10v102.932h-10zm0 205.864h10v118.242h-10zm0 221.174h10v102.932h-10zm412-1059.938h10v102.932h-10zm0 205.863h10v102.932h-10zm0 205.864h10v118.242h-10zm0 221.173h10v102.932h-10zm0 205.864h10v118.242h-10zm0 221.174h10v102.932h-10zm182-1296.422h10v133.553h-10z"/><path fill="#A80036" stroke="#a80036" d="M604.5 93.598l10 4-10 4 4-4z"/><path stroke="#a80036" d="M32.5 97.598h578"/><text font-family="sans-serif" font-size="13" font-weight="bold" lengthAdjust="spacingAndGlyphs" textLength="69" x="39.5" y="77.545">Get Token</text><text font-family="sans-serif" font-size="13" lengthAdjust="spacingAndGlyphs" textLength="136" x="39.5" y="92.856">POST /connect/token</text><path fill="#FBFB77" stroke="#a80036" d="M37 110.598h103v69H37z"/><text font-family="sans-serif" font-size="13" lengthAdjust="spacingAndGlyphs" textLength="69" x="41" y="127.166">B: client_id</text><text font-family="sans-serif" font-size="13" lengthAdjust="spacingAndGlyphs" textLength="95" x="41" y="142.477">B: client_secret</text><text font-family="sans-serif" font-size="13" lengthAdjust="spacingAndGlyphs" textLength="82" x="41" y="157.787">B: grant_type</text><text font-family="sans-serif" font-size="13" lengthAdjust="spacingAndGlyphs" textLength="52" x="41" y="173.098">B: scope</text><path fill="#A80036" stroke="#a80036" d="M38.5 227.15l-10 4 10 4-4-4z"/><path stroke="#a80036" stroke-dasharray="2,2" d="M32.5 231.15h588"/><text font-family="sans-serif" font-size="13" lengthAdjust="spacingAndGlyphs" textLength="85" x="44.5" y="226.408">access_token</text><path fill="#FBFB77" stroke="#a80036" d="M523 244.15h93v23h-93z"/><text font-family="sans-serif" font-size="13" lengthAdjust="spacingAndGlyphs" textLength="85" x="527" y="260.719">access_token</text><path fill="#A80036" stroke="#a80036" d="M422.5 330.082l10 4-10 4 4-4z"/><path stroke="#a80036" d="M32.5 334.082h396"/><text font-family="sans-serif" font-size="13" font-weight="bold" lengthAdjust="spacingAndGlyphs" textLength="92" x="39.5" y="314.029">Get Countries</text><text font-family="sans-serif" font-size="13" lengthAdjust="spacingAndGlyphs" textLength="272" x="39.5" y="329.34">GET /psd2/aspspinformation/v1/countries</text><path fill="#FBFB77" stroke="#a80036" d="M37 347.082h142v53H37z"/><text font-family="sans-serif" font-size="13" lengthAdjust="spacingAndGlyphs" textLength="103" x="41" y="363.65">H: access_token</text><text font-family="sans-serif" font-size="13" lengthAdjust="spacingAndGlyphs" textLength="106" x="41" y="378.961">H: X-Request-ID</text><text font-family="sans-serif" font-size="13" lengthAdjust="spacingAndGlyphs" textLength="134" x="41" y="394.272">Q: [isoCountryCodes]</text><path fill="#A80036" stroke="#a80036" d="M38.5 433.014l-10 4 10 4-4-4z"/><path stroke="#a80036" stroke-dasharray="2,2" d="M32.5 437.014h406"/><path fill="#FBFB77" stroke="#a80036" d="M355 450.014h79v23h-79z"/><text font-family="sans-serif" font-size="13" lengthAdjust="spacingAndGlyphs" textLength="71" x="359" y="466.582">countryList</text><path fill="#A80036" stroke="#a80036" d="M422.5 535.945l10 4-10 4 4-4z"/><path stroke="#a80036" d="M32.5 539.945h396"/><text font-family="sans-serif" font-size="13" font-weight="bold" lengthAdjust="spacingAndGlyphs" textLength="81" x="39.5" y="519.893">Get Country</text><text font-family="sans-serif" font-size="13" lengthAdjust="spacingAndGlyphs" textLength="388" x="39.5" y="535.203">GET /psd2/aspspinformation/v1/countries/{isoCountryCode}</text><path fill="#FBFB77" stroke="#a80036" d="M37 552.945h124v53H37z"/><text font-family="sans-serif" font-size="13" lengthAdjust="spacingAndGlyphs" textLength="116" x="41" y="569.514">P: isoCountryCode</text><text font-family="sans-serif" font-size="13" lengthAdjust="spacingAndGlyphs" textLength="103" x="41" y="584.824">H: access_token</text><text font-family="sans-serif" font-size="13" lengthAdjust="spacingAndGlyphs" textLength="106" x="41" y="600.135">H: X-Request-ID</text><path fill="#A80036" stroke="#a80036" d="M38.5 638.877l-10 4 10 4-4-4z"/><path stroke="#a80036" stroke-dasharray="2,2" d="M32.5 642.877h406"/><path fill="#FBFB77" stroke="#a80036" d="M378 655.877h56v23h-56z"/><text font-family="sans-serif" font-size="13" lengthAdjust="spacingAndGlyphs" textLength="48" x="382" y="672.445">country</text><path fill="#A80036" stroke="#a80036" d="M422.5 741.809l10 4-10 4 4-4z"/><path stroke="#a80036" d="M32.5 745.809h396"/><text font-family="sans-serif" font-size="13" font-weight="bold" lengthAdjust="spacingAndGlyphs" textLength="64" x="39.5" y="725.756">Get Cities</text><text font-family="sans-serif" font-size="13" lengthAdjust="spacingAndGlyphs" textLength="247" x="39.5" y="741.066">GET /psd2/aspspinformation/v1/cities</text><path fill="#FBFB77" stroke="#a80036" d="M37 758.809h142v69H37z"/><text font-family="sans-serif" font-size="13" lengthAdjust="spacingAndGlyphs" textLength="103" x="41" y="775.377">H: access_token</text><text font-family="sans-serif" font-size="13" lengthAdjust="spacingAndGlyphs" textLength="106" x="41" y="790.688">H: X-Request-ID</text><text font-family="sans-serif" font-size="13" lengthAdjust="spacingAndGlyphs" textLength="134" x="41" y="805.998">Q: [isoCountryCodes]</text><text font-family="sans-serif" font-size="13" lengthAdjust="spacingAndGlyphs" textLength="68" x="41" y="821.309">Q: [cityIds]</text><path fill="#A80036" stroke="#a80036" d="M38.5 860.05l-10 4 10 4-4-4z"/><path stroke="#a80036" stroke-dasharray="2,2" d="M32.5 864.051h406"/><path fill="#FBFB77" stroke="#a80036" d="M380 877.051h54v23h-54z"/><text font-family="sans-serif" font-size="13" lengthAdjust="spacingAndGlyphs" textLength="46" x="384" y="893.619">cityList</text><path fill="#A80036" stroke="#a80036" d="M422.5 962.982l10 4-10 4 4-4z"/><path stroke="#a80036" d="M32.5 966.982h396"/><text font-family="sans-serif" font-size="13" font-weight="bold" lengthAdjust="spacingAndGlyphs" textLength="53" x="39.5" y="946.93">Get City</text><text font-family="sans-serif" font-size="13" lengthAdjust="spacingAndGlyphs" textLength="305" x="39.5" y="962.24">GET /psd2/aspspinformation/v1/cities/{city-id}</text><path fill="#FBFB77" stroke="#a80036" d="M37 979.982h114v53H37z"/><text font-family="sans-serif" font-size="13" lengthAdjust="spacingAndGlyphs" textLength="58" x="41" y="996.551">P: city-id</text><text font-family="sans-serif" font-size="13" lengthAdjust="spacingAndGlyphs" textLength="103" x="41" y="1011.861">H: access_token</text><text font-family="sans-serif" font-size="13" lengthAdjust="spacingAndGlyphs" textLength="106" x="41" y="1027.172">H: X-Request-ID</text><path fill="#A80036" stroke="#a80036" d="M38.5 1065.914l-10 4 10 4-4-4z"/><path stroke="#a80036" stroke-dasharray="2,2" d="M32.5 1069.914h406"/><path fill="#FBFB77" stroke="#a80036" d="M380 1082.914h54v23h-54z"/><text font-family="sans-serif" font-size="13" lengthAdjust="spacingAndGlyphs" textLength="46" x="384" y="1099.482">cityList</text><path fill="#A80036" stroke="#a80036" d="M422.5 1168.846l10 4-10 4 4-4z"/><path stroke="#a80036" d="M32.5 1172.846h396"/><text font-family="sans-serif" font-size="13" font-weight="bold" lengthAdjust="spacingAndGlyphs" textLength="74" x="39.5" y="1152.793">Get ASPSPs</text><text font-family="sans-serif" font-size="13" lengthAdjust="spacingAndGlyphs" textLength="257" x="39.5" y="1168.103">GET /psd2/aspspinformation/v1/aspsps</text><path fill="#FBFB77" stroke="#a80036" d="M37 1185.846h142v69H37z"/><text font-family="sans-serif" font-size="13" lengthAdjust="spacingAndGlyphs" textLength="103" x="41" y="1202.414">H: access_token</text><text font-family="sans-serif" font-size="13" lengthAdjust="spacingAndGlyphs" textLength="106" x="41" y="1217.725">H: X-Request-ID</text><text font-family="sans-serif" font-size="13" lengthAdjust="spacingAndGlyphs" textLength="134" x="41" y="1233.035">Q: [isoCountryCodes]</text><text font-family="sans-serif" font-size="13" lengthAdjust="spacingAndGlyphs" textLength="68" x="41" y="1248.346">Q: [cityIds]</text><path fill="#A80036" stroke="#a80036" d="M38.5 1287.088l-10 4 10 4-4-4z"/><path stroke="#a80036" stroke-dasharray="2,2" d="M32.5 1291.088h406"/><path fill="#FBFB77" stroke="#a80036" d="M366 1304.088h68v23h-68z"/><text font-family="sans-serif" font-size="13" lengthAdjust="spacingAndGlyphs" textLength="60" x="370" y="1320.656">aspspList</text><path fill="#A80036" stroke="#a80036" d="M422.5 1390.02l10 4-10 4 4-4z"/><path stroke="#a80036" d="M32.5 1394.02h396"/><text font-family="sans-serif" font-size="13" font-weight="bold" lengthAdjust="spacingAndGlyphs" textLength="67" x="39.5" y="1373.967">Get ASPSP</text><text font-family="sans-serif" font-size="13" lengthAdjust="spacingAndGlyphs" textLength="302" x="39.5" y="1389.277">GET /psd2/aspspinformation/v1/aspsps/{bicFi}</text><path fill="#FBFB77" stroke="#a80036" d="M37 1407.02h114v53H37z"/><text font-family="sans-serif" font-size="13" lengthAdjust="spacingAndGlyphs" textLength="45" x="41" y="1423.588">P: bicFi</text><text font-family="sans-serif" font-size="13" lengthAdjust="spacingAndGlyphs" textLength="103" x="41" y="1438.898">H: access_token</text><text font-family="sans-serif" font-size="13" lengthAdjust="spacingAndGlyphs" textLength="106" x="41" y="1454.209">H: X-Request-ID</text><path fill="#A80036" stroke="#a80036" d="M38.5 1492.951l-10 4 10 4-4-4z"/><path stroke="#a80036" stroke-dasharray="2,2" d="M32.5 1496.951h406"/><path fill="#FBFB77" stroke="#a80036" d="M389 1509.951h45v23h-45z"/><text font-family="sans-serif" font-size="13" lengthAdjust="spacingAndGlyphs" textLength="37" x="393" y="1526.52">aspsp</text></svg>