<svg xmlns="http://www.w3.org/2000/svg" viewBox="0 0 570 573"><path d="M495 17.2c-17.7 15.5-54.9 52.2-71.3 70.3-42.4 46.9-78.2 95-109.9 147.8-35.1 58.4-68.4 130.7-87.9 190.9-3.2 9.9-4.7 13.1-5.7 12.7-.8-.2-39.7-25.7-86.4-56.6-59.7-39.4-85.4-55.8-86.3-55.2-.8.5-10.6 13.3-21.9 28.4-16.9 22.5-20.5 28-20.3 30.3.3 2.5 13.4 11.4 135.3 91.7l135 89 .7-4.3c.3-2.3 1.4-10.5 2.3-18.2 9-75.7 41.3-164 91.3-249.5C421 207.2 489 124.4 551.9 73.2c6.7-5.5 12.1-10.3 12-10.7-.2-.4-11.3-13.3-24.8-28.8C517 8.4 514.3 5.6 511.5 5.6c-2.6-.1-5.4 1.9-16.5 11.6z" fill="#080"/></svg>