<svg xmlns="http://www.w3.org/2000/svg" height="3771" preserveAspectRatio="none" style="width:1011px;height:3771px" viewBox="0 0 1011 3771" width="1011"><path fill="#FFF" stroke="#fff" d="M34 2181.158h10v8H34z"/><path stroke="#a80036" d="M34 2181.158v8m10-8v8m-10-8h10"/><path fill="#FFF" stroke="#fff" d="M34 2217.158h10v21.311H34z"/><path stroke="#a80036" d="M34 2217.158v21.311m10-21.311v21.311m-10 0h10"/><path fill="#FFF" stroke="#fff" d="M34 2958.43h10v8H34z"/><path stroke="#a80036" d="M34 2958.43v8m10-8v8m-10-8h10"/><path fill="#FFF" stroke="#fff" d="M34 2994.43h10v21.311H34z"/><path stroke="#a80036" d="M34 2994.43v21.31m10-21.31v21.31m-10 0h10"/><path fill="#FFF" stroke="#a80036" d="M79.5 129.109h10v133.553h-10zm0 203.174h10v118.242h-10zm0 221.174h10v118.242h-10zm0 221.174h10v118.242h-10zm0 221.174h10v118.242h-10zm0 221.173h10v118.242h-10zm0 221.174h10v133.553h-10z"/><path fill="#FFF" stroke="#fff" d="M79.5 1674.637h10v514.521h-10z"/><path stroke="#a80036" d="M79.5 1674.637v514.521m10-514.521v514.521m-10-514.521h10"/><path fill="#FFF" stroke="#fff" d="M79.5 2217.158h10v749.271h-10z"/><path stroke="#a80036" d="M79.5 2217.158v749.272m10-749.272v749.272"/><path fill="#FFF" stroke="#fff" d="M79.5 2994.43h10v95.242h-10z"/><path stroke="#a80036" d="M79.5 2994.43v95.242m10-95.242v95.242m-10 0h10"/><path fill="#FFF" stroke="#a80036" d="M79.5 3272.18h10v133.553h-10zm0 275.484h10v118.242h-10zm571-3215.381h10v118.242h-10zm0 221.174h10v118.242h-10zm0 221.174h10v118.242h-10zm0 221.174h10v118.242h-10zm0 221.173h10v118.242h-10zm0 221.174h10v133.553h-10zm0 236.485h10V1823.5h-10zm0 1597.543h10v133.553h-10zm0 275.484h10v118.242h-10zm182-3418.555h10v133.553h-10zm0 1854.254h10v139.174h-10zm0 284.416h10v44.621h-10zm0 153.174h10v179.484h-10zm0 339.682h10v139.174h-10zm0 284.416h10v44.621h-10z"/><path fill="#FFF" stroke="#fff" d="M956.5 2151.848h10v37.31h-10z"/><path stroke="#a80036" d="M956.5 2151.848v37.31m10-37.31v37.31m-10-37.31h10"/><path fill="#FFF" stroke="#fff" d="M956.5 2217.158h10v50.621h-10z"/><path stroke="#a80036" d="M956.5 2217.158v50.621m10-50.621v50.621m-10 0h10"/><path fill="#FFF" stroke="#fff" d="M956.5 2929.119h10v37.31h-10z"/><path stroke="#a80036" d="M956.5 2929.119v37.311m10-37.311v37.311m-10-37.311h10"/><path fill="#FFF" stroke="#fff" d="M956.5 2994.43h10v50.621h-10z"/><path stroke="#a80036" d="M956.5 2994.43v50.621m10-50.621v50.621m-10 0h10"/><path fill="#FFF" stroke="#000" stroke-width="2" d="M13 1887.121h986.5v1591.922H13z"/><path fill="#FFF" d="M13 2666.748h986.5v504.545H13zm0 504.545h986.5v307.75H13z"/><path fill="#FFF" stroke="#000" stroke-width="2" d="M55 3193.248h696.5v253.795H55z"/><path stroke="#a80036" d="M39 82.488v2106.67"/><path stroke="#a80036" stroke-dasharray="1,4" d="M39 2189.158v28"/><path stroke="#a80036" d="M39 2217.158v749.272"/><path stroke="#a80036" stroke-dasharray="1,4" d="M39 2966.43v28"/><path stroke="#a80036" d="M39 2994.43v689.476M84 82.488v2106.67"/><path stroke="#a80036" stroke-dasharray="1,4" d="M84 2189.158v28"/><path stroke="#a80036" d="M84 2217.158v749.272"/><path stroke="#a80036" stroke-dasharray="1,4" d="M84 2966.43v28"/><path stroke="#a80036" d="M84 2994.43v689.476M655.5 82.488v2106.67"/><path stroke="#a80036" stroke-dasharray="1,4" d="M655.5 2189.158v28"/><path stroke="#a80036" d="M655.5 2217.158v749.272"/><path stroke="#a80036" stroke-dasharray="1,4" d="M655.5 2966.43v28"/><path stroke="#a80036" d="M655.5 2994.43v689.476m182-3601.418v2106.67"/><path stroke="#a80036" stroke-dasharray="1,4" d="M837.5 2189.158v28"/><path stroke="#a80036" d="M837.5 2217.158v749.272"/><path stroke="#a80036" stroke-dasharray="1,4" d="M837.5 2966.43v28"/><path stroke="#a80036" d="M837.5 2994.43v689.476m124-3601.418v2106.67"/><path stroke="#a80036" stroke-dasharray="1,4" d="M961.5 2189.158v28"/><path stroke="#a80036" d="M961.5 2217.158v749.272"/><path stroke="#a80036" stroke-dasharray="1,4" d="M961.5 2966.43v28"/><path stroke="#a80036" d="M961.5 2994.43v689.476"/><text font-family="sans-serif" font-size="14" lengthAdjust="spacingAndGlyphs" textLength="26" x="23" y="79.535">PSU</text><circle cx="39" cy="13" fill="#FEFECE" stroke="#a80036" stroke-width="2" r="8"/><path d="M39 21v27M26 29h26M39 48L26 63m13-15l13 15" fill="none" stroke="#a80036" stroke-width="2"/><text font-family="sans-serif" font-size="14" lengthAdjust="spacingAndGlyphs" textLength="26" x="23" y="3696.441">PSU</text><circle cx="39" cy="3709.394" fill="#FEFECE" stroke="#a80036" stroke-width="2" r="8"/><path d="M39 3717.394v27m-13-19h26m-13 19l-13 15m13-15l13 15" fill="none" stroke="#a80036" stroke-width="2"/><path fill="#FEFECE" stroke="#a80036" stroke-width="1.5" d="M65 51h39v30.488H65z"/><text font-family="sans-serif" font-size="14" lengthAdjust="spacingAndGlyphs" textLength="25" x="72" y="71.535">TPP</text><path fill="#FEFECE" stroke="#a80036" stroke-width="1.5" d="M65 3682.906h39v30.488H65z"/><text font-family="sans-serif" font-size="14" lengthAdjust="spacingAndGlyphs" textLength="25" x="72" y="3703.441">TPP</text><path fill="#FEFECE" stroke="#a80036" stroke-width="1.5" d="M569.5 34.512h172v46.977h-172z"/><text font-family="sans-serif" font-size="14" lengthAdjust="spacingAndGlyphs" textLength="158" x="576.5" y="55.047">Open Banking Platform</text><text font-family="sans-serif" font-size="14" lengthAdjust="spacingAndGlyphs" textLength="22" x="644.5" y="71.535">API</text><path fill="#FEFECE" stroke="#a80036" stroke-width="1.5" d="M569.5 3682.906h172v46.977h-172z"/><text font-family="sans-serif" font-size="14" lengthAdjust="spacingAndGlyphs" textLength="158" x="576.5" y="3703.441">Open Banking Platform</text><text font-family="sans-serif" font-size="14" lengthAdjust="spacingAndGlyphs" textLength="22" x="644.5" y="3719.93">API</text><path fill="#FEFECE" stroke="#a80036" stroke-width="1.5" d="M751.5 34.512h172v46.977h-172z"/><text font-family="sans-serif" font-size="14" lengthAdjust="spacingAndGlyphs" textLength="158" x="758.5" y="55.047">Open Banking Platform</text><text font-family="sans-serif" font-size="14" lengthAdjust="spacingAndGlyphs" textLength="33" x="821" y="71.535">Auth</text><path fill="#FEFECE" stroke="#a80036" stroke-width="1.5" d="M751.5 3682.906h172v46.977h-172z"/><text font-family="sans-serif" font-size="14" lengthAdjust="spacingAndGlyphs" textLength="158" x="758.5" y="3703.441">Open Banking Platform</text><text font-family="sans-serif" font-size="14" lengthAdjust="spacingAndGlyphs" textLength="33" x="821" y="3719.93">Auth</text><path fill="#FEFECE" stroke="#a80036" stroke-width="1.5" d="M933.5 51h56v30.488h-56z"/><text font-family="sans-serif" font-size="14" lengthAdjust="spacingAndGlyphs" textLength="42" x="940.5" y="71.535">ASPSP</text><path fill="#FEFECE" stroke="#a80036" stroke-width="1.5" d="M933.5 3682.906h56v30.488h-56z"/><text font-family="sans-serif" font-size="14" lengthAdjust="spacingAndGlyphs" textLength="42" x="940.5" y="3703.441">ASPSP</text><path fill="#FFF" stroke="#fff" d="M34 2181.158h10v8H34z"/><path stroke="#a80036" d="M34 2181.158v8m10-8v8m-10-8h10"/><path fill="#FFF" stroke="#fff" d="M34 2217.158h10v21.311H34z"/><path stroke="#a80036" d="M34 2217.158v21.311m10-21.311v21.311m-10 0h10"/><path fill="#FFF" stroke="#fff" d="M34 2958.43h10v8H34z"/><path stroke="#a80036" d="M34 2958.43v8m10-8v8m-10-8h10"/><path fill="#FFF" stroke="#fff" d="M34 2994.43h10v21.311H34z"/><path stroke="#a80036" d="M34 2994.43v21.31m10-21.31v21.31m-10 0h10"/><path fill="#FFF" stroke="#a80036" d="M79.5 129.109h10v133.553h-10zm0 203.174h10v118.242h-10zm0 221.174h10v118.242h-10zm0 221.174h10v118.242h-10zm0 221.174h10v118.242h-10zm0 221.173h10v118.242h-10zm0 221.174h10v133.553h-10z"/><path fill="#FFF" stroke="#fff" d="M79.5 1674.637h10v514.521h-10z"/><path stroke="#a80036" d="M79.5 1674.637v514.521m10-514.521v514.521m-10-514.521h10"/><path fill="#FFF" stroke="#fff" d="M79.5 2217.158h10v749.271h-10z"/><path stroke="#a80036" d="M79.5 2217.158v749.272m10-749.272v749.272"/><path fill="#FFF" stroke="#fff" d="M79.5 2994.43h10v95.242h-10z"/><path stroke="#a80036" d="M79.5 2994.43v95.242m10-95.242v95.242m-10 0h10"/><path fill="#FFF" stroke="#a80036" d="M79.5 3272.18h10v133.553h-10zm0 275.484h10v118.242h-10zm571-3215.381h10v118.242h-10zm0 221.174h10v118.242h-10zm0 221.174h10v118.242h-10zm0 221.174h10v118.242h-10zm0 221.173h10v118.242h-10zm0 221.174h10v133.553h-10zm0 236.485h10V1823.5h-10zm0 1597.543h10v133.553h-10zm0 275.484h10v118.242h-10zm182-3418.555h10v133.553h-10zm0 1854.254h10v139.174h-10zm0 284.416h10v44.621h-10zm0 153.174h10v179.484h-10zm0 339.682h10v139.174h-10zm0 284.416h10v44.621h-10z"/><path fill="#FFF" stroke="#fff" d="M956.5 2151.848h10v37.31h-10z"/><path stroke="#a80036" d="M956.5 2151.848v37.31m10-37.31v37.31m-10-37.31h10"/><path fill="#FFF" stroke="#fff" d="M956.5 2217.158h10v50.621h-10z"/><path stroke="#a80036" d="M956.5 2217.158v50.621m10-50.621v50.621m-10 0h10"/><path fill="#FFF" stroke="#fff" d="M956.5 2929.119h10v37.31h-10z"/><path stroke="#a80036" d="M956.5 2929.119v37.311m10-37.311v37.311m-10-37.311h10"/><path fill="#FFF" stroke="#fff" d="M956.5 2994.43h10v50.621h-10z"/><path stroke="#a80036" d="M956.5 2994.43v50.621m10-50.621v50.621m-10 0h10"/><path fill="#A80036" stroke="#a80036" d="M820.5 125.11l10 4-10 4 4-4z"/><path stroke="#a80036" d="M89.5 129.109h737"/><text font-family="sans-serif" font-size="13" font-weight="bold" lengthAdjust="spacingAndGlyphs" textLength="69" x="96.5" y="109.057">Get Token</text><text font-family="sans-serif" font-size="13" lengthAdjust="spacingAndGlyphs" textLength="136" x="96.5" y="124.367">POST /connect/token</text><path fill="#FBFB77" stroke="#a80036" d="M94 142.109h103v69H94z"/><text font-family="sans-serif" font-size="13" lengthAdjust="spacingAndGlyphs" textLength="69" x="98" y="158.678">B: client_id</text><text font-family="sans-serif" font-size="13" lengthAdjust="spacingAndGlyphs" textLength="95" x="98" y="173.988">B: client_secret</text><text font-family="sans-serif" font-size="13" lengthAdjust="spacingAndGlyphs" textLength="82" x="98" y="189.299">B: grant_type</text><text font-family="sans-serif" font-size="13" lengthAdjust="spacingAndGlyphs" textLength="52" x="98" y="204.609">B: scope</text><path fill="#A80036" stroke="#a80036" d="M95.5 258.662l-10 4 10 4-4-4z"/><path stroke="#a80036" stroke-dasharray="2,2" d="M89.5 262.662h747"/><text font-family="sans-serif" font-size="13" lengthAdjust="spacingAndGlyphs" textLength="85" x="101.5" y="257.92">access_token</text><path fill="#A80036" stroke="#a80036" d="M638.5 328.283l10 4-10 4 4-4z"/><path stroke="#a80036" d="M89.5 332.283h555"/><text font-family="sans-serif" font-size="13" font-weight="bold" lengthAdjust="spacingAndGlyphs" textLength="103" x="96.5" y="312.231">Create Consent</text><text font-family="sans-serif" font-size="13" lengthAdjust="spacingAndGlyphs" textLength="217" x="96.5" y="327.541">POST /psd2/consent/v1/consents</text><path fill="#FBFB77" stroke="#a80036" d="M94 345.283h114v69H94z"/><text font-family="sans-serif" font-size="13" lengthAdjust="spacingAndGlyphs" textLength="103" x="98" y="361.852">H: access_token</text><text font-family="sans-serif" font-size="13" lengthAdjust="spacingAndGlyphs" textLength="106" x="98" y="377.162">H: X-Request-ID</text><text font-family="sans-serif" font-size="13" lengthAdjust="spacingAndGlyphs" textLength="63" x="98" y="392.473">H: X-BicFi</text><text font-family="sans-serif" font-size="13" lengthAdjust="spacingAndGlyphs" textLength="72" x="98" y="407.783">B: consents</text><path fill="#A80036" stroke="#a80036" d="M95.5 446.525l-10 4 10 4-4-4z"/><path stroke="#a80036" stroke-dasharray="2,2" d="M89.5 450.525h565"/><path fill="#FBFB77" stroke="#a80036" d="M525 463.525h125v23H525z"/><text font-family="sans-serif" font-size="13" lengthAdjust="spacingAndGlyphs" textLength="117" x="529" y="480.094">consentsResponse</text><path fill="#A80036" stroke="#a80036" d="M638.5 549.457l10 4-10 4 4-4z"/><path stroke="#a80036" d="M89.5 553.457h555"/><text font-family="sans-serif" font-size="13" font-weight="bold" lengthAdjust="spacingAndGlyphs" textLength="82" x="96.5" y="533.404">Get Consent</text><text font-family="sans-serif" font-size="13" lengthAdjust="spacingAndGlyphs" textLength="286" x="96.5" y="548.715">GET /psd2/consent/v1/consents/{consentId}</text><path fill="#FBFB77" stroke="#a80036" d="M94 566.457h114v69H94z"/><text font-family="sans-serif" font-size="13" lengthAdjust="spacingAndGlyphs" textLength="77" x="98" y="583.025">P: consentId</text><text font-family="sans-serif" font-size="13" lengthAdjust="spacingAndGlyphs" textLength="103" x="98" y="598.336">H: access_token</text><text font-family="sans-serif" font-size="13" lengthAdjust="spacingAndGlyphs" textLength="106" x="98" y="613.646">H: X-Request-ID</text><text font-family="sans-serif" font-size="13" lengthAdjust="spacingAndGlyphs" textLength="63" x="98" y="628.957">H: X-BicFi</text><path fill="#A80036" stroke="#a80036" d="M95.5 667.7l-10 4 10 4-4-4z"/><path stroke="#a80036" stroke-dasharray="2,2" d="M89.5 671.699h565"/><path fill="#FBFB77" stroke="#a80036" d="M458 684.699h192v23H458z"/><text font-family="sans-serif" font-size="13" lengthAdjust="spacingAndGlyphs" textLength="184" x="462" y="701.268">consentInformationResponse</text><path fill="#A80036" stroke="#a80036" d="M638.5 770.63l10 4-10 4 4-4z"/><path stroke="#a80036" d="M89.5 774.631h555"/><text font-family="sans-serif" font-size="13" font-weight="bold" lengthAdjust="spacingAndGlyphs" textLength="127" x="96.5" y="754.578">Get Consent Status</text><text font-family="sans-serif" font-size="13" lengthAdjust="spacingAndGlyphs" textLength="332" x="96.5" y="769.889">GET /psd2/consent/v1/consents/{consentId}/status</text><path fill="#FBFB77" stroke="#a80036" d="M94 787.631h114v69H94z"/><text font-family="sans-serif" font-size="13" lengthAdjust="spacingAndGlyphs" textLength="77" x="98" y="804.199">P: consentId</text><text font-family="sans-serif" font-size="13" lengthAdjust="spacingAndGlyphs" textLength="103" x="98" y="819.51">H: access_token</text><text font-family="sans-serif" font-size="13" lengthAdjust="spacingAndGlyphs" textLength="106" x="98" y="834.82">H: X-Request-ID</text><text font-family="sans-serif" font-size="13" lengthAdjust="spacingAndGlyphs" textLength="63" x="98" y="850.131">H: X-BicFi</text><path fill="#A80036" stroke="#a80036" d="M95.5 888.873l-10 4 10 4-4-4z"/><path stroke="#a80036" stroke-dasharray="2,2" d="M89.5 892.873h565"/><path fill="#FBFB77" stroke="#a80036" d="M493 905.873h157v23H493z"/><text font-family="sans-serif" font-size="13" lengthAdjust="spacingAndGlyphs" textLength="149" x="497" y="922.441">consentStatusResponse</text><path fill="#A80036" stroke="#a80036" d="M638.5 991.805l10 4-10 4 4-4z"/><path stroke="#a80036" d="M89.5 995.805h555"/><text font-family="sans-serif" font-size="13" font-weight="bold" lengthAdjust="spacingAndGlyphs" textLength="299" x="96.5" y="975.752">Start the authorisation process for a consent</text><text font-family="sans-serif" font-size="13" lengthAdjust="spacingAndGlyphs" textLength="392" x="96.5" y="991.063">POST /psd2/consent/v1/consents/{consentId}/authorisations</text><path fill="#FBFB77" stroke="#a80036" d="M94 1008.805h114v69H94z"/><text font-family="sans-serif" font-size="13" lengthAdjust="spacingAndGlyphs" textLength="77" x="98" y="1025.373">P: consentId</text><text font-family="sans-serif" font-size="13" lengthAdjust="spacingAndGlyphs" textLength="103" x="98" y="1040.684">H: access_token</text><text font-family="sans-serif" font-size="13" lengthAdjust="spacingAndGlyphs" textLength="106" x="98" y="1055.994">H: X-Request-ID</text><text font-family="sans-serif" font-size="13" lengthAdjust="spacingAndGlyphs" textLength="63" x="98" y="1071.305">H: X-BicFi</text><path fill="#A80036" stroke="#a80036" d="M95.5 1110.047l-10 4 10 4-4-4z"/><path stroke="#a80036" stroke-dasharray="2,2" d="M89.5 1114.047h565"/><path fill="#FBFB77" stroke="#a80036" d="M483 1127.047h167v23H483z"/><text font-family="sans-serif" font-size="13" lengthAdjust="spacingAndGlyphs" textLength="159" x="487" y="1143.615">startScaprocessResponse</text><path fill="#A80036" stroke="#a80036" d="M638.5 1212.978l10 4-10 4 4-4z"/><path stroke="#a80036" d="M89.5 1216.978h555"/><text font-family="sans-serif" font-size="13" font-weight="bold" lengthAdjust="spacingAndGlyphs" textLength="343" x="96.5" y="1196.926">Get Consent Authorisation Sub-Resources Request</text><text font-family="sans-serif" font-size="13" lengthAdjust="spacingAndGlyphs" textLength="384" x="96.5" y="1212.236">GET /psd2/consent/v1/consents/{consentId}/authorisations</text><path fill="#FBFB77" stroke="#a80036" d="M94 1229.978h114v69H94z"/><text font-family="sans-serif" font-size="13" lengthAdjust="spacingAndGlyphs" textLength="77" x="98" y="1246.547">P: consentId</text><text font-family="sans-serif" font-size="13" lengthAdjust="spacingAndGlyphs" textLength="103" x="98" y="1261.857">H: access_token</text><text font-family="sans-serif" font-size="13" lengthAdjust="spacingAndGlyphs" textLength="106" x="98" y="1277.168">H: X-Request-ID</text><text font-family="sans-serif" font-size="13" lengthAdjust="spacingAndGlyphs" textLength="63" x="98" y="1292.478">H: X-BicFi</text><path fill="#A80036" stroke="#a80036" d="M95.5 1331.22l-10 4 10 4-4-4z"/><path stroke="#a80036" stroke-dasharray="2,2" d="M89.5 1335.221h565"/><path fill="#FBFB77" stroke="#a80036" d="M551 1348.221h99v23h-99z"/><text font-family="sans-serif" font-size="13" lengthAdjust="spacingAndGlyphs" textLength="91" x="555" y="1364.789">authorisations</text><path fill="#A80036" stroke="#a80036" d="M638.5 1434.152l10 4-10 4 4-4z"/><path stroke="#a80036" d="M89.5 1438.152h555"/><text font-family="sans-serif" font-size="13" font-weight="bold" lengthAdjust="spacingAndGlyphs" textLength="329" x="96.5" y="1418.1">Read the SCA status of the consent authorisation</text><text font-family="sans-serif" font-size="13" lengthAdjust="spacingAndGlyphs" textLength="547" x="96.5" y="1433.41">GET /psd2/consent/v1/consents/{consentId}/authorisations/{consentAuthorisationId}</text><path fill="#FBFB77" stroke="#a80036" d="M94 1451.152h171v84H94z"/><text font-family="sans-serif" font-size="13" lengthAdjust="spacingAndGlyphs" textLength="77" x="98" y="1467.721">P: consentId</text><text font-family="sans-serif" font-size="13" lengthAdjust="spacingAndGlyphs" textLength="163" x="98" y="1483.031">P: consentAuthorisationId</text><text font-family="sans-serif" font-size="13" lengthAdjust="spacingAndGlyphs" textLength="103" x="98" y="1498.342">H: access_token</text><text font-family="sans-serif" font-size="13" lengthAdjust="spacingAndGlyphs" textLength="106" x="98" y="1513.652">H: X-Request-ID</text><text font-family="sans-serif" font-size="13" lengthAdjust="spacingAndGlyphs" textLength="63" x="98" y="1528.963">H: X-BicFi</text><path fill="#A80036" stroke="#a80036" d="M95.5 1567.705l-10 4 10 4-4-4z"/><path stroke="#a80036" stroke-dasharray="2,2" d="M89.5 1571.705h565"/><path fill="#FBFB77" stroke="#a80036" d="M522 1584.705h128v23H522z"/><text font-family="sans-serif" font-size="13" lengthAdjust="spacingAndGlyphs" textLength="120" x="526" y="1601.273">scaStatusResponse</text><path fill="#A80036" stroke="#a80036" d="M638.5 1670.637l10 4-10 4 4-4z"/><path stroke="#a80036" d="M89.5 1674.637h555"/><text font-family="sans-serif" font-size="13" font-weight="bold" lengthAdjust="spacingAndGlyphs" textLength="200" x="96.5" y="1654.584">Update PSU Data for consents</text><text font-family="sans-serif" font-size="13" lengthAdjust="spacingAndGlyphs" textLength="547" x="96.5" y="1669.895">PUT /psd2/consent/v1/consents/{consentId}/authorisations/{consentAuthorisationId}</text><path fill="#FBFB77" stroke="#a80036" d="M94 1687.637h173v99H94z"/><text font-family="sans-serif" font-size="13" lengthAdjust="spacingAndGlyphs" textLength="77" x="98" y="1704.205">P: consentId</text><text font-family="sans-serif" font-size="13" lengthAdjust="spacingAndGlyphs" textLength="163" x="98" y="1719.516">P: consentAuthorisationId</text><text font-family="sans-serif" font-size="13" lengthAdjust="spacingAndGlyphs" textLength="103" x="98" y="1734.826">H: access_token</text><text font-family="sans-serif" font-size="13" lengthAdjust="spacingAndGlyphs" textLength="106" x="98" y="1750.137">H: X-Request-ID</text><text font-family="sans-serif" font-size="13" lengthAdjust="spacingAndGlyphs" textLength="63" x="98" y="1765.447">H: X-BicFi</text><text font-family="sans-serif" font-size="13" lengthAdjust="spacingAndGlyphs" textLength="165" x="98" y="1780.758">B: authenticationMethodId</text><path fill="#A80036" stroke="#a80036" d="M100.5 1819.5l-10 4 10 4-4-4z"/><path stroke="#a80036" stroke-dasharray="2,2" d="M94.5 1823.5h560"/><path fill="#FBFB77" stroke="#a80036" d="M486 1836.5h164v38H486z"/><text font-family="sans-serif" font-size="13" lengthAdjust="spacingAndGlyphs" textLength="156" x="490" y="1853.068">H: ASPSP-SCA-Approach</text><text font-family="sans-serif" font-size="13" lengthAdjust="spacingAndGlyphs" textLength="53" x="490" y="1868.379">B: _links</text><path d="M13 1887.121h62v7l-10 10H13v-17" fill="#EEE" stroke="#000"/><path fill="none" stroke="#000" stroke-width="2" d="M13 1887.121h986.5v1591.922H13z"/><text font-family="sans-serif" font-size="13" font-weight="bold" lengthAdjust="spacingAndGlyphs" textLength="17" x="28" y="1900.689">alt</text><text font-family="sans-serif" font-size="11" font-weight="bold" lengthAdjust="spacingAndGlyphs" textLength="61" x="90" y="1899.756">[scaOAuth]</text><path stroke="#a80036" d="M89.5 1925.742h42m0 0v13m-41 0h41"/><path fill="#A80036" stroke="#a80036" d="M100.5 1934.742l-10 4 10 4-4-4z"/><text font-family="sans-serif" font-size="13" font-weight="bold" lengthAdjust="spacingAndGlyphs" textLength="175" x="96.5" y="1921">Process authlink template</text><path fill="#A80036" stroke="#a80036" d="M820.5 1979.363l10 4-10 4 4-4z"/><path stroke="#a80036" d="M89.5 1983.363h737"/><text font-family="sans-serif" font-size="13" font-weight="bold" lengthAdjust="spacingAndGlyphs" textLength="85" x="96.5" y="1963.311">Call authlink</text><text font-family="sans-serif" font-size="13" lengthAdjust="spacingAndGlyphs" textLength="151" x="96.5" y="1978.621">GET /connect/authorize</text><path fill="#FBFB77" stroke="#a80036" d="M94 1996.363h117v99H94z"/><text font-family="sans-serif" font-size="13" lengthAdjust="spacingAndGlyphs" textLength="72" x="98" y="2012.932">Q: client_id</text><text font-family="sans-serif" font-size="13" lengthAdjust="spacingAndGlyphs" textLength="55" x="98" y="2028.242">Q: scope</text><text font-family="sans-serif" font-size="13" lengthAdjust="spacingAndGlyphs" textLength="109" x="98" y="2043.553">Q: response_type</text><text font-family="sans-serif" font-size="13" lengthAdjust="spacingAndGlyphs" textLength="90" x="98" y="2058.863">Q: redirect_uri</text><text font-family="sans-serif" font-size="13" lengthAdjust="spacingAndGlyphs" textLength="49" x="98" y="2074.174">Q: state</text><text font-family="sans-serif" font-size="13" lengthAdjust="spacingAndGlyphs" textLength="84" x="98" y="2089.484">Q: acr_values</text><path fill="#A80036" stroke="#a80036" d="M100.5 2118.537l-10 4 10 4-4-4z"/><path stroke="#a80036" stroke-dasharray="2,2" d="M94.5 2122.537h742"/><text font-family="sans-serif" font-size="13" font-weight="bold" lengthAdjust="spacingAndGlyphs" textLength="117" x="106.5" y="2117.795">Redirect to ASPSP</text><path fill="#A80036" stroke="#a80036" d="M944.5 2147.848l10 4-10 4 4-4z"/><path stroke="#a80036" d="M89.5 2151.848h861"/><text font-family="sans-serif" font-size="13" font-weight="bold" lengthAdjust="spacingAndGlyphs" textLength="159" x="96.5" y="2147.106">Follow authlink redirect</text><path fill="#A80036" stroke="#a80036" d="M944.5 2177.158l10 4-10 4 4-4z"/><path stroke="#a80036" d="M44 2181.158h906.5"/><text font-family="sans-serif" font-size="13" font-weight="bold" lengthAdjust="spacingAndGlyphs" textLength="162" x="51" y="2176.416">Start PSU authentication</text><path fill="#A80036" stroke="#a80036" d="M50 2234.469l-10 4 10 4-4-4z"/><path stroke="#a80036" d="M44 2238.469h911.5"/><text font-family="sans-serif" font-size="13" font-weight="bold" lengthAdjust="spacingAndGlyphs" textLength="157" x="56" y="2233.727">End PSU authentication</text><path fill="#A80036" stroke="#a80036" d="M853.5 2263.78l-10 4 10 4-4-4z"/><path stroke="#a80036" d="M847.5 2267.779h113"/><text font-family="sans-serif" font-size="13" font-weight="bold" lengthAdjust="spacingAndGlyphs" textLength="76" x="859.5" y="2263.037">Auth result</text><path fill="#A80036" stroke="#a80036" d="M100.5 2308.4l-10 4 10 4-4-4z"/><path stroke="#a80036" d="M94.5 2312.4h742"/><text font-family="sans-serif" font-size="13" font-weight="bold" lengthAdjust="spacingAndGlyphs" textLength="86" x="106.5" y="2292.348">TPP Callback</text><text font-family="sans-serif" font-size="13" lengthAdjust="spacingAndGlyphs" textLength="138" x="106.5" y="2307.658">GET [TPP Redirect URI]</text><path fill="#FBFB77" stroke="#a80036" d="M769 2325.4h63v53h-63z"/><text font-family="sans-serif" font-size="13" lengthAdjust="spacingAndGlyphs" textLength="48" x="773" y="2341.969">Q: code</text><text font-family="sans-serif" font-size="13" lengthAdjust="spacingAndGlyphs" textLength="55" x="773" y="2357.279">Q: scope</text><text font-family="sans-serif" font-size="13" lengthAdjust="spacingAndGlyphs" textLength="49" x="773" y="2372.59">Q: state</text><path fill="#A80036" stroke="#a80036" d="M820.5 2416.953l10 4-10 4 4-4z"/><path stroke="#a80036" d="M89.5 2420.953h737"/><text font-family="sans-serif" font-size="13" font-weight="bold" lengthAdjust="spacingAndGlyphs" textLength="113" x="96.5" y="2400.9">Get OAuth token</text><text font-family="sans-serif" font-size="13" lengthAdjust="spacingAndGlyphs" textLength="136" x="96.5" y="2416.211">POST /connect/token</text><path fill="#FBFB77" stroke="#a80036" d="M94 2433.953h192v130H94z"/><text font-family="sans-serif" font-size="13" lengthAdjust="spacingAndGlyphs" textLength="98" x="98" y="2450.521">H: X-ConsentId</text><text font-family="sans-serif" font-size="13" lengthAdjust="spacingAndGlyphs" textLength="184" x="98" y="2465.832">H: X-ConsentAuthorisationId</text><text font-family="sans-serif" font-size="13" lengthAdjust="spacingAndGlyphs" textLength="69" x="98" y="2481.143">B: client_id</text><text font-family="sans-serif" font-size="13" lengthAdjust="spacingAndGlyphs" textLength="95" x="98" y="2496.453">B: client_secret</text><text font-family="sans-serif" font-size="13" lengthAdjust="spacingAndGlyphs" textLength="45" x="98" y="2511.764">B: code</text><text font-family="sans-serif" font-size="13" lengthAdjust="spacingAndGlyphs" textLength="87" x="98" y="2527.074">B: redirect_uri</text><text font-family="sans-serif" font-size="13" lengthAdjust="spacingAndGlyphs" textLength="82" x="98" y="2542.385">B: grant_type</text><text font-family="sans-serif" font-size="13" lengthAdjust="spacingAndGlyphs" textLength="52" x="98" y="2557.695">B: scope</text><path fill="#A80036" stroke="#a80036" d="M100.5 2596.438l-10 4 10 4-4-4z"/><path stroke="#a80036" stroke-dasharray="2,2" d="M94.5 2600.438h742"/><path fill="#FBFB77" stroke="#a80036" d="M724 2613.438h108v23H724z"/><text font-family="sans-serif" font-size="13" lengthAdjust="spacingAndGlyphs" textLength="100" x="728" y="2630.006">B: access_token</text><path stroke="#000" stroke-dasharray="2,2" d="M13 2667.748h986.5"/><text font-family="sans-serif" font-size="11" font-weight="bold" lengthAdjust="spacingAndGlyphs" textLength="72" x="18" y="2678.383">[scaRedirect]</text><path stroke="#a80036" d="M89.5 2703.014h42m0 0v13m-41 0h41"/><path fill="#A80036" stroke="#a80036" d="M100.5 2712.014l-10 4 10 4-4-4z"/><text font-family="sans-serif" font-size="13" font-weight="bold" lengthAdjust="spacingAndGlyphs" textLength="175" x="96.5" y="2698.271">Process authlink template</text><path fill="#A80036" stroke="#a80036" d="M820.5 2756.635l10 4-10 4 4-4z"/><path stroke="#a80036" d="M89.5 2760.635h737"/><text font-family="sans-serif" font-size="13" font-weight="bold" lengthAdjust="spacingAndGlyphs" textLength="85" x="96.5" y="2740.582">Call authlink</text><text font-family="sans-serif" font-size="13" lengthAdjust="spacingAndGlyphs" textLength="151" x="96.5" y="2755.893">GET /connect/authorize</text><path fill="#FBFB77" stroke="#a80036" d="M94 2773.635h117v99H94z"/><text font-family="sans-serif" font-size="13" lengthAdjust="spacingAndGlyphs" textLength="72" x="98" y="2790.203">Q: client_id</text><text font-family="sans-serif" font-size="13" lengthAdjust="spacingAndGlyphs" textLength="55" x="98" y="2805.514">Q: scope</text><text font-family="sans-serif" font-size="13" lengthAdjust="spacingAndGlyphs" textLength="109" x="98" y="2820.824">Q: response_type</text><text font-family="sans-serif" font-size="13" lengthAdjust="spacingAndGlyphs" textLength="90" x="98" y="2836.135">Q: redirect_uri</text><text font-family="sans-serif" font-size="13" lengthAdjust="spacingAndGlyphs" textLength="49" x="98" y="2851.445">Q: state</text><text font-family="sans-serif" font-size="13" lengthAdjust="spacingAndGlyphs" textLength="84" x="98" y="2866.756">Q: acr_values</text><path fill="#A80036" stroke="#a80036" d="M100.5 2895.809l-10 4 10 4-4-4z"/><path stroke="#a80036" stroke-dasharray="2,2" d="M94.5 2899.809h742"/><text font-family="sans-serif" font-size="13" font-weight="bold" lengthAdjust="spacingAndGlyphs" textLength="117" x="106.5" y="2895.066">Redirect to ASPSP</text><path fill="#A80036" stroke="#a80036" d="M944.5 2925.12l10 4-10 4 4-4z"/><path stroke="#a80036" d="M89.5 2929.119h861"/><text font-family="sans-serif" font-size="13" font-weight="bold" lengthAdjust="spacingAndGlyphs" textLength="159" x="96.5" y="2924.377">Follow authlink redirect</text><path fill="#A80036" stroke="#a80036" d="M944.5 2954.43l10 4-10 4 4-4z"/><path stroke="#a80036" d="M44 2958.43h906.5"/><text font-family="sans-serif" font-size="13" font-weight="bold" lengthAdjust="spacingAndGlyphs" textLength="162" x="51" y="2953.688">Start PSU authentication</text><path fill="#A80036" stroke="#a80036" d="M50 3011.74l-10 4 10 4-4-4z"/><path stroke="#a80036" d="M44 3015.74h911.5"/><text font-family="sans-serif" font-size="13" font-weight="bold" lengthAdjust="spacingAndGlyphs" textLength="157" x="56" y="3010.998">End PSU authentication</text><path fill="#A80036" stroke="#a80036" d="M853.5 3041.05l-10 4 10 4-4-4z"/><path stroke="#a80036" d="M847.5 3045.051h113"/><text font-family="sans-serif" font-size="13" font-weight="bold" lengthAdjust="spacingAndGlyphs" textLength="76" x="859.5" y="3040.309">Auth result</text><path fill="#A80036" stroke="#a80036" d="M95.5 3085.672l-10 4 10 4-4-4z"/><path stroke="#a80036" d="M89.5 3089.672h747"/><text font-family="sans-serif" font-size="13" font-weight="bold" lengthAdjust="spacingAndGlyphs" textLength="86" x="101.5" y="3069.619">TPP Callback</text><text font-family="sans-serif" font-size="13" lengthAdjust="spacingAndGlyphs" textLength="138" x="101.5" y="3084.93">GET [TPP Redirect URI]</text><path fill="#FBFB77" stroke="#a80036" d="M769 3102.672h63v38h-63z"/><text font-family="sans-serif" font-size="13" lengthAdjust="spacingAndGlyphs" textLength="55" x="773" y="3119.24">Q: scope</text><text font-family="sans-serif" font-size="13" lengthAdjust="spacingAndGlyphs" textLength="49" x="773" y="3134.551">Q: state</text><path stroke="#000" stroke-dasharray="2,2" d="M13 3172.293h986.5"/><text font-family="sans-serif" font-size="11" font-weight="bold" lengthAdjust="spacingAndGlyphs" textLength="65" x="18" y="3182.928">[decoupled]</text><path d="M55 3193.248h74v7l-10 10H55v-17" fill="#EEE" stroke="#000"/><path fill="none" stroke="#000" stroke-width="2" d="M55 3193.248h696.5v253.795H55z"/><text font-family="sans-serif" font-size="13" font-weight="bold" lengthAdjust="spacingAndGlyphs" textLength="29" x="70" y="3206.816">loop</text><text font-family="sans-serif" font-size="11" font-weight="bold" lengthAdjust="spacingAndGlyphs" textLength="129" x="144" y="3205.883">[until final auth status]</text><path fill="#A80036" stroke="#a80036" d="M638.5 3268.18l10 4-10 4 4-4z"/><path stroke="#a80036" d="M89.5 3272.18h555"/><text font-family="sans-serif" font-size="13" font-weight="bold" lengthAdjust="spacingAndGlyphs" textLength="329" x="96.5" y="3252.127">Read the SCA status of the consent authorisation</text><text font-family="sans-serif" font-size="13" lengthAdjust="spacingAndGlyphs" textLength="547" x="96.5" y="3267.438">GET /psd2/consent/v1/consents/{consentId}/authorisations/{consentAuthorisationId}</text><path fill="#FBFB77" stroke="#a80036" d="M94 3285.18h171v84H94z"/><text font-family="sans-serif" font-size="13" lengthAdjust="spacingAndGlyphs" textLength="77" x="98" y="3301.748">P: consentId</text><text font-family="sans-serif" font-size="13" lengthAdjust="spacingAndGlyphs" textLength="163" x="98" y="3317.059">P: consentAuthorisationId</text><text font-family="sans-serif" font-size="13" lengthAdjust="spacingAndGlyphs" textLength="103" x="98" y="3332.369">H: access_token</text><text font-family="sans-serif" font-size="13" lengthAdjust="spacingAndGlyphs" textLength="106" x="98" y="3347.68">H: X-Request-ID</text><text font-family="sans-serif" font-size="13" lengthAdjust="spacingAndGlyphs" textLength="63" x="98" y="3362.99">H: X-BicFi</text><path fill="#A80036" stroke="#a80036" d="M95.5 3401.732l-10 4 10 4-4-4z"/><path stroke="#a80036" stroke-dasharray="2,2" d="M89.5 3405.732h565"/><path fill="#FBFB77" stroke="#a80036" d="M522 3418.732h128v23H522z"/><text font-family="sans-serif" font-size="13" lengthAdjust="spacingAndGlyphs" textLength="120" x="526" y="3435.301">scaStatusResponse</text><path fill="#A80036" stroke="#a80036" d="M638.5 3543.664l10 4-10 4 4-4z"/><path stroke="#a80036" d="M89.5 3547.664h555"/><text font-family="sans-serif" font-size="13" font-weight="bold" lengthAdjust="spacingAndGlyphs" textLength="102" x="96.5" y="3527.611">Delete Consent</text><text font-family="sans-serif" font-size="13" lengthAdjust="spacingAndGlyphs" textLength="286" x="96.5" y="3542.922">GET /psd2/consent/v1/consents/{consentId}</text><path fill="#FBFB77" stroke="#a80036" d="M94 3560.664h114v69H94z"/><text font-family="sans-serif" font-size="13" lengthAdjust="spacingAndGlyphs" textLength="77" x="98" y="3577.232">P: consentId</text><text font-family="sans-serif" font-size="13" lengthAdjust="spacingAndGlyphs" textLength="103" x="98" y="3592.543">H: access_token</text><text font-family="sans-serif" font-size="13" lengthAdjust="spacingAndGlyphs" textLength="106" x="98" y="3607.854">H: X-Request-ID</text><text font-family="sans-serif" font-size="13" lengthAdjust="spacingAndGlyphs" textLength="63" x="98" y="3623.164">H: X-BicFi</text><path fill="#A80036" stroke="#a80036" d="M95.5 3661.906l-10 4 10 4-4-4z"/><path stroke="#a80036" stroke-dasharray="2,2" d="M89.5 3665.906h565"/></svg>