<svg xmlns="http://www.w3.org/2000/svg" height="4251" preserveAspectRatio="none" style="width:1016px;height:4251px" viewBox="0 0 1016 4251" width="1016"><text font-family="sans-serif" font-size="14" font-weight="bold" lengthAdjust="spacingAndGlyphs" textLength="114" x="451.75" y="23.535">Consent Service</text><path fill="#FFF" stroke="#fff" d="M34 2520.547h10v8H34z"/><path stroke="#a80036" d="M34 2520.547v8m10-8v8m-10-8h10"/><path fill="#FFF" stroke="#fff" d="M34 2556.547h10v21.311H34z"/><path stroke="#a80036" d="M34 2556.547v21.31m10-21.31v21.31m-10 0h10"/><path fill="#FFF" stroke="#fff" d="M34 3359.061h10v8H34z"/><path stroke="#a80036" d="M34 3359.061v8m10-8v8m-10-8h10"/><path fill="#FFF" stroke="#fff" d="M34 3395.061h10v21.311H34z"/><path stroke="#a80036" d="M34 3395.061v21.31m10-21.31v21.31m-10 0h10"/><path fill="#FFF" stroke="#a80036" d="M79.5 159.598h10V277.84h-10zm0 282.416h10v118.242h-10zm0 251.795h10v118.242h-10zm0 251.795h10v118.242h-10zm0 251.794h10v118.242h-10zm0 267.106h10v118.242h-10zm0 251.795h10v133.553h-10z"/><path fill="#FFF" stroke="#fff" d="M79.5 1983.404h10v545.143h-10z"/><path stroke="#a80036" d="M79.5 1983.404v545.143m10-545.143v545.143m-10-545.143h10"/><path fill="#FFF" stroke="#fff" d="M79.5 2556.547h10v810.514h-10z"/><path stroke="#a80036" d="M79.5 2556.547v810.514m10-810.514v810.514"/><path fill="#FFF" stroke="#fff" d="M79.5 3395.061h10v95.242h-10z"/><path stroke="#a80036" d="M79.5 3395.061v95.242m10-95.242v95.242m-10 0h10"/><path fill="#FFF" stroke="#a80036" d="M79.5 3672.811h10v133.553h-10zm0 306.105h10v118.242h-10zm576-3536.902h10v118.242h-10zm0 251.795h10v118.242h-10zm0 251.795h10v118.242h-10zm0 251.794h10v118.242h-10zm0 267.106h10v118.242h-10zm0 251.795h10v133.553h-10zm0 267.105h10v148.863h-10zm0 1689.407h10v133.553h-10zm0 306.105h10v118.242h-10zm182-3819.318h10V277.84h-10zm0 2163.154h10v139.174h-10zm0 284.416h10v44.621h-10zm0 153.174h10v179.484h-10zm0 400.924h10v139.174h-10zm0 284.416h10v44.621h-10z"/><path fill="#FFF" stroke="#fff" d="M961.5 2491.236h10v37.31h-10z"/><path stroke="#a80036" d="M961.5 2491.236v37.311m10-37.311v37.311m-10-37.311h10"/><path fill="#FFF" stroke="#fff" d="M961.5 2556.547h10v50.621h-10z"/><path stroke="#a80036" d="M961.5 2556.547v50.621m10-50.621v50.621m-10 0h10"/><path fill="#FFF" stroke="#fff" d="M961.5 3329.75h10v37.31h-10z"/><path stroke="#a80036" d="M961.5 3329.75v37.311m10-37.311v37.311m-10-37.311h10"/><path fill="#FFF" stroke="#fff" d="M961.5 3395.061h10v50.621h-10z"/><path stroke="#a80036" d="M961.5 3395.061v50.621m10-50.621v50.621m-10 0h10"/><path fill="#FFF" stroke="#000" stroke-width="2" d="M13 2226.51h991.5v1683.785H13z"/><path fill="#FFF" d="M13 3067.379h991.5v504.545H13zm0 504.545h991.5v338.371H13z"/><path fill="#FFF" stroke="#000" stroke-width="2" d="M55 3593.879h701.5v284.416H55z"/><path stroke="#a80036" d="M39 112.977v2415.57"/><path stroke="#a80036" stroke-dasharray="1,4" d="M39 2528.547v28"/><path stroke="#a80036" d="M39 2556.547v810.514"/><path stroke="#a80036" stroke-dasharray="1,4" d="M39 3367.061v28"/><path stroke="#a80036" d="M39 3395.061v768.718M84 112.977v2415.57"/><path stroke="#a80036" stroke-dasharray="1,4" d="M84 2528.547v28"/><path stroke="#a80036" d="M84 2556.547v810.514"/><path stroke="#a80036" stroke-dasharray="1,4" d="M84 3367.061v28"/><path stroke="#a80036" d="M84 3395.061v768.718M660.5 112.977v2415.57"/><path stroke="#a80036" stroke-dasharray="1,4" d="M660.5 2528.547v28"/><path stroke="#a80036" d="M660.5 2556.547v810.514"/><path stroke="#a80036" stroke-dasharray="1,4" d="M660.5 3367.061v28"/><path stroke="#a80036" d="M660.5 3395.061v768.718m182-4050.802v2415.57"/><path stroke="#a80036" stroke-dasharray="1,4" d="M842.5 2528.547v28"/><path stroke="#a80036" d="M842.5 2556.547v810.514"/><path stroke="#a80036" stroke-dasharray="1,4" d="M842.5 3367.061v28"/><path stroke="#a80036" d="M842.5 3395.061v768.718m124-4050.802v2415.57"/><path stroke="#a80036" stroke-dasharray="1,4" d="M966.5 2528.547v28"/><path stroke="#a80036" d="M966.5 2556.547v810.514"/><path stroke="#a80036" stroke-dasharray="1,4" d="M966.5 3367.061v28"/><path stroke="#a80036" d="M966.5 3395.061v768.718"/><text font-family="sans-serif" font-size="14" lengthAdjust="spacingAndGlyphs" textLength="26" x="23" y="110.023">PSU</text><circle cx="39" cy="43.488" fill="#FEFECE" stroke="#a80036" stroke-width="2" r="8"/><path d="M39 51.488v27m-13-19h26m-13 19l-13 15m13-15l13 15" fill="none" stroke="#a80036" stroke-width="2"/><text font-family="sans-serif" font-size="14" lengthAdjust="spacingAndGlyphs" textLength="26" x="23" y="4176.315">PSU</text><circle cx="39" cy="4189.268" fill="#FEFECE" stroke="#a80036" stroke-width="2" r="8"/><path d="M39 4197.268v27m-13-19h26m-13 19l-13 15m13-15l13 15" fill="none" stroke="#a80036" stroke-width="2"/><path fill="#FEFECE" stroke="#a80036" stroke-width="1.5" d="M65 81.488h39v30.488H65z"/><text font-family="sans-serif" font-size="14" lengthAdjust="spacingAndGlyphs" textLength="25" x="72" y="102.023">TPP</text><path fill="#FEFECE" stroke="#a80036" stroke-width="1.5" d="M65 4162.779h39v30.488H65z"/><text font-family="sans-serif" font-size="14" lengthAdjust="spacingAndGlyphs" textLength="25" x="72" y="4183.315">TPP</text><path fill="#FEFECE" stroke="#a80036" stroke-width="1.5" d="M574.5 65h172v46.977h-172z"/><text font-family="sans-serif" font-size="14" lengthAdjust="spacingAndGlyphs" textLength="158" x="581.5" y="85.535">Open Banking Platform</text><text font-family="sans-serif" font-size="14" lengthAdjust="spacingAndGlyphs" textLength="22" x="649.5" y="102.023">API</text><path fill="#FEFECE" stroke="#a80036" stroke-width="1.5" d="M574.5 4162.779h172v46.977h-172z"/><text font-family="sans-serif" font-size="14" lengthAdjust="spacingAndGlyphs" textLength="158" x="581.5" y="4183.315">Open Banking Platform</text><text font-family="sans-serif" font-size="14" lengthAdjust="spacingAndGlyphs" textLength="22" x="649.5" y="4199.803">API</text><path fill="#FEFECE" stroke="#a80036" stroke-width="1.5" d="M756.5 65h172v46.977h-172z"/><text font-family="sans-serif" font-size="14" lengthAdjust="spacingAndGlyphs" textLength="158" x="763.5" y="85.535">Open Banking Platform</text><text font-family="sans-serif" font-size="14" lengthAdjust="spacingAndGlyphs" textLength="33" x="826" y="102.023">Auth</text><path fill="#FEFECE" stroke="#a80036" stroke-width="1.5" d="M756.5 4162.779h172v46.977h-172z"/><text font-family="sans-serif" font-size="14" lengthAdjust="spacingAndGlyphs" textLength="158" x="763.5" y="4183.315">Open Banking Platform</text><text font-family="sans-serif" font-size="14" lengthAdjust="spacingAndGlyphs" textLength="33" x="826" y="4199.803">Auth</text><path fill="#FEFECE" stroke="#a80036" stroke-width="1.5" d="M938.5 81.488h56v30.488h-56z"/><text font-family="sans-serif" font-size="14" lengthAdjust="spacingAndGlyphs" textLength="42" x="945.5" y="102.023">ASPSP</text><path fill="#FEFECE" stroke="#a80036" stroke-width="1.5" d="M938.5 4162.779h56v30.488h-56z"/><text font-family="sans-serif" font-size="14" lengthAdjust="spacingAndGlyphs" textLength="42" x="945.5" y="4183.315">ASPSP</text><path fill="#FFF" stroke="#fff" d="M34 2520.547h10v8H34z"/><path stroke="#a80036" d="M34 2520.547v8m10-8v8m-10-8h10"/><path fill="#FFF" stroke="#fff" d="M34 2556.547h10v21.311H34z"/><path stroke="#a80036" d="M34 2556.547v21.31m10-21.31v21.31m-10 0h10"/><path fill="#FFF" stroke="#fff" d="M34 3359.061h10v8H34z"/><path stroke="#a80036" d="M34 3359.061v8m10-8v8m-10-8h10"/><path fill="#FFF" stroke="#fff" d="M34 3395.061h10v21.311H34z"/><path stroke="#a80036" d="M34 3395.061v21.31m10-21.31v21.31m-10 0h10"/><path fill="#FFF" stroke="#a80036" d="M79.5 159.598h10V277.84h-10zm0 282.416h10v118.242h-10zm0 251.795h10v118.242h-10zm0 251.795h10v118.242h-10zm0 251.794h10v118.242h-10zm0 267.106h10v118.242h-10zm0 251.795h10v133.553h-10z"/><path fill="#FFF" stroke="#fff" d="M79.5 1983.404h10v545.143h-10z"/><path stroke="#a80036" d="M79.5 1983.404v545.143m10-545.143v545.143m-10-545.143h10"/><path fill="#FFF" stroke="#fff" d="M79.5 2556.547h10v810.514h-10z"/><path stroke="#a80036" d="M79.5 2556.547v810.514m10-810.514v810.514"/><path fill="#FFF" stroke="#fff" d="M79.5 3395.061h10v95.242h-10z"/><path stroke="#a80036" d="M79.5 3395.061v95.242m10-95.242v95.242m-10 0h10"/><path fill="#FFF" stroke="#a80036" d="M79.5 3672.811h10v133.553h-10zm0 306.105h10v118.242h-10zm576-3536.902h10v118.242h-10zm0 251.795h10v118.242h-10zm0 251.795h10v118.242h-10zm0 251.794h10v118.242h-10zm0 267.106h10v118.242h-10zm0 251.795h10v133.553h-10zm0 267.105h10v148.863h-10zm0 1689.407h10v133.553h-10zm0 306.105h10v118.242h-10zm182-3819.318h10V277.84h-10zm0 2163.154h10v139.174h-10zm0 284.416h10v44.621h-10zm0 153.174h10v179.484h-10zm0 400.924h10v139.174h-10zm0 284.416h10v44.621h-10z"/><path fill="#FFF" stroke="#fff" d="M961.5 2491.236h10v37.31h-10z"/><path stroke="#a80036" d="M961.5 2491.236v37.311m10-37.311v37.311m-10-37.311h10"/><path fill="#FFF" stroke="#fff" d="M961.5 2556.547h10v50.621h-10z"/><path stroke="#a80036" d="M961.5 2556.547v50.621m10-50.621v50.621m-10 0h10"/><path fill="#FFF" stroke="#fff" d="M961.5 3329.75h10v37.31h-10z"/><path stroke="#a80036" d="M961.5 3329.75v37.311m10-37.311v37.311m-10-37.311h10"/><path fill="#FFF" stroke="#fff" d="M961.5 3395.061h10v50.621h-10z"/><path stroke="#a80036" d="M961.5 3395.061v50.621m10-50.621v50.621m-10 0h10"/><path fill="#A80036" stroke="#a80036" d="M825.5 155.598l10 4-10 4 4-4z"/><path stroke="#a80036" d="M89.5 159.598h742"/><text font-family="sans-serif" font-size="13" font-weight="bold" lengthAdjust="spacingAndGlyphs" textLength="69" x="96.5" y="139.545">Get Token</text><text font-family="sans-serif" font-size="13" lengthAdjust="spacingAndGlyphs" textLength="136" x="96.5" y="154.856">POST /connect/token</text><path fill="#FBFB77" stroke="#a80036" d="M94 172.598h103v69H94z"/><text font-family="sans-serif" font-size="13" lengthAdjust="spacingAndGlyphs" textLength="69" x="98" y="189.166">B: client_id</text><text font-family="sans-serif" font-size="13" lengthAdjust="spacingAndGlyphs" textLength="95" x="98" y="204.477">B: client_secret</text><text font-family="sans-serif" font-size="13" lengthAdjust="spacingAndGlyphs" textLength="82" x="98" y="219.787">B: grant_type</text><text font-family="sans-serif" font-size="13" lengthAdjust="spacingAndGlyphs" textLength="52" x="98" y="235.098">B: scope</text><path fill="#A80036" stroke="#a80036" d="M95.5 273.84l-10 4 10 4-4-4z"/><path stroke="#a80036" stroke-dasharray="2,2" d="M89.5 277.84h752"/><path fill="#FBFB77" stroke="#a80036" d="M729 290.84h108v84H729z"/><text font-family="sans-serif" font-size="13" lengthAdjust="spacingAndGlyphs" textLength="61" x="733" y="307.408">HTTP 200</text><text font-family="sans-serif" font-size="13" lengthAdjust="spacingAndGlyphs" textLength="100" x="733" y="322.719">B: access_token</text><text font-family="sans-serif" font-size="13" lengthAdjust="spacingAndGlyphs" textLength="80" x="733" y="338.029">B: expires_in</text><text font-family="sans-serif" font-size="13" lengthAdjust="spacingAndGlyphs" textLength="85" x="733" y="353.34">B: token_type</text><text font-family="sans-serif" font-size="13" lengthAdjust="spacingAndGlyphs" textLength="52" x="733" y="368.65">B: scope</text><path fill="#A80036" stroke="#a80036" d="M643.5 438.014l10 4-10 4 4-4z"/><path stroke="#a80036" d="M89.5 442.014h560"/><text font-family="sans-serif" font-size="13" font-weight="bold" lengthAdjust="spacingAndGlyphs" textLength="103" x="96.5" y="421.961">Create Consent</text><text font-family="sans-serif" font-size="13" lengthAdjust="spacingAndGlyphs" textLength="217" x="96.5" y="437.272">POST /psd2/consent/v1/consents</text><path fill="#FBFB77" stroke="#a80036" d="M94 455.014h114v69H94z"/><text font-family="sans-serif" font-size="13" lengthAdjust="spacingAndGlyphs" textLength="104" x="98" y="471.582">H: Authorization</text><text font-family="sans-serif" font-size="13" lengthAdjust="spacingAndGlyphs" textLength="106" x="98" y="486.893">H: X-Request-ID</text><text font-family="sans-serif" font-size="13" lengthAdjust="spacingAndGlyphs" textLength="63" x="98" y="502.203">H: X-BicFi</text><text font-family="sans-serif" font-size="13" lengthAdjust="spacingAndGlyphs" textLength="72" x="98" y="517.514">B: consents</text><path fill="#A80036" stroke="#a80036" d="M95.5 556.256l-10 4 10 4-4-4z"/><path stroke="#a80036" stroke-dasharray="2,2" d="M89.5 560.256h570"/><path fill="#FBFB77" stroke="#a80036" d="M483 573.256h172v53H483z"/><text font-family="sans-serif" font-size="13" lengthAdjust="spacingAndGlyphs" textLength="61" x="487" y="589.824">HTTP 201</text><text font-family="sans-serif" font-size="13" lengthAdjust="spacingAndGlyphs" textLength="106" x="487" y="605.135">H: X-Request-ID</text><text font-family="sans-serif" font-size="13" lengthAdjust="spacingAndGlyphs" textLength="164" x="487" y="620.445">B: consentsResponse-201</text><path fill="#A80036" stroke="#a80036" d="M643.5 689.809l10 4-10 4 4-4z"/><path stroke="#a80036" d="M89.5 693.809h560"/><text font-family="sans-serif" font-size="13" font-weight="bold" lengthAdjust="spacingAndGlyphs" textLength="82" x="96.5" y="673.756">Get Consent</text><text font-family="sans-serif" font-size="13" lengthAdjust="spacingAndGlyphs" textLength="286" x="96.5" y="689.066">GET /psd2/consent/v1/consents/{consentId}</text><path fill="#FBFB77" stroke="#a80036" d="M94 706.809h114v69H94z"/><text font-family="sans-serif" font-size="13" lengthAdjust="spacingAndGlyphs" textLength="77" x="98" y="723.377">P: consentId</text><text font-family="sans-serif" font-size="13" lengthAdjust="spacingAndGlyphs" textLength="104" x="98" y="738.688">H: Authorization</text><text font-family="sans-serif" font-size="13" lengthAdjust="spacingAndGlyphs" textLength="106" x="98" y="753.998">H: X-Request-ID</text><text font-family="sans-serif" font-size="13" lengthAdjust="spacingAndGlyphs" textLength="63" x="98" y="769.309">H: X-BicFi</text><path fill="#A80036" stroke="#a80036" d="M95.5 808.05l-10 4 10 4-4-4z"/><path stroke="#a80036" stroke-dasharray="2,2" d="M89.5 812.051h570"/><path fill="#FBFB77" stroke="#a80036" d="M382 825.051h273v53H382z"/><text font-family="sans-serif" font-size="13" lengthAdjust="spacingAndGlyphs" textLength="61" x="386" y="841.619">HTTP 200</text><text font-family="sans-serif" font-size="13" lengthAdjust="spacingAndGlyphs" textLength="106" x="386" y="856.93">H: X-Request-ID</text><text font-family="sans-serif" font-size="13" lengthAdjust="spacingAndGlyphs" textLength="265" x="386" y="872.24">B: consentInformationResponse-200_json</text><path fill="#A80036" stroke="#a80036" d="M643.5 941.604l10 4-10 4 4-4z"/><path stroke="#a80036" d="M89.5 945.604h560"/><text font-family="sans-serif" font-size="13" font-weight="bold" lengthAdjust="spacingAndGlyphs" textLength="127" x="96.5" y="925.551">Get Consent Status</text><text font-family="sans-serif" font-size="13" lengthAdjust="spacingAndGlyphs" textLength="332" x="96.5" y="940.861">GET /psd2/consent/v1/consents/{consentId}/status</text><path fill="#FBFB77" stroke="#a80036" d="M94 958.604h114v69H94z"/><text font-family="sans-serif" font-size="13" lengthAdjust="spacingAndGlyphs" textLength="77" x="98" y="975.172">P: consentId</text><text font-family="sans-serif" font-size="13" lengthAdjust="spacingAndGlyphs" textLength="104" x="98" y="990.482">H: Authorization</text><text font-family="sans-serif" font-size="13" lengthAdjust="spacingAndGlyphs" textLength="106" x="98" y="1005.793">H: X-Request-ID</text><text font-family="sans-serif" font-size="13" lengthAdjust="spacingAndGlyphs" textLength="63" x="98" y="1021.104">H: X-BicFi</text><path fill="#A80036" stroke="#a80036" d="M95.5 1059.846l-10 4 10 4-4-4z"/><path stroke="#a80036" stroke-dasharray="2,2" d="M89.5 1063.846h570"/><path fill="#FBFB77" stroke="#a80036" d="M451 1076.846h204v53H451z"/><text font-family="sans-serif" font-size="13" lengthAdjust="spacingAndGlyphs" textLength="61" x="455" y="1093.414">HTTP 200</text><text font-family="sans-serif" font-size="13" lengthAdjust="spacingAndGlyphs" textLength="106" x="455" y="1108.725">H: X-Request-ID</text><text font-family="sans-serif" font-size="13" lengthAdjust="spacingAndGlyphs" textLength="196" x="455" y="1124.035">B: consentStatusResponse-200</text><path fill="#A80036" stroke="#a80036" d="M643.5 1193.398l10 4-10 4 4-4z"/><path stroke="#a80036" d="M89.5 1197.398h560"/><text font-family="sans-serif" font-size="13" font-weight="bold" lengthAdjust="spacingAndGlyphs" textLength="241" x="96.5" y="1177.346">Start Consent Authorisation Process</text><text font-family="sans-serif" font-size="13" lengthAdjust="spacingAndGlyphs" textLength="392" x="96.5" y="1192.656">POST /psd2/consent/v1/consents/{consentId}/authorisations</text><path fill="#FBFB77" stroke="#a80036" d="M94 1210.398h114v69H94z"/><text font-family="sans-serif" font-size="13" lengthAdjust="spacingAndGlyphs" textLength="77" x="98" y="1226.967">P: consentId</text><text font-family="sans-serif" font-size="13" lengthAdjust="spacingAndGlyphs" textLength="104" x="98" y="1242.277">H: Authorization</text><text font-family="sans-serif" font-size="13" lengthAdjust="spacingAndGlyphs" textLength="106" x="98" y="1257.588">H: X-Request-ID</text><text font-family="sans-serif" font-size="13" lengthAdjust="spacingAndGlyphs" textLength="63" x="98" y="1272.898">H: X-BicFi</text><path fill="#A80036" stroke="#a80036" d="M95.5 1311.64l-10 4 10 4-4-4z"/><path stroke="#a80036" stroke-dasharray="2,2" d="M89.5 1315.641h570"/><path fill="#FBFB77" stroke="#a80036" d="M473 1328.641h182v69H473z"/><text font-family="sans-serif" font-size="13" lengthAdjust="spacingAndGlyphs" textLength="61" x="477" y="1345.209">HTTP 201</text><text font-family="sans-serif" font-size="13" lengthAdjust="spacingAndGlyphs" textLength="106" x="477" y="1360.52">H: X-Request-ID</text><text font-family="sans-serif" font-size="13" lengthAdjust="spacingAndGlyphs" textLength="156" x="477" y="1375.83">H: ASPSP-SCA-Approach</text><text font-family="sans-serif" font-size="13" lengthAdjust="spacingAndGlyphs" textLength="174" x="477" y="1391.141">B: startScaprocessResponse</text><path fill="#A80036" stroke="#a80036" d="M643.5 1460.504l10 4-10 4 4-4z"/><path stroke="#a80036" d="M89.5 1464.504h560"/><text font-family="sans-serif" font-size="13" font-weight="bold" lengthAdjust="spacingAndGlyphs" textLength="284" x="96.5" y="1444.451">Get Consent Authorisation Sub-Resources</text><text font-family="sans-serif" font-size="13" lengthAdjust="spacingAndGlyphs" textLength="384" x="96.5" y="1459.762">GET /psd2/consent/v1/consents/{consentId}/authorisations</text><path fill="#FBFB77" stroke="#a80036" d="M94 1477.504h114v69H94z"/><text font-family="sans-serif" font-size="13" lengthAdjust="spacingAndGlyphs" textLength="77" x="98" y="1494.072">P: consentId</text><text font-family="sans-serif" font-size="13" lengthAdjust="spacingAndGlyphs" textLength="104" x="98" y="1509.383">H: Authorization</text><text font-family="sans-serif" font-size="13" lengthAdjust="spacingAndGlyphs" textLength="106" x="98" y="1524.693">H: X-Request-ID</text><text font-family="sans-serif" font-size="13" lengthAdjust="spacingAndGlyphs" textLength="63" x="98" y="1540.004">H: X-BicFi</text><path fill="#A80036" stroke="#a80036" d="M95.5 1578.746l-10 4 10 4-4-4z"/><path stroke="#a80036" stroke-dasharray="2,2" d="M89.5 1582.746h570"/><path fill="#FBFB77" stroke="#a80036" d="M541 1595.746h114v53H541z"/><text font-family="sans-serif" font-size="13" lengthAdjust="spacingAndGlyphs" textLength="61" x="545" y="1612.314">HTTP 200</text><text font-family="sans-serif" font-size="13" lengthAdjust="spacingAndGlyphs" textLength="106" x="545" y="1627.625">H: X-Request-ID</text><text font-family="sans-serif" font-size="13" lengthAdjust="spacingAndGlyphs" textLength="106" x="545" y="1642.936">B: authorisations</text><path fill="#A80036" stroke="#a80036" d="M643.5 1712.299l10 4-10 4 4-4z"/><path stroke="#a80036" d="M89.5 1716.299h560"/><text font-family="sans-serif" font-size="13" font-weight="bold" lengthAdjust="spacingAndGlyphs" textLength="253" x="96.5" y="1696.246">Get Consent Authorisation SCA Status</text><text font-family="sans-serif" font-size="13" lengthAdjust="spacingAndGlyphs" textLength="547" x="96.5" y="1711.557">GET /psd2/consent/v1/consents/{consentId}/authorisations/{consentAuthorisationId}</text><path fill="#FBFB77" stroke="#a80036" d="M94 1729.299h171v84H94z"/><text font-family="sans-serif" font-size="13" lengthAdjust="spacingAndGlyphs" textLength="77" x="98" y="1745.867">P: consentId</text><text font-family="sans-serif" font-size="13" lengthAdjust="spacingAndGlyphs" textLength="163" x="98" y="1761.178">P: consentAuthorisationId</text><text font-family="sans-serif" font-size="13" lengthAdjust="spacingAndGlyphs" textLength="104" x="98" y="1776.488">H: Authorization</text><text font-family="sans-serif" font-size="13" lengthAdjust="spacingAndGlyphs" textLength="106" x="98" y="1791.799">H: X-Request-ID</text><text font-family="sans-serif" font-size="13" lengthAdjust="spacingAndGlyphs" textLength="63" x="98" y="1807.109">H: X-BicFi</text><path fill="#A80036" stroke="#a80036" d="M95.5 1845.852l-10 4 10 4-4-4z"/><path stroke="#a80036" stroke-dasharray="2,2" d="M89.5 1849.852h570"/><path fill="#FBFB77" stroke="#a80036" d="M512 1862.852h143v53H512z"/><text font-family="sans-serif" font-size="13" lengthAdjust="spacingAndGlyphs" textLength="61" x="516" y="1879.42">HTTP 200</text><text font-family="sans-serif" font-size="13" lengthAdjust="spacingAndGlyphs" textLength="106" x="516" y="1894.73">H: X-Request-ID</text><text font-family="sans-serif" font-size="13" lengthAdjust="spacingAndGlyphs" textLength="135" x="516" y="1910.041">B: scaStatusResponse</text><path fill="#A80036" stroke="#a80036" d="M643.5 1979.404l10 4-10 4 4-4z"/><path stroke="#a80036" d="M89.5 1983.404h560"/><text font-family="sans-serif" font-size="13" font-weight="bold" lengthAdjust="spacingAndGlyphs" textLength="195" x="96.5" y="1963.352">Update PSU Data for Consent</text><text font-family="sans-serif" font-size="13" lengthAdjust="spacingAndGlyphs" textLength="547" x="96.5" y="1978.662">PUT /psd2/consent/v1/consents/{consentId}/authorisations/{consentAuthorisationId}</text><path fill="#FBFB77" stroke="#a80036" d="M94 1996.404h222v99H94z"/><text font-family="sans-serif" font-size="13" lengthAdjust="spacingAndGlyphs" textLength="77" x="98" y="2012.973">P: consentId</text><text font-family="sans-serif" font-size="13" lengthAdjust="spacingAndGlyphs" textLength="163" x="98" y="2028.283">P: consentAuthorisationId</text><text font-family="sans-serif" font-size="13" lengthAdjust="spacingAndGlyphs" textLength="104" x="98" y="2043.594">H: Authorization</text><text font-family="sans-serif" font-size="13" lengthAdjust="spacingAndGlyphs" textLength="106" x="98" y="2058.904">H: X-Request-ID</text><text font-family="sans-serif" font-size="13" lengthAdjust="spacingAndGlyphs" textLength="63" x="98" y="2074.215">H: X-BicFi</text><text font-family="sans-serif" font-size="13" lengthAdjust="spacingAndGlyphs" textLength="214" x="98" y="2089.525">B: selectPsuAuthenticationMethod</text><path fill="#A80036" stroke="#a80036" d="M100.5 2128.268l-10 4 10 4-4-4z"/><path stroke="#a80036" stroke-dasharray="2,2" d="M94.5 2132.268h565"/><path fill="#FBFB77" stroke="#a80036" d="M373 2145.268h282v69H373z"/><text font-family="sans-serif" font-size="13" lengthAdjust="spacingAndGlyphs" textLength="61" x="377" y="2161.836">HTTP 200</text><text font-family="sans-serif" font-size="13" lengthAdjust="spacingAndGlyphs" textLength="106" x="377" y="2177.146">H: X-Request-ID</text><text font-family="sans-serif" font-size="13" lengthAdjust="spacingAndGlyphs" textLength="156" x="377" y="2192.457">H: ASPSP-SCA-Approach</text><text font-family="sans-serif" font-size="13" lengthAdjust="spacingAndGlyphs" textLength="274" x="377" y="2207.768">B: selectPsuAuthenticationMethodResponse</text><path d="M13 2226.51h62v7l-10 10H13v-17" fill="#EEE" stroke="#000"/><path fill="none" stroke="#000" stroke-width="2" d="M13 2226.51h991.5v1683.785H13z"/><text font-family="sans-serif" font-size="13" font-weight="bold" lengthAdjust="spacingAndGlyphs" textLength="17" x="28" y="2240.078">alt</text><text font-family="sans-serif" font-size="11" font-weight="bold" lengthAdjust="spacingAndGlyphs" textLength="61" x="90" y="2239.144">[scaOAuth]</text><path stroke="#a80036" d="M89.5 2265.131h42m0 0v13m-41 0h41"/><path fill="#A80036" stroke="#a80036" d="M100.5 2274.13l-10 4 10 4-4-4z"/><text font-family="sans-serif" font-size="13" font-weight="bold" lengthAdjust="spacingAndGlyphs" textLength="540" x="96.5" y="2260.389">Process selectPsuAuthenticationMethodResponse._links.scaOAuth.href template</text><path fill="#A80036" stroke="#a80036" d="M825.5 2318.752l10 4-10 4 4-4z"/><path stroke="#a80036" d="M89.5 2322.752h742"/><text font-family="sans-serif" font-size="13" font-weight="bold" lengthAdjust="spacingAndGlyphs" textLength="85" x="96.5" y="2302.699">Call authlink</text><text font-family="sans-serif" font-size="13" lengthAdjust="spacingAndGlyphs" textLength="151" x="96.5" y="2318.01">GET /connect/authorize</text><path fill="#FBFB77" stroke="#a80036" d="M94 2335.752h117v99H94z"/><text font-family="sans-serif" font-size="13" lengthAdjust="spacingAndGlyphs" textLength="72" x="98" y="2352.32">Q: client_id</text><text font-family="sans-serif" font-size="13" lengthAdjust="spacingAndGlyphs" textLength="55" x="98" y="2367.631">Q: scope</text><text font-family="sans-serif" font-size="13" lengthAdjust="spacingAndGlyphs" textLength="109" x="98" y="2382.941">Q: response_type</text><text font-family="sans-serif" font-size="13" lengthAdjust="spacingAndGlyphs" textLength="90" x="98" y="2398.252">Q: redirect_uri</text><text font-family="sans-serif" font-size="13" lengthAdjust="spacingAndGlyphs" textLength="49" x="98" y="2413.563">Q: state</text><text font-family="sans-serif" font-size="13" lengthAdjust="spacingAndGlyphs" textLength="84" x="98" y="2428.873">Q: acr_values</text><path fill="#A80036" stroke="#a80036" d="M100.5 2457.926l-10 4 10 4-4-4z"/><path stroke="#a80036" stroke-dasharray="2,2" d="M94.5 2461.926h747"/><text font-family="sans-serif" font-size="13" font-weight="bold" lengthAdjust="spacingAndGlyphs" textLength="117" x="106.5" y="2457.184">Redirect to ASPSP</text><path fill="#A80036" stroke="#a80036" d="M949.5 2487.236l10 4-10 4 4-4z"/><path stroke="#a80036" d="M89.5 2491.236h866"/><text font-family="sans-serif" font-size="13" font-weight="bold" lengthAdjust="spacingAndGlyphs" textLength="159" x="96.5" y="2486.494">Follow authlink redirect</text><path fill="#A80036" stroke="#a80036" d="M949.5 2516.547l10 4-10 4 4-4z"/><path stroke="#a80036" d="M44 2520.547h911.5"/><text font-family="sans-serif" font-size="13" font-weight="bold" lengthAdjust="spacingAndGlyphs" textLength="162" x="51" y="2515.805">Start PSU authentication</text><path fill="#A80036" stroke="#a80036" d="M50 2573.857l-10 4 10 4-4-4z"/><path stroke="#a80036" d="M44 2577.857h916.5"/><text font-family="sans-serif" font-size="13" font-weight="bold" lengthAdjust="spacingAndGlyphs" textLength="157" x="56" y="2573.115">End PSU authentication</text><path fill="#A80036" stroke="#a80036" d="M858.5 2603.168l-10 4 10 4-4-4z"/><path stroke="#a80036" d="M852.5 2607.168h113"/><text font-family="sans-serif" font-size="13" font-weight="bold" lengthAdjust="spacingAndGlyphs" textLength="76" x="864.5" y="2602.426">Auth result</text><path fill="#A80036" stroke="#a80036" d="M100.5 2647.79l-10 4 10 4-4-4z"/><path stroke="#a80036" d="M94.5 2651.789h747"/><text font-family="sans-serif" font-size="13" font-weight="bold" lengthAdjust="spacingAndGlyphs" textLength="86" x="106.5" y="2631.736">TPP Callback</text><text font-family="sans-serif" font-size="13" lengthAdjust="spacingAndGlyphs" textLength="138" x="106.5" y="2647.047">GET [TPP Redirect URI]</text><path fill="#FBFB77" stroke="#a80036" d="M774 2664.789h63v53h-63z"/><text font-family="sans-serif" font-size="13" lengthAdjust="spacingAndGlyphs" textLength="48" x="778" y="2681.357">Q: code</text><text font-family="sans-serif" font-size="13" lengthAdjust="spacingAndGlyphs" textLength="55" x="778" y="2696.668">Q: scope</text><text font-family="sans-serif" font-size="13" lengthAdjust="spacingAndGlyphs" textLength="49" x="778" y="2711.979">Q: state</text><path fill="#A80036" stroke="#a80036" d="M825.5 2756.342l10 4-10 4 4-4z"/><path stroke="#a80036" d="M89.5 2760.342h742"/><text font-family="sans-serif" font-size="13" font-weight="bold" lengthAdjust="spacingAndGlyphs" textLength="113" x="96.5" y="2740.289">Get OAuth token</text><text font-family="sans-serif" font-size="13" lengthAdjust="spacingAndGlyphs" textLength="136" x="96.5" y="2755.6">POST /connect/token</text><path fill="#FBFB77" stroke="#a80036" d="M94 2773.342h192v130H94z"/><text font-family="sans-serif" font-size="13" lengthAdjust="spacingAndGlyphs" textLength="98" x="98" y="2789.91">H: X-ConsentId</text><text font-family="sans-serif" font-size="13" lengthAdjust="spacingAndGlyphs" textLength="184" x="98" y="2805.221">H: X-ConsentAuthorisationId</text><text font-family="sans-serif" font-size="13" lengthAdjust="spacingAndGlyphs" textLength="69" x="98" y="2820.531">B: client_id</text><text font-family="sans-serif" font-size="13" lengthAdjust="spacingAndGlyphs" textLength="95" x="98" y="2835.842">B: client_secret</text><text font-family="sans-serif" font-size="13" lengthAdjust="spacingAndGlyphs" textLength="45" x="98" y="2851.152">B: code</text><text font-family="sans-serif" font-size="13" lengthAdjust="spacingAndGlyphs" textLength="87" x="98" y="2866.463">B: redirect_uri</text><text font-family="sans-serif" font-size="13" lengthAdjust="spacingAndGlyphs" textLength="82" x="98" y="2881.773">B: grant_type</text><text font-family="sans-serif" font-size="13" lengthAdjust="spacingAndGlyphs" textLength="52" x="98" y="2897.084">B: scope</text><path fill="#A80036" stroke="#a80036" d="M100.5 2935.826l-10 4 10 4-4-4z"/><path stroke="#a80036" stroke-dasharray="2,2" d="M94.5 2939.826h747"/><path fill="#FBFB77" stroke="#a80036" d="M729 2952.826h108v84H729z"/><text font-family="sans-serif" font-size="13" lengthAdjust="spacingAndGlyphs" textLength="61" x="733" y="2969.394">HTTP 200</text><text font-family="sans-serif" font-size="13" lengthAdjust="spacingAndGlyphs" textLength="100" x="733" y="2984.705">B: access_token</text><text font-family="sans-serif" font-size="13" lengthAdjust="spacingAndGlyphs" textLength="80" x="733" y="3000.016">B: expires_in</text><text font-family="sans-serif" font-size="13" lengthAdjust="spacingAndGlyphs" textLength="85" x="733" y="3015.326">B: token_type</text><text font-family="sans-serif" font-size="13" lengthAdjust="spacingAndGlyphs" textLength="52" x="733" y="3030.637">B: scope</text><path stroke="#000" stroke-dasharray="2,2" d="M13 3068.379h991.5"/><text font-family="sans-serif" font-size="11" font-weight="bold" lengthAdjust="spacingAndGlyphs" textLength="72" x="18" y="3079.014">[scaRedirect]</text><path stroke="#a80036" d="M89.5 3103.644h42m0 0v13m-41 0h41"/><path fill="#A80036" stroke="#a80036" d="M100.5 3112.644l-10 4 10 4-4-4z"/><text font-family="sans-serif" font-size="13" font-weight="bold" lengthAdjust="spacingAndGlyphs" textLength="552" x="96.5" y="3098.902">Process selectPsuAuthenticationMethodResponse._links.scaRedirect.href template</text><path fill="#A80036" stroke="#a80036" d="M825.5 3157.266l10 4-10 4 4-4z"/><path stroke="#a80036" d="M89.5 3161.266h742"/><text font-family="sans-serif" font-size="13" font-weight="bold" lengthAdjust="spacingAndGlyphs" textLength="85" x="96.5" y="3141.213">Call authlink</text><text font-family="sans-serif" font-size="13" lengthAdjust="spacingAndGlyphs" textLength="151" x="96.5" y="3156.523">GET /connect/authorize</text><path fill="#FBFB77" stroke="#a80036" d="M94 3174.266h117v99H94z"/><text font-family="sans-serif" font-size="13" lengthAdjust="spacingAndGlyphs" textLength="72" x="98" y="3190.834">Q: client_id</text><text font-family="sans-serif" font-size="13" lengthAdjust="spacingAndGlyphs" textLength="55" x="98" y="3206.144">Q: scope</text><text font-family="sans-serif" font-size="13" lengthAdjust="spacingAndGlyphs" textLength="109" x="98" y="3221.455">Q: response_type</text><text font-family="sans-serif" font-size="13" lengthAdjust="spacingAndGlyphs" textLength="90" x="98" y="3236.766">Q: redirect_uri</text><text font-family="sans-serif" font-size="13" lengthAdjust="spacingAndGlyphs" textLength="49" x="98" y="3252.076">Q: state</text><text font-family="sans-serif" font-size="13" lengthAdjust="spacingAndGlyphs" textLength="84" x="98" y="3267.387">Q: acr_values</text><path fill="#A80036" stroke="#a80036" d="M100.5 3296.44l-10 4 10 4-4-4z"/><path stroke="#a80036" stroke-dasharray="2,2" d="M94.5 3300.439h747"/><text font-family="sans-serif" font-size="13" font-weight="bold" lengthAdjust="spacingAndGlyphs" textLength="117" x="106.5" y="3295.697">Redirect to ASPSP</text><path fill="#A80036" stroke="#a80036" d="M949.5 3325.75l10 4-10 4 4-4z"/><path stroke="#a80036" d="M89.5 3329.75h866"/><text font-family="sans-serif" font-size="13" font-weight="bold" lengthAdjust="spacingAndGlyphs" textLength="159" x="96.5" y="3325.008">Follow authlink redirect</text><path fill="#A80036" stroke="#a80036" d="M949.5 3355.06l10 4-10 4 4-4z"/><path stroke="#a80036" d="M44 3359.061h911.5"/><text font-family="sans-serif" font-size="13" font-weight="bold" lengthAdjust="spacingAndGlyphs" textLength="162" x="51" y="3354.318">Start PSU authentication</text><path fill="#A80036" stroke="#a80036" d="M50 3412.371l-10 4 10 4-4-4z"/><path stroke="#a80036" d="M44 3416.371h916.5"/><text font-family="sans-serif" font-size="13" font-weight="bold" lengthAdjust="spacingAndGlyphs" textLength="157" x="56" y="3411.629">End PSU authentication</text><path fill="#A80036" stroke="#a80036" d="M858.5 3441.682l-10 4 10 4-4-4z"/><path stroke="#a80036" d="M852.5 3445.682h113"/><text font-family="sans-serif" font-size="13" font-weight="bold" lengthAdjust="spacingAndGlyphs" textLength="76" x="864.5" y="3440.939">Auth result</text><path fill="#A80036" stroke="#a80036" d="M95.5 3486.303l-10 4 10 4-4-4z"/><path stroke="#a80036" d="M89.5 3490.303h752"/><text font-family="sans-serif" font-size="13" font-weight="bold" lengthAdjust="spacingAndGlyphs" textLength="86" x="101.5" y="3470.25">TPP Callback</text><text font-family="sans-serif" font-size="13" lengthAdjust="spacingAndGlyphs" textLength="138" x="101.5" y="3485.561">GET [TPP Redirect URI]</text><path fill="#FBFB77" stroke="#a80036" d="M774 3503.303h63v38h-63z"/><text font-family="sans-serif" font-size="13" lengthAdjust="spacingAndGlyphs" textLength="55" x="778" y="3519.871">Q: scope</text><text font-family="sans-serif" font-size="13" lengthAdjust="spacingAndGlyphs" textLength="49" x="778" y="3535.182">Q: state</text><path stroke="#000" stroke-dasharray="2,2" d="M13 3572.924h991.5"/><text font-family="sans-serif" font-size="11" font-weight="bold" lengthAdjust="spacingAndGlyphs" textLength="65" x="18" y="3583.559">[decoupled]</text><path d="M55 3593.879h74v7l-10 10H55v-17" fill="#EEE" stroke="#000"/><path fill="none" stroke="#000" stroke-width="2" d="M55 3593.879h701.5v284.416H55z"/><text font-family="sans-serif" font-size="13" font-weight="bold" lengthAdjust="spacingAndGlyphs" textLength="29" x="70" y="3607.447">loop</text><text font-family="sans-serif" font-size="11" font-weight="bold" lengthAdjust="spacingAndGlyphs" textLength="404" x="144" y="3606.514">[until scaStatusResponse.scaStatus = &quot;finalised&quot;, &quot;failed&quot; or &quot;exempted&quot;]</text><path fill="#A80036" stroke="#a80036" d="M643.5 3668.81l10 4-10 4 4-4z"/><path stroke="#a80036" d="M89.5 3672.811h560"/><text font-family="sans-serif" font-size="13" font-weight="bold" lengthAdjust="spacingAndGlyphs" textLength="253" x="96.5" y="3652.758">Get Consent Authorisation SCA Status</text><text font-family="sans-serif" font-size="13" lengthAdjust="spacingAndGlyphs" textLength="547" x="96.5" y="3668.068">GET /psd2/consent/v1/consents/{consentId}/authorisations/{consentAuthorisationId}</text><path fill="#FBFB77" stroke="#a80036" d="M94 3685.811h171v84H94z"/><text font-family="sans-serif" font-size="13" lengthAdjust="spacingAndGlyphs" textLength="77" x="98" y="3702.379">P: consentId</text><text font-family="sans-serif" font-size="13" lengthAdjust="spacingAndGlyphs" textLength="163" x="98" y="3717.689">P: consentAuthorisationId</text><text font-family="sans-serif" font-size="13" lengthAdjust="spacingAndGlyphs" textLength="104" x="98" y="3733">H: Authorization</text><text font-family="sans-serif" font-size="13" lengthAdjust="spacingAndGlyphs" textLength="106" x="98" y="3748.311">H: X-Request-ID</text><text font-family="sans-serif" font-size="13" lengthAdjust="spacingAndGlyphs" textLength="63" x="98" y="3763.621">H: X-BicFi</text><path fill="#A80036" stroke="#a80036" d="M95.5 3802.363l-10 4 10 4-4-4z"/><path stroke="#a80036" stroke-dasharray="2,2" d="M89.5 3806.363h570"/><path fill="#FBFB77" stroke="#a80036" d="M512 3819.363h143v53H512z"/><text font-family="sans-serif" font-size="13" lengthAdjust="spacingAndGlyphs" textLength="61" x="516" y="3835.932">HTTP 200</text><text font-family="sans-serif" font-size="13" lengthAdjust="spacingAndGlyphs" textLength="106" x="516" y="3851.242">H: X-Request-ID</text><text font-family="sans-serif" font-size="13" lengthAdjust="spacingAndGlyphs" textLength="135" x="516" y="3866.553">B: scaStatusResponse</text><path fill="#A80036" stroke="#a80036" d="M643.5 3974.916l10 4-10 4 4-4z"/><path stroke="#a80036" d="M89.5 3978.916h560"/><text font-family="sans-serif" font-size="13" font-weight="bold" lengthAdjust="spacingAndGlyphs" textLength="102" x="96.5" y="3958.863">Delete Consent</text><text font-family="sans-serif" font-size="13" lengthAdjust="spacingAndGlyphs" textLength="286" x="96.5" y="3974.174">GET /psd2/consent/v1/consents/{consentId}</text><path fill="#FBFB77" stroke="#a80036" d="M94 3991.916h114v69H94z"/><text font-family="sans-serif" font-size="13" lengthAdjust="spacingAndGlyphs" textLength="77" x="98" y="4008.484">P: consentId</text><text font-family="sans-serif" font-size="13" lengthAdjust="spacingAndGlyphs" textLength="104" x="98" y="4023.795">H: Authorization</text><text font-family="sans-serif" font-size="13" lengthAdjust="spacingAndGlyphs" textLength="106" x="98" y="4039.106">H: X-Request-ID</text><text font-family="sans-serif" font-size="13" lengthAdjust="spacingAndGlyphs" textLength="63" x="98" y="4054.416">H: X-BicFi</text><path fill="#A80036" stroke="#a80036" d="M95.5 4093.158l-10 4 10 4-4-4z"/><path stroke="#a80036" stroke-dasharray="2,2" d="M89.5 4097.158h570"/><path fill="#FBFB77" stroke="#a80036" d="M541 4110.158h114v38H541z"/><text font-family="sans-serif" font-size="13" lengthAdjust="spacingAndGlyphs" textLength="61" x="545" y="4126.727">HTTP 204</text><text font-family="sans-serif" font-size="13" lengthAdjust="spacingAndGlyphs" textLength="106" x="545" y="4142.037">H: X-Request-ID</text></svg>