<svg xmlns="http://www.w3.org/2000/svg" viewBox="0 0 570 573"><path d="M38.8 45.7c-14.3 16.9-26 31.1-26 31.5 0 .3 7.9 7.3 17.5 15.4 56.4 47.6 109.9 96 174.2 157.7l20.8 20-6.8 7.3c-3.7 4-16.6 17.8-28.8 30.6-59.9 63.4-111.7 123.2-163 188.2-11.1 14-14.1 18.4-13.1 19.3.7.6 13.7 11.7 29 24.7 23.8 20.2 28.4 23.6 31 23.5 2.8 0 4.3-1.4 13.2-12.2 47.8-58.2 131.6-151.8 184.6-206l14.4-14.7 22.6 23.7c64.9 68.3 118.8 128.6 174.3 195.1 11.3 13.5 12.1 14.3 15.2 14 4.8-.4 58.4-46 58.4-49.7 0-2.6-1.2-4.3-23.4-32.1-48.3-60.6-100.4-120-161.8-184.7-13.6-14.4-24.8-26.4-24.8-26.6 0-1.4 55.5-54.5 88-84.3 36.2-33.1 99.3-88.5 117.8-103.3 3.1-2.5 4.2-4.2 4.2-6.2 0-2.1-5.7-9.4-25.1-32.3C517.5 28.3 505.9 15 505.6 15c-.7 0-29.2 23.3-54.3 44.6-52.8 44.7-102.9 90-157.7 142.8l-8.2 7.9-15.4-14.9c-37.2-36.2-88.2-82.6-132.2-120.4-28.4-24.5-71.4-60-72.5-60-.3 0-12.2 13.8-26.5 30.7z" fill="#800"/></svg>