<svg xmlns="http://www.w3.org/2000/svg" height="4419" preserveAspectRatio="none" style="width:1207px;height:4419px" viewBox="0 0 1207 4419" width="1207"><text font-family="sans-serif" font-size="14" font-weight="bold" lengthAdjust="spacingAndGlyphs" textLength="189" x="509.75" y="23.535">Payment Initiation Service</text><path fill="#FFF" stroke="#fff" d="M34 2910.137h10v8H34z"/><path stroke="#a80036" d="M34 2910.137v8m10-8v8m-10-8h10"/><path fill="#FFF" stroke="#fff" d="M34 2946.137h10v21.311H34z"/><path stroke="#a80036" d="M34 2946.137v21.31m10-21.31v21.31m-10 0h10"/><path fill="#FFF" stroke="#fff" d="M34 3748.65h10v8H34z"/><path stroke="#a80036" d="M34 3748.65v8m10-8v8m-10-8h10"/><path fill="#FFF" stroke="#fff" d="M34 3784.65h10v21.311H34z"/><path stroke="#a80036" d="M34 3784.65v21.311m10-21.311v21.311m-10 0h10"/><path fill="#FFF" stroke="#a80036" d="M79.5 159.598h10V277.84h-10zm0 282.416h10v164.174h-10zm0 282.416h10v148.863h-10zm0 267.105h10v148.863h-10zm0 267.106h10v148.863h-10zm0 267.105h10v148.863h-10zm0 282.416h10v148.863h-10zm0 267.106h10v164.174h-10z"/><path fill="#FFF" stroke="#fff" d="M79.5 2357.684h10v560.453h-10z"/><path stroke="#a80036" d="M79.5 2357.684v560.453m10-560.453v560.453m-10-560.453h10"/><path fill="#FFF" stroke="#fff" d="M79.5 2946.137h10v810.514h-10z"/><path stroke="#a80036" d="M79.5 2946.137v810.513m10-810.513v810.513"/><path fill="#FFF" stroke="#fff" d="M79.5 3784.65h10v95.242h-10z"/><path stroke="#a80036" d="M79.5 3784.65v95.243m10-95.243v95.243m-10 0h10"/><path fill="#FFF" stroke="#a80036" d="M79.5 4062.4h10v164.174h-10zm767-3620.386h10v164.174h-10zm0 282.416h10v148.863h-10zm0 267.105h10v148.863h-10zm0 267.106h10v148.863h-10zm0 267.105h10v148.863h-10zm0 282.416h10v148.863h-10zm0 267.106h10v164.174h-10zm0 282.416h10v179.484h-10zm0 1704.716h10v164.174h-10zm182-3902.802h10V277.84h-10zm0 2552.744h10v139.174h-10zm0 284.416h10v44.621h-10zm0 153.174h10v179.484h-10zm0 400.924h10v139.174h-10zm0 284.415h10v44.621h-10z"/><path fill="#FFF" stroke="#fff" d="M1152.5 2880.826h10v37.31h-10z"/><path stroke="#a80036" d="M1152.5 2880.826v37.311m10-37.311v37.311m-10-37.311h10"/><path fill="#FFF" stroke="#fff" d="M1152.5 2946.137h10v50.621h-10z"/><path stroke="#a80036" d="M1152.5 2946.137v50.621m10-50.621v50.621m-10 0h10"/><path fill="#FFF" stroke="#fff" d="M1152.5 3719.34h10v37.31h-10z"/><path stroke="#a80036" d="M1152.5 3719.34v37.31m10-37.31v37.31m-10-37.31h10"/><path fill="#FFF" stroke="#fff" d="M1152.5 3784.65h10v50.621h-10z"/><path stroke="#a80036" d="M1152.5 3784.65v50.621m10-50.621v50.621m-10 0h10"/><path fill="#FFF" stroke="#000" stroke-width="2" d="M13 2616.1h1182.5v1699.096H13z"/><path fill="#FFF" d="M13 3456.969h1182.5v504.545H13zm0 504.545h1182.5v353.682H13z"/><path fill="#FFF" stroke="#000" stroke-width="2" d="M55 3983.469h892.5v299.727H55z"/><path stroke="#a80036" d="M39 112.977v2805.16"/><path stroke="#a80036" stroke-dasharray="1,4" d="M39 2918.137v28"/><path stroke="#a80036" d="M39 2946.137v810.513"/><path stroke="#a80036" stroke-dasharray="1,4" d="M39 3756.65v28"/><path stroke="#a80036" d="M39 3784.65v547.545M84 112.977v2805.16"/><path stroke="#a80036" stroke-dasharray="1,4" d="M84 2918.137v28"/><path stroke="#a80036" d="M84 2946.137v810.513"/><path stroke="#a80036" stroke-dasharray="1,4" d="M84 3756.65v28"/><path stroke="#a80036" d="M84 3784.65v547.545M851.5 112.977v2805.16"/><path stroke="#a80036" stroke-dasharray="1,4" d="M851.5 2918.137v28"/><path stroke="#a80036" d="M851.5 2946.137v810.513"/><path stroke="#a80036" stroke-dasharray="1,4" d="M851.5 3756.65v28"/><path stroke="#a80036" d="M851.5 3784.65v547.545m182-4219.218v2805.16"/><path stroke="#a80036" stroke-dasharray="1,4" d="M1033.5 2918.137v28"/><path stroke="#a80036" d="M1033.5 2946.137v810.513"/><path stroke="#a80036" stroke-dasharray="1,4" d="M1033.5 3756.65v28"/><path stroke="#a80036" d="M1033.5 3784.65v547.545m124-4219.218v2805.16"/><path stroke="#a80036" stroke-dasharray="1,4" d="M1157.5 2918.137v28"/><path stroke="#a80036" d="M1157.5 2946.137v810.513"/><path stroke="#a80036" stroke-dasharray="1,4" d="M1157.5 3756.65v28"/><path stroke="#a80036" d="M1157.5 3784.65v547.545"/><text font-family="sans-serif" font-size="14" lengthAdjust="spacingAndGlyphs" textLength="26" x="23" y="110.023">PSU</text><circle cx="39" cy="43.488" fill="#FEFECE" stroke="#a80036" stroke-width="2" r="8"/><path d="M39 51.488v27m-13-19h26m-13 19l-13 15m13-15l13 15" fill="none" stroke="#a80036" stroke-width="2"/><text font-family="sans-serif" font-size="14" lengthAdjust="spacingAndGlyphs" textLength="26" x="23" y="4344.73">PSU</text><circle cx="39" cy="4357.684" fill="#FEFECE" stroke="#a80036" stroke-width="2" r="8"/><path d="M39 4365.684v27m-13-19h26m-13 19l-13 15m13-15l13 15" fill="none" stroke="#a80036" stroke-width="2"/><path fill="#FEFECE" stroke="#a80036" stroke-width="1.5" d="M65 81.488h39v30.488H65z"/><text font-family="sans-serif" font-size="14" lengthAdjust="spacingAndGlyphs" textLength="25" x="72" y="102.023">TPP</text><path fill="#FEFECE" stroke="#a80036" stroke-width="1.5" d="M65 4331.195h39v30.488H65z"/><text font-family="sans-serif" font-size="14" lengthAdjust="spacingAndGlyphs" textLength="25" x="72" y="4351.73">TPP</text><path fill="#FEFECE" stroke="#a80036" stroke-width="1.5" d="M765.5 65h172v46.977h-172z"/><text font-family="sans-serif" font-size="14" lengthAdjust="spacingAndGlyphs" textLength="158" x="772.5" y="85.535">Open Banking Platform</text><text font-family="sans-serif" font-size="14" lengthAdjust="spacingAndGlyphs" textLength="22" x="840.5" y="102.023">API</text><path fill="#FEFECE" stroke="#a80036" stroke-width="1.5" d="M765.5 4331.195h172v46.977h-172z"/><text font-family="sans-serif" font-size="14" lengthAdjust="spacingAndGlyphs" textLength="158" x="772.5" y="4351.73">Open Banking Platform</text><text font-family="sans-serif" font-size="14" lengthAdjust="spacingAndGlyphs" textLength="22" x="840.5" y="4368.219">API</text><path fill="#FEFECE" stroke="#a80036" stroke-width="1.5" d="M947.5 65h172v46.977h-172z"/><text font-family="sans-serif" font-size="14" lengthAdjust="spacingAndGlyphs" textLength="158" x="954.5" y="85.535">Open Banking Platform</text><text font-family="sans-serif" font-size="14" lengthAdjust="spacingAndGlyphs" textLength="33" x="1017" y="102.023">Auth</text><path fill="#FEFECE" stroke="#a80036" stroke-width="1.5" d="M947.5 4331.195h172v46.977h-172z"/><text font-family="sans-serif" font-size="14" lengthAdjust="spacingAndGlyphs" textLength="158" x="954.5" y="4351.73">Open Banking Platform</text><text font-family="sans-serif" font-size="14" lengthAdjust="spacingAndGlyphs" textLength="33" x="1017" y="4368.219">Auth</text><path fill="#FEFECE" stroke="#a80036" stroke-width="1.5" d="M1129.5 81.488h56v30.488h-56z"/><text font-family="sans-serif" font-size="14" lengthAdjust="spacingAndGlyphs" textLength="42" x="1136.5" y="102.023">ASPSP</text><path fill="#FEFECE" stroke="#a80036" stroke-width="1.5" d="M1129.5 4331.195h56v30.488h-56z"/><text font-family="sans-serif" font-size="14" lengthAdjust="spacingAndGlyphs" textLength="42" x="1136.5" y="4351.73">ASPSP</text><path fill="#FFF" stroke="#fff" d="M34 2910.137h10v8H34z"/><path stroke="#a80036" d="M34 2910.137v8m10-8v8m-10-8h10"/><path fill="#FFF" stroke="#fff" d="M34 2946.137h10v21.311H34z"/><path stroke="#a80036" d="M34 2946.137v21.31m10-21.31v21.31m-10 0h10"/><path fill="#FFF" stroke="#fff" d="M34 3748.65h10v8H34z"/><path stroke="#a80036" d="M34 3748.65v8m10-8v8m-10-8h10"/><path fill="#FFF" stroke="#fff" d="M34 3784.65h10v21.311H34z"/><path stroke="#a80036" d="M34 3784.65v21.311m10-21.311v21.311m-10 0h10"/><path fill="#FFF" stroke="#a80036" d="M79.5 159.598h10V277.84h-10zm0 282.416h10v164.174h-10zm0 282.416h10v148.863h-10zm0 267.105h10v148.863h-10zm0 267.106h10v148.863h-10zm0 267.105h10v148.863h-10zm0 282.416h10v148.863h-10zm0 267.106h10v164.174h-10z"/><path fill="#FFF" stroke="#fff" d="M79.5 2357.684h10v560.453h-10z"/><path stroke="#a80036" d="M79.5 2357.684v560.453m10-560.453v560.453m-10-560.453h10"/><path fill="#FFF" stroke="#fff" d="M79.5 2946.137h10v810.514h-10z"/><path stroke="#a80036" d="M79.5 2946.137v810.513m10-810.513v810.513"/><path fill="#FFF" stroke="#fff" d="M79.5 3784.65h10v95.242h-10z"/><path stroke="#a80036" d="M79.5 3784.65v95.243m10-95.243v95.243m-10 0h10"/><path fill="#FFF" stroke="#a80036" d="M79.5 4062.4h10v164.174h-10zm767-3620.386h10v164.174h-10zm0 282.416h10v148.863h-10zm0 267.105h10v148.863h-10zm0 267.106h10v148.863h-10zm0 267.105h10v148.863h-10zm0 282.416h10v148.863h-10zm0 267.106h10v164.174h-10zm0 282.416h10v179.484h-10zm0 1704.716h10v164.174h-10zm182-3902.802h10V277.84h-10zm0 2552.744h10v139.174h-10zm0 284.416h10v44.621h-10zm0 153.174h10v179.484h-10zm0 400.924h10v139.174h-10zm0 284.415h10v44.621h-10z"/><path fill="#FFF" stroke="#fff" d="M1152.5 2880.826h10v37.31h-10z"/><path stroke="#a80036" d="M1152.5 2880.826v37.311m10-37.311v37.311m-10-37.311h10"/><path fill="#FFF" stroke="#fff" d="M1152.5 2946.137h10v50.621h-10z"/><path stroke="#a80036" d="M1152.5 2946.137v50.621m10-50.621v50.621m-10 0h10"/><path fill="#FFF" stroke="#fff" d="M1152.5 3719.34h10v37.31h-10z"/><path stroke="#a80036" d="M1152.5 3719.34v37.31m10-37.31v37.31m-10-37.31h10"/><path fill="#FFF" stroke="#fff" d="M1152.5 3784.65h10v50.621h-10z"/><path stroke="#a80036" d="M1152.5 3784.65v50.621m10-50.621v50.621m-10 0h10"/><path fill="#A80036" stroke="#a80036" d="M1016.5 155.598l10 4-10 4 4-4z"/><path stroke="#a80036" d="M89.5 159.598h933"/><text font-family="sans-serif" font-size="13" font-weight="bold" lengthAdjust="spacingAndGlyphs" textLength="69" x="96.5" y="139.545">Get Token</text><text font-family="sans-serif" font-size="13" lengthAdjust="spacingAndGlyphs" textLength="136" x="96.5" y="154.856">POST /connect/token</text><path fill="#FBFB77" stroke="#a80036" d="M94 172.598h103v69H94z"/><text font-family="sans-serif" font-size="13" lengthAdjust="spacingAndGlyphs" textLength="69" x="98" y="189.166">B: client_id</text><text font-family="sans-serif" font-size="13" lengthAdjust="spacingAndGlyphs" textLength="95" x="98" y="204.477">B: client_secret</text><text font-family="sans-serif" font-size="13" lengthAdjust="spacingAndGlyphs" textLength="82" x="98" y="219.787">B: grant_type</text><text font-family="sans-serif" font-size="13" lengthAdjust="spacingAndGlyphs" textLength="52" x="98" y="235.098">B: scope</text><path fill="#A80036" stroke="#a80036" d="M95.5 273.84l-10 4 10 4-4-4z"/><path stroke="#a80036" stroke-dasharray="2,2" d="M89.5 277.84h943"/><path fill="#FBFB77" stroke="#a80036" d="M920 290.84h108v84H920z"/><text font-family="sans-serif" font-size="13" lengthAdjust="spacingAndGlyphs" textLength="61" x="924" y="307.408">HTTP 200</text><text font-family="sans-serif" font-size="13" lengthAdjust="spacingAndGlyphs" textLength="100" x="924" y="322.719">B: access_token</text><text font-family="sans-serif" font-size="13" lengthAdjust="spacingAndGlyphs" textLength="80" x="924" y="338.029">B: expires_in</text><text font-family="sans-serif" font-size="13" lengthAdjust="spacingAndGlyphs" textLength="85" x="924" y="353.34">B: token_type</text><text font-family="sans-serif" font-size="13" lengthAdjust="spacingAndGlyphs" textLength="52" x="924" y="368.65">B: scope</text><path fill="#A80036" stroke="#a80036" d="M834.5 438.014l10 4-10 4 4-4z"/><path stroke="#a80036" d="M89.5 442.014h751"/><text font-family="sans-serif" font-size="13" font-weight="bold" lengthAdjust="spacingAndGlyphs" textLength="179" x="96.5" y="421.961">Payment initiation request</text><text font-family="sans-serif" font-size="13" lengthAdjust="spacingAndGlyphs" textLength="461" x="96.5" y="437.272">POST /psd2/paymentinitiation/v1/{payment-service}/{payment-product}</text><path fill="#FBFB77" stroke="#a80036" d="M94 455.014h168v115H94z"/><text font-family="sans-serif" font-size="13" lengthAdjust="spacingAndGlyphs" textLength="121" x="98" y="471.582">P: payment-service</text><text font-family="sans-serif" font-size="13" lengthAdjust="spacingAndGlyphs" textLength="126" x="98" y="486.893">P: payment-product</text><text font-family="sans-serif" font-size="13" lengthAdjust="spacingAndGlyphs" textLength="104" x="98" y="502.203">H: Authorization</text><text font-family="sans-serif" font-size="13" lengthAdjust="spacingAndGlyphs" textLength="106" x="98" y="517.514">H: X-Request-ID</text><text font-family="sans-serif" font-size="13" lengthAdjust="spacingAndGlyphs" textLength="119" x="98" y="532.824">H: PSU-IP-Address</text><text font-family="sans-serif" font-size="13" lengthAdjust="spacingAndGlyphs" textLength="63" x="98" y="548.135">H: X-BicFi</text><text font-family="sans-serif" font-size="13" lengthAdjust="spacingAndGlyphs" textLength="160" x="98" y="563.445">B: paymentInitiation_json</text><path fill="#A80036" stroke="#a80036" d="M95.5 602.188l-10 4 10 4-4-4z"/><path stroke="#a80036" stroke-dasharray="2,2" d="M89.5 606.188h761"/><path fill="#FBFB77" stroke="#a80036" d="M574 619.188h272v38H574z"/><text font-family="sans-serif" font-size="13" lengthAdjust="spacingAndGlyphs" textLength="61" x="578" y="635.756">HTTP 201</text><text font-family="sans-serif" font-size="13" lengthAdjust="spacingAndGlyphs" textLength="264" x="578" y="651.066">B: paymentInitationRequestResponse-201</text><path fill="#A80036" stroke="#a80036" d="M834.5 720.43l10 4-10 4 4-4z"/><path stroke="#a80036" d="M89.5 724.43h751"/><text font-family="sans-serif" font-size="13" font-weight="bold" lengthAdjust="spacingAndGlyphs" textLength="169" x="96.5" y="704.377">Get Payment Information</text><text font-family="sans-serif" font-size="13" lengthAdjust="spacingAndGlyphs" textLength="534" x="96.5" y="719.688">GET /psd2/paymentinitiation/v1/{payment-service}/{payment-product}/{paymentId}</text><path fill="#FBFB77" stroke="#a80036" d="M94 737.43h134v99H94z"/><text font-family="sans-serif" font-size="13" lengthAdjust="spacingAndGlyphs" textLength="121" x="98" y="753.998">P: payment-service</text><text font-family="sans-serif" font-size="13" lengthAdjust="spacingAndGlyphs" textLength="126" x="98" y="769.309">P: payment-product</text><text font-family="sans-serif" font-size="13" lengthAdjust="spacingAndGlyphs" textLength="81" x="98" y="784.619">P: paymentId</text><text font-family="sans-serif" font-size="13" lengthAdjust="spacingAndGlyphs" textLength="104" x="98" y="799.93">H: Authorization</text><text font-family="sans-serif" font-size="13" lengthAdjust="spacingAndGlyphs" textLength="106" x="98" y="815.24">H: X-Request-ID</text><text font-family="sans-serif" font-size="13" lengthAdjust="spacingAndGlyphs" textLength="63" x="98" y="830.551">H: X-BicFi</text><path fill="#A80036" stroke="#a80036" d="M95.5 869.293l-10 4 10 4-4-4z"/><path stroke="#a80036" stroke-dasharray="2,2" d="M89.5 873.293h761"/><path fill="#FBFB77" stroke="#a80036" d="M585 886.293h261v38H585z"/><text font-family="sans-serif" font-size="13" lengthAdjust="spacingAndGlyphs" textLength="61" x="589" y="902.861">HTTP 200</text><text font-family="sans-serif" font-size="13" lengthAdjust="spacingAndGlyphs" textLength="253" x="589" y="918.172">B: paymentInitiationWithStatusResponse</text><path fill="#A80036" stroke="#a80036" d="M834.5 987.535l10 4-10 4 4-4z"/><path stroke="#a80036" d="M89.5 991.535h751"/><text font-family="sans-serif" font-size="13" font-weight="bold" lengthAdjust="spacingAndGlyphs" textLength="205" x="96.5" y="971.482">Payment Cancellation Request</text><text font-family="sans-serif" font-size="13" lengthAdjust="spacingAndGlyphs" textLength="556" x="96.5" y="986.793">DELETE /psd2/paymentinitiation/v1/{payment-service}/{payment-product}/{paymentId}</text><path fill="#FBFB77" stroke="#a80036" d="M94 1004.535h134v99H94z"/><text font-family="sans-serif" font-size="13" lengthAdjust="spacingAndGlyphs" textLength="121" x="98" y="1021.104">P: payment-service</text><text font-family="sans-serif" font-size="13" lengthAdjust="spacingAndGlyphs" textLength="126" x="98" y="1036.414">P: payment-product</text><text font-family="sans-serif" font-size="13" lengthAdjust="spacingAndGlyphs" textLength="81" x="98" y="1051.725">P: paymentId</text><text font-family="sans-serif" font-size="13" lengthAdjust="spacingAndGlyphs" textLength="104" x="98" y="1067.035">H: Authorization</text><text font-family="sans-serif" font-size="13" lengthAdjust="spacingAndGlyphs" textLength="106" x="98" y="1082.346">H: X-Request-ID</text><text font-family="sans-serif" font-size="13" lengthAdjust="spacingAndGlyphs" textLength="63" x="98" y="1097.656">H: X-BicFi</text><path fill="#A80036" stroke="#a80036" d="M95.5 1136.398l-10 4 10 4-4-4z"/><path stroke="#a80036" stroke-dasharray="2,2" d="M89.5 1140.398h761"/><path fill="#FBFB77" stroke="#a80036" d="M578 1153.398h268v38H578z"/><text font-family="sans-serif" font-size="13" lengthAdjust="spacingAndGlyphs" textLength="61" x="582" y="1169.967">HTTP 202</text><text font-family="sans-serif" font-size="13" lengthAdjust="spacingAndGlyphs" textLength="260" x="582" y="1185.277">B: paymentInitiationCancelResponse-202</text><path fill="#A80036" stroke="#a80036" d="M834.5 1254.64l10 4-10 4 4-4z"/><path stroke="#a80036" d="M89.5 1258.641h751"/><text font-family="sans-serif" font-size="13" font-weight="bold" lengthAdjust="spacingAndGlyphs" textLength="224" x="96.5" y="1238.588">Payment initiation status request</text><text font-family="sans-serif" font-size="13" lengthAdjust="spacingAndGlyphs" textLength="580" x="96.5" y="1253.898">GET /psd2/paymentinitiation/v1/{payment-service}/{payment-product}/{paymentId}/status</text><path fill="#FBFB77" stroke="#a80036" d="M94 1271.641h134v99H94z"/><text font-family="sans-serif" font-size="13" lengthAdjust="spacingAndGlyphs" textLength="121" x="98" y="1288.209">P: payment-service</text><text font-family="sans-serif" font-size="13" lengthAdjust="spacingAndGlyphs" textLength="126" x="98" y="1303.52">P: payment-product</text><text font-family="sans-serif" font-size="13" lengthAdjust="spacingAndGlyphs" textLength="81" x="98" y="1318.83">P: paymentId</text><text font-family="sans-serif" font-size="13" lengthAdjust="spacingAndGlyphs" textLength="104" x="98" y="1334.141">H: Authorization</text><text font-family="sans-serif" font-size="13" lengthAdjust="spacingAndGlyphs" textLength="106" x="98" y="1349.451">H: X-Request-ID</text><text font-family="sans-serif" font-size="13" lengthAdjust="spacingAndGlyphs" textLength="63" x="98" y="1364.762">H: X-BicFi</text><path fill="#A80036" stroke="#a80036" d="M95.5 1403.504l-10 4 10 4-4-4z"/><path stroke="#a80036" stroke-dasharray="2,2" d="M89.5 1407.504h761"/><path fill="#FBFB77" stroke="#a80036" d="M547 1420.504h299v38H547z"/><text font-family="sans-serif" font-size="13" lengthAdjust="spacingAndGlyphs" textLength="61" x="551" y="1437.072">HTTP 200</text><text font-family="sans-serif" font-size="13" lengthAdjust="spacingAndGlyphs" textLength="291" x="551" y="1452.383">B: paymentInitiationStatusResponse-200_json</text><path fill="#A80036" stroke="#a80036" d="M834.5 1521.746l10 4-10 4 4-4z"/><path stroke="#a80036" d="M89.5 1525.746h751"/><text font-family="sans-serif" font-size="13" font-weight="bold" lengthAdjust="spacingAndGlyphs" textLength="370" x="96.5" y="1505.693">Start the authorisation process for a payment initiation</text><text font-family="sans-serif" font-size="13" lengthAdjust="spacingAndGlyphs" textLength="640" x="96.5" y="1521.004">POST /psd2/paymentinitiation/v1/{payment-service}/{payment-product}/{paymentId}/authorisations</text><path fill="#FBFB77" stroke="#a80036" d="M94 1538.746h134v99H94z"/><text font-family="sans-serif" font-size="13" lengthAdjust="spacingAndGlyphs" textLength="121" x="98" y="1555.314">P: payment-service</text><text font-family="sans-serif" font-size="13" lengthAdjust="spacingAndGlyphs" textLength="126" x="98" y="1570.625">P: payment-product</text><text font-family="sans-serif" font-size="13" lengthAdjust="spacingAndGlyphs" textLength="81" x="98" y="1585.936">P: paymentId</text><text font-family="sans-serif" font-size="13" lengthAdjust="spacingAndGlyphs" textLength="104" x="98" y="1601.246">H: Authorization</text><text font-family="sans-serif" font-size="13" lengthAdjust="spacingAndGlyphs" textLength="106" x="98" y="1616.557">H: X-Request-ID</text><text font-family="sans-serif" font-size="13" lengthAdjust="spacingAndGlyphs" textLength="63" x="98" y="1631.867">H: X-BicFi</text><path fill="#A80036" stroke="#a80036" d="M95.5 1670.61l-10 4 10 4-4-4z"/><path stroke="#a80036" stroke-dasharray="2,2" d="M89.5 1674.609h761"/><path fill="#FBFB77" stroke="#a80036" d="M664 1687.609h182v53H664z"/><text font-family="sans-serif" font-size="13" lengthAdjust="spacingAndGlyphs" textLength="61" x="668" y="1704.178">HTTP 201</text><text font-family="sans-serif" font-size="13" lengthAdjust="spacingAndGlyphs" textLength="156" x="668" y="1719.488">H: ASPSP-SCA-Approach</text><text font-family="sans-serif" font-size="13" lengthAdjust="spacingAndGlyphs" textLength="174" x="668" y="1734.799">B: startScaprocessResponse</text><path fill="#A80036" stroke="#a80036" d="M834.5 1804.162l10 4-10 4 4-4z"/><path stroke="#a80036" d="M89.5 1808.162h751"/><text font-family="sans-serif" font-size="13" font-weight="bold" lengthAdjust="spacingAndGlyphs" textLength="411" x="96.5" y="1788.109">Get Payment Initiation Authorisation Sub-Resources Request</text><text font-family="sans-serif" font-size="13" lengthAdjust="spacingAndGlyphs" textLength="632" x="96.5" y="1803.42">GET /psd2/paymentinitiation/v1/{payment-service}/{payment-product}/{paymentId}/authorisations</text><path fill="#FBFB77" stroke="#a80036" d="M94 1821.162h134v99H94z"/><text font-family="sans-serif" font-size="13" lengthAdjust="spacingAndGlyphs" textLength="121" x="98" y="1837.73">P: payment-service</text><text font-family="sans-serif" font-size="13" lengthAdjust="spacingAndGlyphs" textLength="126" x="98" y="1853.041">P: payment-product</text><text font-family="sans-serif" font-size="13" lengthAdjust="spacingAndGlyphs" textLength="81" x="98" y="1868.352">P: paymentId</text><text font-family="sans-serif" font-size="13" lengthAdjust="spacingAndGlyphs" textLength="104" x="98" y="1883.662">H: Authorization</text><text font-family="sans-serif" font-size="13" lengthAdjust="spacingAndGlyphs" textLength="106" x="98" y="1898.973">H: X-Request-ID</text><text font-family="sans-serif" font-size="13" lengthAdjust="spacingAndGlyphs" textLength="63" x="98" y="1914.283">H: X-BicFi</text><path fill="#A80036" stroke="#a80036" d="M95.5 1953.025l-10 4 10 4-4-4z"/><path stroke="#a80036" stroke-dasharray="2,2" d="M89.5 1957.025h761"/><path fill="#FBFB77" stroke="#a80036" d="M732 1970.025h114v38H732z"/><text font-family="sans-serif" font-size="13" lengthAdjust="spacingAndGlyphs" textLength="61" x="736" y="1986.594">HTTP 200</text><text font-family="sans-serif" font-size="13" lengthAdjust="spacingAndGlyphs" textLength="106" x="736" y="2001.904">B: authorisations</text><path fill="#A80036" stroke="#a80036" d="M834.5 2071.268l10 4-10 4 4-4z"/><path stroke="#a80036" d="M89.5 2075.268h751"/><text font-family="sans-serif" font-size="13" font-weight="bold" lengthAdjust="spacingAndGlyphs" textLength="336" x="96.5" y="2055.215">Read the SCA Status of the payment authorisation</text><text font-family="sans-serif" font-size="13" lengthAdjust="spacingAndGlyphs" textLength="743" x="96.5" y="2070.525">GET /psd2/paymentinitiation/v1/{payment-service}/{payment-product}/{paymentId}/authorisations/{authorisationId}</text><path fill="#FBFB77" stroke="#a80036" d="M94 2088.268h134v115H94z"/><text font-family="sans-serif" font-size="13" lengthAdjust="spacingAndGlyphs" textLength="121" x="98" y="2104.836">P: payment-service</text><text font-family="sans-serif" font-size="13" lengthAdjust="spacingAndGlyphs" textLength="126" x="98" y="2120.146">P: payment-product</text><text font-family="sans-serif" font-size="13" lengthAdjust="spacingAndGlyphs" textLength="81" x="98" y="2135.457">P: paymentId</text><text font-family="sans-serif" font-size="13" lengthAdjust="spacingAndGlyphs" textLength="111" x="98" y="2150.768">P: authorisationId</text><text font-family="sans-serif" font-size="13" lengthAdjust="spacingAndGlyphs" textLength="104" x="98" y="2166.078">H: Authorization</text><text font-family="sans-serif" font-size="13" lengthAdjust="spacingAndGlyphs" textLength="106" x="98" y="2181.389">H: X-Request-ID</text><text font-family="sans-serif" font-size="13" lengthAdjust="spacingAndGlyphs" textLength="63" x="98" y="2196.699">H: X-BicFi</text><path fill="#A80036" stroke="#a80036" d="M95.5 2235.441l-10 4 10 4-4-4z"/><path stroke="#a80036" stroke-dasharray="2,2" d="M89.5 2239.441h761"/><path fill="#FBFB77" stroke="#a80036" d="M703 2252.441h143v38H703z"/><text font-family="sans-serif" font-size="13" lengthAdjust="spacingAndGlyphs" textLength="61" x="707" y="2269.01">HTTP 200</text><text font-family="sans-serif" font-size="13" lengthAdjust="spacingAndGlyphs" textLength="135" x="707" y="2284.32">B: scaStatusResponse</text><path fill="#A80036" stroke="#a80036" d="M834.5 2353.684l10 4-10 4 4-4z"/><path stroke="#a80036" d="M89.5 2357.684h751"/><text font-family="sans-serif" font-size="13" font-weight="bold" lengthAdjust="spacingAndGlyphs" textLength="263" x="96.5" y="2337.631">Update PSU data for payment initiation</text><text font-family="sans-serif" font-size="13" lengthAdjust="spacingAndGlyphs" textLength="743" x="96.5" y="2352.941">PUT /psd2/paymentinitiation/v1/{payment-service}/{payment-product}/{paymentId}/authorisations/{authorisationId}</text><path fill="#FBFB77" stroke="#a80036" d="M94 2370.684h222v130H94z"/><text font-family="sans-serif" font-size="13" lengthAdjust="spacingAndGlyphs" textLength="121" x="98" y="2387.252">P: payment-service</text><text font-family="sans-serif" font-size="13" lengthAdjust="spacingAndGlyphs" textLength="126" x="98" y="2402.563">P: payment-product</text><text font-family="sans-serif" font-size="13" lengthAdjust="spacingAndGlyphs" textLength="81" x="98" y="2417.873">P: paymentId</text><text font-family="sans-serif" font-size="13" lengthAdjust="spacingAndGlyphs" textLength="111" x="98" y="2433.184">P: authorisationId</text><text font-family="sans-serif" font-size="13" lengthAdjust="spacingAndGlyphs" textLength="104" x="98" y="2448.494">H: Authorization</text><text font-family="sans-serif" font-size="13" lengthAdjust="spacingAndGlyphs" textLength="106" x="98" y="2463.805">H: X-Request-ID</text><text font-family="sans-serif" font-size="13" lengthAdjust="spacingAndGlyphs" textLength="63" x="98" y="2479.115">H: X-BicFi</text><text font-family="sans-serif" font-size="13" lengthAdjust="spacingAndGlyphs" textLength="214" x="98" y="2494.426">B: selectPsuAuthenticationMethod</text><path fill="#A80036" stroke="#a80036" d="M100.5 2533.168l-10 4 10 4-4-4z"/><path stroke="#a80036" stroke-dasharray="2,2" d="M94.5 2537.168h756"/><path fill="#FBFB77" stroke="#a80036" d="M564 2550.168h282v53H564z"/><text font-family="sans-serif" font-size="13" lengthAdjust="spacingAndGlyphs" textLength="61" x="568" y="2566.736">HTTP 200</text><text font-family="sans-serif" font-size="13" lengthAdjust="spacingAndGlyphs" textLength="156" x="568" y="2582.047">H: ASPSP-SCA-Approach</text><text font-family="sans-serif" font-size="13" lengthAdjust="spacingAndGlyphs" textLength="274" x="568" y="2597.357">B: selectPsuAuthenticationMethodResponse</text><path d="M13 2616.1h62v7l-10 10H13v-17" fill="#EEE" stroke="#000"/><path fill="none" stroke="#000" stroke-width="2" d="M13 2616.1h1182.5v1699.096H13z"/><text font-family="sans-serif" font-size="13" font-weight="bold" lengthAdjust="spacingAndGlyphs" textLength="17" x="28" y="2629.668">alt</text><text font-family="sans-serif" font-size="11" font-weight="bold" lengthAdjust="spacingAndGlyphs" textLength="61" x="90" y="2628.734">[scaOAuth]</text><path stroke="#a80036" d="M89.5 2654.721h42m0 0v13m-41 0h41"/><path fill="#A80036" stroke="#a80036" d="M100.5 2663.72l-10 4 10 4-4-4z"/><text font-family="sans-serif" font-size="13" font-weight="bold" lengthAdjust="spacingAndGlyphs" textLength="540" x="96.5" y="2649.979">Process selectPsuAuthenticationMethodResponse._links.scaOAuth.href template</text><path fill="#A80036" stroke="#a80036" d="M1016.5 2708.342l10 4-10 4 4-4z"/><path stroke="#a80036" d="M89.5 2712.342h933"/><text font-family="sans-serif" font-size="13" font-weight="bold" lengthAdjust="spacingAndGlyphs" textLength="85" x="96.5" y="2692.289">Call authlink</text><text font-family="sans-serif" font-size="13" lengthAdjust="spacingAndGlyphs" textLength="151" x="96.5" y="2707.6">GET /connect/authorize</text><path fill="#FBFB77" stroke="#a80036" d="M94 2725.342h117v99H94z"/><text font-family="sans-serif" font-size="13" lengthAdjust="spacingAndGlyphs" textLength="72" x="98" y="2741.91">Q: client_id</text><text font-family="sans-serif" font-size="13" lengthAdjust="spacingAndGlyphs" textLength="55" x="98" y="2757.221">Q: scope</text><text font-family="sans-serif" font-size="13" lengthAdjust="spacingAndGlyphs" textLength="109" x="98" y="2772.531">Q: response_type</text><text font-family="sans-serif" font-size="13" lengthAdjust="spacingAndGlyphs" textLength="90" x="98" y="2787.842">Q: redirect_uri</text><text font-family="sans-serif" font-size="13" lengthAdjust="spacingAndGlyphs" textLength="49" x="98" y="2803.152">Q: state</text><text font-family="sans-serif" font-size="13" lengthAdjust="spacingAndGlyphs" textLength="84" x="98" y="2818.463">Q: acr_values</text><path fill="#A80036" stroke="#a80036" d="M100.5 2847.516l-10 4 10 4-4-4z"/><path stroke="#a80036" stroke-dasharray="2,2" d="M94.5 2851.516h938"/><text font-family="sans-serif" font-size="13" font-weight="bold" lengthAdjust="spacingAndGlyphs" textLength="117" x="106.5" y="2846.773">Redirect to ASPSP</text><path fill="#A80036" stroke="#a80036" d="M1140.5 2876.826l10 4-10 4 4-4z"/><path stroke="#a80036" d="M89.5 2880.826h1057"/><text font-family="sans-serif" font-size="13" font-weight="bold" lengthAdjust="spacingAndGlyphs" textLength="159" x="96.5" y="2876.084">Follow authlink redirect</text><path fill="#A80036" stroke="#a80036" d="M1140.5 2906.137l10 4-10 4 4-4z"/><path stroke="#a80036" d="M44 2910.137h1102.5"/><text font-family="sans-serif" font-size="13" font-weight="bold" lengthAdjust="spacingAndGlyphs" textLength="260" x="51" y="2905.394">Start PSU authentication/authorization</text><path fill="#A80036" stroke="#a80036" d="M50 2963.447l-10 4 10 4-4-4z"/><path stroke="#a80036" d="M44 2967.447h1107.5"/><text font-family="sans-serif" font-size="13" font-weight="bold" lengthAdjust="spacingAndGlyphs" textLength="255" x="56" y="2962.705">End PSU authentication/authorization</text><path fill="#A80036" stroke="#a80036" d="M1049.5 2992.758l-10 4 10 4-4-4z"/><path stroke="#a80036" d="M1043.5 2996.758h113"/><text font-family="sans-serif" font-size="13" font-weight="bold" lengthAdjust="spacingAndGlyphs" textLength="76" x="1055.5" y="2992.016">Auth result</text><path fill="#A80036" stroke="#a80036" d="M100.5 3037.379l-10 4 10 4-4-4z"/><path stroke="#a80036" d="M94.5 3041.379h938"/><text font-family="sans-serif" font-size="13" font-weight="bold" lengthAdjust="spacingAndGlyphs" textLength="86" x="106.5" y="3021.326">TPP Callback</text><text font-family="sans-serif" font-size="13" lengthAdjust="spacingAndGlyphs" textLength="138" x="106.5" y="3036.637">GET [TPP Redirect URI]</text><path fill="#FBFB77" stroke="#a80036" d="M965 3054.379h63v53h-63z"/><text font-family="sans-serif" font-size="13" lengthAdjust="spacingAndGlyphs" textLength="48" x="969" y="3070.947">Q: code</text><text font-family="sans-serif" font-size="13" lengthAdjust="spacingAndGlyphs" textLength="55" x="969" y="3086.258">Q: scope</text><text font-family="sans-serif" font-size="13" lengthAdjust="spacingAndGlyphs" textLength="49" x="969" y="3101.568">Q: state</text><path fill="#A80036" stroke="#a80036" d="M1016.5 3145.932l10 4-10 4 4-4z"/><path stroke="#a80036" d="M89.5 3149.932h933"/><text font-family="sans-serif" font-size="13" font-weight="bold" lengthAdjust="spacingAndGlyphs" textLength="113" x="96.5" y="3129.879">Get OAuth token</text><text font-family="sans-serif" font-size="13" lengthAdjust="spacingAndGlyphs" textLength="136" x="96.5" y="3145.189">POST /connect/token</text><path fill="#FBFB77" stroke="#a80036" d="M94 3162.932h193v130H94z"/><text font-family="sans-serif" font-size="13" lengthAdjust="spacingAndGlyphs" textLength="99" x="98" y="3179.5">H: X-PaymentId</text><text font-family="sans-serif" font-size="13" lengthAdjust="spacingAndGlyphs" textLength="185" x="98" y="3194.811">H: X-PaymentAuthorisationId</text><text font-family="sans-serif" font-size="13" lengthAdjust="spacingAndGlyphs" textLength="69" x="98" y="3210.121">B: client_id</text><text font-family="sans-serif" font-size="13" lengthAdjust="spacingAndGlyphs" textLength="95" x="98" y="3225.432">B: client_secret</text><text font-family="sans-serif" font-size="13" lengthAdjust="spacingAndGlyphs" textLength="45" x="98" y="3240.742">B: code</text><text font-family="sans-serif" font-size="13" lengthAdjust="spacingAndGlyphs" textLength="87" x="98" y="3256.053">B: redirect_uri</text><text font-family="sans-serif" font-size="13" lengthAdjust="spacingAndGlyphs" textLength="82" x="98" y="3271.363">B: grant_type</text><text font-family="sans-serif" font-size="13" lengthAdjust="spacingAndGlyphs" textLength="52" x="98" y="3286.674">B: scope</text><path fill="#A80036" stroke="#a80036" d="M100.5 3325.416l-10 4 10 4-4-4z"/><path stroke="#a80036" stroke-dasharray="2,2" d="M94.5 3329.416h938"/><path fill="#FBFB77" stroke="#a80036" d="M920 3342.416h108v84H920z"/><text font-family="sans-serif" font-size="13" lengthAdjust="spacingAndGlyphs" textLength="61" x="924" y="3358.984">HTTP 200</text><text font-family="sans-serif" font-size="13" lengthAdjust="spacingAndGlyphs" textLength="100" x="924" y="3374.295">B: access_token</text><text font-family="sans-serif" font-size="13" lengthAdjust="spacingAndGlyphs" textLength="80" x="924" y="3389.606">B: expires_in</text><text font-family="sans-serif" font-size="13" lengthAdjust="spacingAndGlyphs" textLength="85" x="924" y="3404.916">B: token_type</text><text font-family="sans-serif" font-size="13" lengthAdjust="spacingAndGlyphs" textLength="52" x="924" y="3420.227">B: scope</text><path stroke="#000" stroke-dasharray="2,2" d="M13 3457.969h1182.5"/><text font-family="sans-serif" font-size="11" font-weight="bold" lengthAdjust="spacingAndGlyphs" textLength="72" x="18" y="3468.604">[scaRedirect]</text><path stroke="#a80036" d="M89.5 3493.234h42m0 0v13m-41 0h41"/><path fill="#A80036" stroke="#a80036" d="M100.5 3502.234l-10 4 10 4-4-4z"/><text font-family="sans-serif" font-size="13" font-weight="bold" lengthAdjust="spacingAndGlyphs" textLength="552" x="96.5" y="3488.492">Process selectPsuAuthenticationMethodResponse._links.scaRedirect.href template</text><path fill="#A80036" stroke="#a80036" d="M1016.5 3546.856l10 4-10 4 4-4z"/><path stroke="#a80036" d="M89.5 3550.856h933"/><text font-family="sans-serif" font-size="13" font-weight="bold" lengthAdjust="spacingAndGlyphs" textLength="85" x="96.5" y="3530.803">Call authlink</text><text font-family="sans-serif" font-size="13" lengthAdjust="spacingAndGlyphs" textLength="151" x="96.5" y="3546.113">GET /connect/authorize</text><path fill="#FBFB77" stroke="#a80036" d="M94 3563.856h117v99H94z"/><text font-family="sans-serif" font-size="13" lengthAdjust="spacingAndGlyphs" textLength="72" x="98" y="3580.424">Q: client_id</text><text font-family="sans-serif" font-size="13" lengthAdjust="spacingAndGlyphs" textLength="55" x="98" y="3595.734">Q: scope</text><text font-family="sans-serif" font-size="13" lengthAdjust="spacingAndGlyphs" textLength="109" x="98" y="3611.045">Q: response_type</text><text font-family="sans-serif" font-size="13" lengthAdjust="spacingAndGlyphs" textLength="90" x="98" y="3626.356">Q: redirect_uri</text><text font-family="sans-serif" font-size="13" lengthAdjust="spacingAndGlyphs" textLength="49" x="98" y="3641.666">Q: state</text><text font-family="sans-serif" font-size="13" lengthAdjust="spacingAndGlyphs" textLength="84" x="98" y="3656.977">Q: acr_values</text><path fill="#A80036" stroke="#a80036" d="M100.5 3686.03l-10 4 10 4-4-4z"/><path stroke="#a80036" stroke-dasharray="2,2" d="M94.5 3690.029h938"/><text font-family="sans-serif" font-size="13" font-weight="bold" lengthAdjust="spacingAndGlyphs" textLength="117" x="106.5" y="3685.287">Redirect to ASPSP</text><path fill="#A80036" stroke="#a80036" d="M1140.5 3715.34l10 4-10 4 4-4z"/><path stroke="#a80036" d="M89.5 3719.34h1057"/><text font-family="sans-serif" font-size="13" font-weight="bold" lengthAdjust="spacingAndGlyphs" textLength="159" x="96.5" y="3714.598">Follow authlink redirect</text><path fill="#A80036" stroke="#a80036" d="M1140.5 3744.65l10 4-10 4 4-4z"/><path stroke="#a80036" d="M44 3748.65h1102.5"/><text font-family="sans-serif" font-size="13" font-weight="bold" lengthAdjust="spacingAndGlyphs" textLength="260" x="51" y="3743.908">Start PSU authentication/authorization</text><path fill="#A80036" stroke="#a80036" d="M50 3801.96l-10 4 10 4-4-4z"/><path stroke="#a80036" d="M44 3805.961h1107.5"/><text font-family="sans-serif" font-size="13" font-weight="bold" lengthAdjust="spacingAndGlyphs" textLength="255" x="56" y="3801.219">End PSU authentication/authorization</text><path fill="#A80036" stroke="#a80036" d="M1049.5 3831.271l-10 4 10 4-4-4z"/><path stroke="#a80036" d="M1043.5 3835.271h113"/><text font-family="sans-serif" font-size="13" font-weight="bold" lengthAdjust="spacingAndGlyphs" textLength="76" x="1055.5" y="3830.529">Auth result</text><path fill="#A80036" stroke="#a80036" d="M95.5 3875.893l-10 4 10 4-4-4z"/><path stroke="#a80036" d="M89.5 3879.893h943"/><text font-family="sans-serif" font-size="13" font-weight="bold" lengthAdjust="spacingAndGlyphs" textLength="86" x="101.5" y="3859.84">TPP Callback</text><text font-family="sans-serif" font-size="13" lengthAdjust="spacingAndGlyphs" textLength="138" x="101.5" y="3875.15">GET [TPP Redirect URI]</text><path fill="#FBFB77" stroke="#a80036" d="M965 3892.893h63v38h-63z"/><text font-family="sans-serif" font-size="13" lengthAdjust="spacingAndGlyphs" textLength="55" x="969" y="3909.461">Q: scope</text><text font-family="sans-serif" font-size="13" lengthAdjust="spacingAndGlyphs" textLength="49" x="969" y="3924.771">Q: state</text><path stroke="#000" stroke-dasharray="2,2" d="M13 3962.514h1182.5"/><text font-family="sans-serif" font-size="11" font-weight="bold" lengthAdjust="spacingAndGlyphs" textLength="65" x="18" y="3973.148">[decoupled]</text><path d="M55 3983.469h74v7l-10 10H55v-17" fill="#EEE" stroke="#000"/><path fill="none" stroke="#000" stroke-width="2" d="M55 3983.469h892.5v299.727H55z"/><text font-family="sans-serif" font-size="13" font-weight="bold" lengthAdjust="spacingAndGlyphs" textLength="29" x="70" y="3997.037">loop</text><text font-family="sans-serif" font-size="11" font-weight="bold" lengthAdjust="spacingAndGlyphs" textLength="404" x="144" y="3996.104">[until scaStatusResponse.scaStatus = &quot;finalised&quot;, &quot;failed&quot; or &quot;exempted&quot;]</text><path fill="#A80036" stroke="#a80036" d="M834.5 4058.4l10 4-10 4 4-4z"/><path stroke="#a80036" d="M89.5 4062.4h751"/><text font-family="sans-serif" font-size="13" font-weight="bold" lengthAdjust="spacingAndGlyphs" textLength="336" x="96.5" y="4042.348">Read the SCA Status of the payment authorisation</text><text font-family="sans-serif" font-size="13" lengthAdjust="spacingAndGlyphs" textLength="743" x="96.5" y="4057.658">GET /psd2/paymentinitiation/v1/{payment-service}/{payment-product}/{paymentId}/authorisations/{authorisationId}</text><path fill="#FBFB77" stroke="#a80036" d="M94 4075.4h134v115H94z"/><text font-family="sans-serif" font-size="13" lengthAdjust="spacingAndGlyphs" textLength="121" x="98" y="4091.969">P: payment-service</text><text font-family="sans-serif" font-size="13" lengthAdjust="spacingAndGlyphs" textLength="126" x="98" y="4107.279">P: payment-product</text><text font-family="sans-serif" font-size="13" lengthAdjust="spacingAndGlyphs" textLength="81" x="98" y="4122.59">P: paymentId</text><text font-family="sans-serif" font-size="13" lengthAdjust="spacingAndGlyphs" textLength="111" x="98" y="4137.9">P: authorisationId</text><text font-family="sans-serif" font-size="13" lengthAdjust="spacingAndGlyphs" textLength="104" x="98" y="4153.211">H: Authorization</text><text font-family="sans-serif" font-size="13" lengthAdjust="spacingAndGlyphs" textLength="106" x="98" y="4168.521">H: X-Request-ID</text><text font-family="sans-serif" font-size="13" lengthAdjust="spacingAndGlyphs" textLength="63" x="98" y="4183.832">H: X-BicFi</text><path fill="#A80036" stroke="#a80036" d="M95.5 4222.574l-10 4 10 4-4-4z"/><path stroke="#a80036" stroke-dasharray="2,2" d="M89.5 4226.574h761"/><path fill="#FBFB77" stroke="#a80036" d="M703 4239.574h143v38H703z"/><text font-family="sans-serif" font-size="13" lengthAdjust="spacingAndGlyphs" textLength="61" x="707" y="4256.143">HTTP 200</text><text font-family="sans-serif" font-size="13" lengthAdjust="spacingAndGlyphs" textLength="135" x="707" y="4271.453">B: scaStatusResponse</text></svg>