<svg xmlns="http://www.w3.org/2000/svg" height="4557" preserveAspectRatio="none" style="width:1207px;height:4557px" viewBox="0 0 1207 4557" width="1207"><text font-family="sans-serif" font-size="14" font-weight="bold" lengthAdjust="spacingAndGlyphs" textLength="189" x="509.75" y="23.535">Payment Initiation Service</text><path fill="#FFF" stroke="#fff" d="M34 3032.621h10v8H34z"/><path stroke="#a80036" d="M34 3032.621v8m10-8v8m-10-8h10"/><path fill="#FFF" stroke="#fff" d="M34 3068.621h10v21.311H34z"/><path stroke="#a80036" d="M34 3068.621v21.311m10-21.311v21.311m-10 0h10"/><path fill="#FFF" stroke="#fff" d="M34 3871.135h10v8H34z"/><path stroke="#a80036" d="M34 3871.135v8m10-8v8m-10-8h10"/><path fill="#FFF" stroke="#fff" d="M34 3907.135h10v21.311H34z"/><path stroke="#a80036" d="M34 3907.135v21.31m10-21.31v21.31m-10 0h10"/><path fill="#FFF" stroke="#a80036" d="M79.5 159.598h10V277.84h-10zm0 282.416h10v164.174h-10zm0 297.726h10v148.863h-10zm0 282.416h10v148.863h-10zm0 282.416h10v148.863h-10zm0 282.416h10v148.863h-10zm0 297.727h10v148.863h-10zm0 282.416h10v164.174h-10z"/><path fill="#FFF" stroke="#fff" d="M79.5 2464.857h10v575.764h-10z"/><path stroke="#a80036" d="M79.5 2464.857v575.764m10-575.764v575.764m-10-575.764h10"/><path fill="#FFF" stroke="#fff" d="M79.5 3068.621h10v810.514h-10z"/><path stroke="#a80036" d="M79.5 3068.621v810.514m10-810.514v810.514"/><path fill="#FFF" stroke="#fff" d="M79.5 3907.135h10v95.242h-10z"/><path stroke="#a80036" d="M79.5 3907.135v95.242m10-95.242v95.242m-10 0h10"/><path fill="#FFF" stroke="#a80036" d="M79.5 4184.885h10v164.174h-10zm767-3742.871h10v164.174h-10zm0 297.726h10v148.863h-10zm0 282.416h10v148.863h-10zm0 282.416h10v148.863h-10zm0 282.416h10v148.863h-10zm0 297.727h10v148.863h-10zm0 282.416h10v164.174h-10zm0 297.726h10v179.484h-10zm0 1720.028h10v164.174h-10zm182-4025.287h10V277.84h-10zm0 2675.228h10V2974h-10zm0 284.416h10v44.621h-10zm0 153.174h10V3451.9h-10zm0 400.924h10v139.174h-10zm0 284.416h10v44.621h-10z"/><path fill="#FFF" stroke="#fff" d="M1152.5 3003.311h10v37.31h-10z"/><path stroke="#a80036" d="M1152.5 3003.311v37.31m10-37.31v37.31m-10-37.31h10"/><path fill="#FFF" stroke="#fff" d="M1152.5 3068.621h10v50.621h-10z"/><path stroke="#a80036" d="M1152.5 3068.621v50.621m10-50.621v50.621m-10 0h10"/><path fill="#FFF" stroke="#fff" d="M1152.5 3841.824h10v37.31h-10z"/><path stroke="#a80036" d="M1152.5 3841.824v37.311m10-37.311v37.311m-10-37.311h10"/><path fill="#FFF" stroke="#fff" d="M1152.5 3907.135h10v50.621h-10z"/><path stroke="#a80036" d="M1152.5 3907.135v50.621m10-50.621v50.621m-10 0h10"/><path fill="#FFF" stroke="#000" stroke-width="2" d="M13 2738.584h1182.5V4452.99H13z"/><path fill="#FFF" d="M13 3579.453h1182.5v504.545H13zm0 504.545h1182.5v368.992H13z"/><path fill="#FFF" stroke="#000" stroke-width="2" d="M55 4105.953h892.5v315.037H55z"/><path stroke="#a80036" d="M39 112.977v2927.644"/><path stroke="#a80036" stroke-dasharray="1,4" d="M39 3040.621v28"/><path stroke="#a80036" d="M39 3068.621v810.514"/><path stroke="#a80036" stroke-dasharray="1,4" d="M39 3879.135v28"/><path stroke="#a80036" d="M39 3907.135v562.855M84 112.977v2927.644"/><path stroke="#a80036" stroke-dasharray="1,4" d="M84 3040.621v28"/><path stroke="#a80036" d="M84 3068.621v810.514"/><path stroke="#a80036" stroke-dasharray="1,4" d="M84 3879.135v28"/><path stroke="#a80036" d="M84 3907.135v562.855M851.5 112.977v2927.644"/><path stroke="#a80036" stroke-dasharray="1,4" d="M851.5 3040.621v28"/><path stroke="#a80036" d="M851.5 3068.621v810.514"/><path stroke="#a80036" stroke-dasharray="1,4" d="M851.5 3879.135v28"/><path stroke="#a80036" d="M851.5 3907.135v562.855m182-4357.013v2927.644"/><path stroke="#a80036" stroke-dasharray="1,4" d="M1033.5 3040.621v28"/><path stroke="#a80036" d="M1033.5 3068.621v810.514"/><path stroke="#a80036" stroke-dasharray="1,4" d="M1033.5 3879.135v28"/><path stroke="#a80036" d="M1033.5 3907.135v562.855m124-4357.013v2927.644"/><path stroke="#a80036" stroke-dasharray="1,4" d="M1157.5 3040.621v28"/><path stroke="#a80036" d="M1157.5 3068.621v810.514"/><path stroke="#a80036" stroke-dasharray="1,4" d="M1157.5 3879.135v28"/><path stroke="#a80036" d="M1157.5 3907.135v562.855"/><text font-family="sans-serif" font-size="14" lengthAdjust="spacingAndGlyphs" textLength="26" x="23" y="110.023">PSU</text><circle cx="39" cy="43.488" fill="#FEFECE" stroke="#a80036" stroke-width="2" r="8"/><path d="M39 51.488v27m-13-19h26m-13 19l-13 15m13-15l13 15" fill="none" stroke="#a80036" stroke-width="2"/><text font-family="sans-serif" font-size="14" lengthAdjust="spacingAndGlyphs" textLength="26" x="23" y="4482.525">PSU</text><circle cx="39" cy="4495.479" fill="#FEFECE" stroke="#a80036" stroke-width="2" r="8"/><path d="M39 4503.479v27m-13-19h26m-13 19l-13 15m13-15l13 15" fill="none" stroke="#a80036" stroke-width="2"/><path fill="#FEFECE" stroke="#a80036" stroke-width="1.5" d="M65 81.488h39v30.488H65z"/><text font-family="sans-serif" font-size="14" lengthAdjust="spacingAndGlyphs" textLength="25" x="72" y="102.023">TPP</text><path fill="#FEFECE" stroke="#a80036" stroke-width="1.5" d="M65 4468.99h39v30.488H65z"/><text font-family="sans-serif" font-size="14" lengthAdjust="spacingAndGlyphs" textLength="25" x="72" y="4489.525">TPP</text><path fill="#FEFECE" stroke="#a80036" stroke-width="1.5" d="M765.5 65h172v46.977h-172z"/><text font-family="sans-serif" font-size="14" lengthAdjust="spacingAndGlyphs" textLength="158" x="772.5" y="85.535">Open Banking Platform</text><text font-family="sans-serif" font-size="14" lengthAdjust="spacingAndGlyphs" textLength="22" x="840.5" y="102.023">API</text><path fill="#FEFECE" stroke="#a80036" stroke-width="1.5" d="M765.5 4468.99h172v46.977h-172z"/><text font-family="sans-serif" font-size="14" lengthAdjust="spacingAndGlyphs" textLength="158" x="772.5" y="4489.525">Open Banking Platform</text><text font-family="sans-serif" font-size="14" lengthAdjust="spacingAndGlyphs" textLength="22" x="840.5" y="4506.014">API</text><path fill="#FEFECE" stroke="#a80036" stroke-width="1.5" d="M947.5 65h172v46.977h-172z"/><text font-family="sans-serif" font-size="14" lengthAdjust="spacingAndGlyphs" textLength="158" x="954.5" y="85.535">Open Banking Platform</text><text font-family="sans-serif" font-size="14" lengthAdjust="spacingAndGlyphs" textLength="33" x="1017" y="102.023">Auth</text><path fill="#FEFECE" stroke="#a80036" stroke-width="1.5" d="M947.5 4468.99h172v46.977h-172z"/><text font-family="sans-serif" font-size="14" lengthAdjust="spacingAndGlyphs" textLength="158" x="954.5" y="4489.525">Open Banking Platform</text><text font-family="sans-serif" font-size="14" lengthAdjust="spacingAndGlyphs" textLength="33" x="1017" y="4506.014">Auth</text><path fill="#FEFECE" stroke="#a80036" stroke-width="1.5" d="M1129.5 81.488h56v30.488h-56z"/><text font-family="sans-serif" font-size="14" lengthAdjust="spacingAndGlyphs" textLength="42" x="1136.5" y="102.023">ASPSP</text><path fill="#FEFECE" stroke="#a80036" stroke-width="1.5" d="M1129.5 4468.99h56v30.488h-56z"/><text font-family="sans-serif" font-size="14" lengthAdjust="spacingAndGlyphs" textLength="42" x="1136.5" y="4489.525">ASPSP</text><path fill="#FFF" stroke="#fff" d="M34 3032.621h10v8H34z"/><path stroke="#a80036" d="M34 3032.621v8m10-8v8m-10-8h10"/><path fill="#FFF" stroke="#fff" d="M34 3068.621h10v21.311H34z"/><path stroke="#a80036" d="M34 3068.621v21.311m10-21.311v21.311m-10 0h10"/><path fill="#FFF" stroke="#fff" d="M34 3871.135h10v8H34z"/><path stroke="#a80036" d="M34 3871.135v8m10-8v8m-10-8h10"/><path fill="#FFF" stroke="#fff" d="M34 3907.135h10v21.311H34z"/><path stroke="#a80036" d="M34 3907.135v21.31m10-21.31v21.31m-10 0h10"/><path fill="#FFF" stroke="#a80036" d="M79.5 159.598h10V277.84h-10zm0 282.416h10v164.174h-10zm0 297.726h10v148.863h-10zm0 282.416h10v148.863h-10zm0 282.416h10v148.863h-10zm0 282.416h10v148.863h-10zm0 297.727h10v148.863h-10zm0 282.416h10v164.174h-10z"/><path fill="#FFF" stroke="#fff" d="M79.5 2464.857h10v575.764h-10z"/><path stroke="#a80036" d="M79.5 2464.857v575.764m10-575.764v575.764m-10-575.764h10"/><path fill="#FFF" stroke="#fff" d="M79.5 3068.621h10v810.514h-10z"/><path stroke="#a80036" d="M79.5 3068.621v810.514m10-810.514v810.514"/><path fill="#FFF" stroke="#fff" d="M79.5 3907.135h10v95.242h-10z"/><path stroke="#a80036" d="M79.5 3907.135v95.242m10-95.242v95.242m-10 0h10"/><path fill="#FFF" stroke="#a80036" d="M79.5 4184.885h10v164.174h-10zm767-3742.871h10v164.174h-10zm0 297.726h10v148.863h-10zm0 282.416h10v148.863h-10zm0 282.416h10v148.863h-10zm0 282.416h10v148.863h-10zm0 297.727h10v148.863h-10zm0 282.416h10v164.174h-10zm0 297.726h10v179.484h-10zm0 1720.028h10v164.174h-10zm182-4025.287h10V277.84h-10zm0 2675.228h10V2974h-10zm0 284.416h10v44.621h-10zm0 153.174h10V3451.9h-10zm0 400.924h10v139.174h-10zm0 284.416h10v44.621h-10z"/><path fill="#FFF" stroke="#fff" d="M1152.5 3003.311h10v37.31h-10z"/><path stroke="#a80036" d="M1152.5 3003.311v37.31m10-37.31v37.31m-10-37.31h10"/><path fill="#FFF" stroke="#fff" d="M1152.5 3068.621h10v50.621h-10z"/><path stroke="#a80036" d="M1152.5 3068.621v50.621m10-50.621v50.621m-10 0h10"/><path fill="#FFF" stroke="#fff" d="M1152.5 3841.824h10v37.31h-10z"/><path stroke="#a80036" d="M1152.5 3841.824v37.311m10-37.311v37.311m-10-37.311h10"/><path fill="#FFF" stroke="#fff" d="M1152.5 3907.135h10v50.621h-10z"/><path stroke="#a80036" d="M1152.5 3907.135v50.621m10-50.621v50.621m-10 0h10"/><path fill="#A80036" stroke="#a80036" d="M1016.5 155.598l10 4-10 4 4-4z"/><path stroke="#a80036" d="M89.5 159.598h933"/><text font-family="sans-serif" font-size="13" font-weight="bold" lengthAdjust="spacingAndGlyphs" textLength="69" x="96.5" y="139.545">Get Token</text><text font-family="sans-serif" font-size="13" lengthAdjust="spacingAndGlyphs" textLength="136" x="96.5" y="154.856">POST /connect/token</text><path fill="#FBFB77" stroke="#a80036" d="M94 172.598h103v69H94z"/><text font-family="sans-serif" font-size="13" lengthAdjust="spacingAndGlyphs" textLength="69" x="98" y="189.166">B: client_id</text><text font-family="sans-serif" font-size="13" lengthAdjust="spacingAndGlyphs" textLength="95" x="98" y="204.477">B: client_secret</text><text font-family="sans-serif" font-size="13" lengthAdjust="spacingAndGlyphs" textLength="82" x="98" y="219.787">B: grant_type</text><text font-family="sans-serif" font-size="13" lengthAdjust="spacingAndGlyphs" textLength="52" x="98" y="235.098">B: scope</text><path fill="#A80036" stroke="#a80036" d="M95.5 273.84l-10 4 10 4-4-4z"/><path stroke="#a80036" stroke-dasharray="2,2" d="M89.5 277.84h943"/><path fill="#FBFB77" stroke="#a80036" d="M920 290.84h108v84H920z"/><text font-family="sans-serif" font-size="13" lengthAdjust="spacingAndGlyphs" textLength="61" x="924" y="307.408">HTTP 200</text><text font-family="sans-serif" font-size="13" lengthAdjust="spacingAndGlyphs" textLength="100" x="924" y="322.719">B: access_token</text><text font-family="sans-serif" font-size="13" lengthAdjust="spacingAndGlyphs" textLength="80" x="924" y="338.029">B: expires_in</text><text font-family="sans-serif" font-size="13" lengthAdjust="spacingAndGlyphs" textLength="85" x="924" y="353.34">B: token_type</text><text font-family="sans-serif" font-size="13" lengthAdjust="spacingAndGlyphs" textLength="52" x="924" y="368.65">B: scope</text><path fill="#A80036" stroke="#a80036" d="M834.5 438.014l10 4-10 4 4-4z"/><path stroke="#a80036" d="M89.5 442.014h751"/><text font-family="sans-serif" font-size="13" font-weight="bold" lengthAdjust="spacingAndGlyphs" textLength="171" x="96.5" y="421.961">Create Payment Initiation</text><text font-family="sans-serif" font-size="13" lengthAdjust="spacingAndGlyphs" textLength="461" x="96.5" y="437.272">POST /psd2/paymentinitiation/v1/{payment-service}/{payment-product}</text><path fill="#FBFB77" stroke="#a80036" d="M94 455.014h168v115H94z"/><text font-family="sans-serif" font-size="13" lengthAdjust="spacingAndGlyphs" textLength="121" x="98" y="471.582">P: payment-service</text><text font-family="sans-serif" font-size="13" lengthAdjust="spacingAndGlyphs" textLength="126" x="98" y="486.893">P: payment-product</text><text font-family="sans-serif" font-size="13" lengthAdjust="spacingAndGlyphs" textLength="104" x="98" y="502.203">H: Authorization</text><text font-family="sans-serif" font-size="13" lengthAdjust="spacingAndGlyphs" textLength="106" x="98" y="517.514">H: X-Request-ID</text><text font-family="sans-serif" font-size="13" lengthAdjust="spacingAndGlyphs" textLength="119" x="98" y="532.824">H: PSU-IP-Address</text><text font-family="sans-serif" font-size="13" lengthAdjust="spacingAndGlyphs" textLength="63" x="98" y="548.135">H: X-BicFi</text><text font-family="sans-serif" font-size="13" lengthAdjust="spacingAndGlyphs" textLength="160" x="98" y="563.445">B: paymentInitiation_json</text><path fill="#A80036" stroke="#a80036" d="M95.5 602.188l-10 4 10 4-4-4z"/><path stroke="#a80036" stroke-dasharray="2,2" d="M89.5 606.188h761"/><path fill="#FBFB77" stroke="#a80036" d="M574 619.188h272v53H574z"/><text font-family="sans-serif" font-size="13" lengthAdjust="spacingAndGlyphs" textLength="61" x="578" y="635.756">HTTP 201</text><text font-family="sans-serif" font-size="13" lengthAdjust="spacingAndGlyphs" textLength="106" x="578" y="651.066">H: X-Request-ID</text><text font-family="sans-serif" font-size="13" lengthAdjust="spacingAndGlyphs" textLength="264" x="578" y="666.377">B: paymentInitationRequestResponse-201</text><path fill="#A80036" stroke="#a80036" d="M834.5 735.74l10 4-10 4 4-4z"/><path stroke="#a80036" d="M89.5 739.74h751"/><text font-family="sans-serif" font-size="13" font-weight="bold" lengthAdjust="spacingAndGlyphs" textLength="150" x="96.5" y="719.688">Get Payment Initiation</text><text font-family="sans-serif" font-size="13" lengthAdjust="spacingAndGlyphs" textLength="534" x="96.5" y="734.998">GET /psd2/paymentinitiation/v1/{payment-service}/{payment-product}/{paymentId}</text><path fill="#FBFB77" stroke="#a80036" d="M94 752.74h134v99H94z"/><text font-family="sans-serif" font-size="13" lengthAdjust="spacingAndGlyphs" textLength="121" x="98" y="769.309">P: payment-service</text><text font-family="sans-serif" font-size="13" lengthAdjust="spacingAndGlyphs" textLength="126" x="98" y="784.619">P: payment-product</text><text font-family="sans-serif" font-size="13" lengthAdjust="spacingAndGlyphs" textLength="81" x="98" y="799.93">P: paymentId</text><text font-family="sans-serif" font-size="13" lengthAdjust="spacingAndGlyphs" textLength="104" x="98" y="815.24">H: Authorization</text><text font-family="sans-serif" font-size="13" lengthAdjust="spacingAndGlyphs" textLength="106" x="98" y="830.551">H: X-Request-ID</text><text font-family="sans-serif" font-size="13" lengthAdjust="spacingAndGlyphs" textLength="63" x="98" y="845.861">H: X-BicFi</text><path fill="#A80036" stroke="#a80036" d="M95.5 884.604l-10 4 10 4-4-4z"/><path stroke="#a80036" stroke-dasharray="2,2" d="M89.5 888.604h761"/><path fill="#FBFB77" stroke="#a80036" d="M585 901.604h261v53H585z"/><text font-family="sans-serif" font-size="13" lengthAdjust="spacingAndGlyphs" textLength="61" x="589" y="918.172">HTTP 200</text><text font-family="sans-serif" font-size="13" lengthAdjust="spacingAndGlyphs" textLength="106" x="589" y="933.482">H: X-Request-ID</text><text font-family="sans-serif" font-size="13" lengthAdjust="spacingAndGlyphs" textLength="253" x="589" y="948.793">B: paymentInitiationWithStatusResponse</text><path fill="#A80036" stroke="#a80036" d="M834.5 1018.156l10 4-10 4 4-4z"/><path stroke="#a80036" d="M89.5 1022.156h751"/><text font-family="sans-serif" font-size="13" font-weight="bold" lengthAdjust="spacingAndGlyphs" textLength="172" x="96.5" y="1002.104">Cancel Payment Initiation</text><text font-family="sans-serif" font-size="13" lengthAdjust="spacingAndGlyphs" textLength="556" x="96.5" y="1017.414">DELETE /psd2/paymentinitiation/v1/{payment-service}/{payment-product}/{paymentId}</text><path fill="#FBFB77" stroke="#a80036" d="M94 1035.156h134v99H94z"/><text font-family="sans-serif" font-size="13" lengthAdjust="spacingAndGlyphs" textLength="121" x="98" y="1051.725">P: payment-service</text><text font-family="sans-serif" font-size="13" lengthAdjust="spacingAndGlyphs" textLength="126" x="98" y="1067.035">P: payment-product</text><text font-family="sans-serif" font-size="13" lengthAdjust="spacingAndGlyphs" textLength="81" x="98" y="1082.346">P: paymentId</text><text font-family="sans-serif" font-size="13" lengthAdjust="spacingAndGlyphs" textLength="104" x="98" y="1097.656">H: Authorization</text><text font-family="sans-serif" font-size="13" lengthAdjust="spacingAndGlyphs" textLength="106" x="98" y="1112.967">H: X-Request-ID</text><text font-family="sans-serif" font-size="13" lengthAdjust="spacingAndGlyphs" textLength="63" x="98" y="1128.277">H: X-BicFi</text><path fill="#A80036" stroke="#a80036" d="M95.5 1167.02l-10 4 10 4-4-4z"/><path stroke="#a80036" stroke-dasharray="2,2" d="M89.5 1171.02h761"/><path fill="#FBFB77" stroke="#a80036" d="M578 1184.02h268v53H578z"/><text font-family="sans-serif" font-size="13" lengthAdjust="spacingAndGlyphs" textLength="61" x="582" y="1200.588">HTTP 202</text><text font-family="sans-serif" font-size="13" lengthAdjust="spacingAndGlyphs" textLength="106" x="582" y="1215.898">H: X-Request-ID</text><text font-family="sans-serif" font-size="13" lengthAdjust="spacingAndGlyphs" textLength="260" x="582" y="1231.209">B: paymentInitiationCancelResponse-202</text><path fill="#A80036" stroke="#a80036" d="M834.5 1300.572l10 4-10 4 4-4z"/><path stroke="#a80036" d="M89.5 1304.572h751"/><text font-family="sans-serif" font-size="13" font-weight="bold" lengthAdjust="spacingAndGlyphs" textLength="195" x="96.5" y="1284.52">Get Payment Initiation Status</text><text font-family="sans-serif" font-size="13" lengthAdjust="spacingAndGlyphs" textLength="580" x="96.5" y="1299.83">GET /psd2/paymentinitiation/v1/{payment-service}/{payment-product}/{paymentId}/status</text><path fill="#FBFB77" stroke="#a80036" d="M94 1317.572h134v99H94z"/><text font-family="sans-serif" font-size="13" lengthAdjust="spacingAndGlyphs" textLength="121" x="98" y="1334.141">P: payment-service</text><text font-family="sans-serif" font-size="13" lengthAdjust="spacingAndGlyphs" textLength="126" x="98" y="1349.451">P: payment-product</text><text font-family="sans-serif" font-size="13" lengthAdjust="spacingAndGlyphs" textLength="81" x="98" y="1364.762">P: paymentId</text><text font-family="sans-serif" font-size="13" lengthAdjust="spacingAndGlyphs" textLength="104" x="98" y="1380.072">H: Authorization</text><text font-family="sans-serif" font-size="13" lengthAdjust="spacingAndGlyphs" textLength="106" x="98" y="1395.383">H: X-Request-ID</text><text font-family="sans-serif" font-size="13" lengthAdjust="spacingAndGlyphs" textLength="63" x="98" y="1410.693">H: X-BicFi</text><path fill="#A80036" stroke="#a80036" d="M95.5 1449.436l-10 4 10 4-4-4z"/><path stroke="#a80036" stroke-dasharray="2,2" d="M89.5 1453.436h761"/><path fill="#FBFB77" stroke="#a80036" d="M547 1466.436h299v53H547z"/><text font-family="sans-serif" font-size="13" lengthAdjust="spacingAndGlyphs" textLength="61" x="551" y="1483.004">HTTP 200</text><text font-family="sans-serif" font-size="13" lengthAdjust="spacingAndGlyphs" textLength="106" x="551" y="1498.314">H: X-Request-ID</text><text font-family="sans-serif" font-size="13" lengthAdjust="spacingAndGlyphs" textLength="291" x="551" y="1513.625">B: paymentInitiationStatusResponse-200_json</text><path fill="#A80036" stroke="#a80036" d="M834.5 1582.988l10 4-10 4 4-4z"/><path stroke="#a80036" d="M89.5 1586.988h751"/><text font-family="sans-serif" font-size="13" font-weight="bold" lengthAdjust="spacingAndGlyphs" textLength="309" x="96.5" y="1566.936">Start Payment Initiation Authorisation Process</text><text font-family="sans-serif" font-size="13" lengthAdjust="spacingAndGlyphs" textLength="640" x="96.5" y="1582.246">POST /psd2/paymentinitiation/v1/{payment-service}/{payment-product}/{paymentId}/authorisations</text><path fill="#FBFB77" stroke="#a80036" d="M94 1599.988h134v99H94z"/><text font-family="sans-serif" font-size="13" lengthAdjust="spacingAndGlyphs" textLength="121" x="98" y="1616.557">P: payment-service</text><text font-family="sans-serif" font-size="13" lengthAdjust="spacingAndGlyphs" textLength="126" x="98" y="1631.867">P: payment-product</text><text font-family="sans-serif" font-size="13" lengthAdjust="spacingAndGlyphs" textLength="81" x="98" y="1647.178">P: paymentId</text><text font-family="sans-serif" font-size="13" lengthAdjust="spacingAndGlyphs" textLength="104" x="98" y="1662.488">H: Authorization</text><text font-family="sans-serif" font-size="13" lengthAdjust="spacingAndGlyphs" textLength="106" x="98" y="1677.799">H: X-Request-ID</text><text font-family="sans-serif" font-size="13" lengthAdjust="spacingAndGlyphs" textLength="63" x="98" y="1693.109">H: X-BicFi</text><path fill="#A80036" stroke="#a80036" d="M95.5 1731.852l-10 4 10 4-4-4z"/><path stroke="#a80036" stroke-dasharray="2,2" d="M89.5 1735.852h761"/><path fill="#FBFB77" stroke="#a80036" d="M664 1748.852h182v69H664z"/><text font-family="sans-serif" font-size="13" lengthAdjust="spacingAndGlyphs" textLength="61" x="668" y="1765.42">HTTP 201</text><text font-family="sans-serif" font-size="13" lengthAdjust="spacingAndGlyphs" textLength="106" x="668" y="1780.73">H: X-Request-ID</text><text font-family="sans-serif" font-size="13" lengthAdjust="spacingAndGlyphs" textLength="156" x="668" y="1796.041">H: ASPSP-SCA-Approach</text><text font-family="sans-serif" font-size="13" lengthAdjust="spacingAndGlyphs" textLength="174" x="668" y="1811.352">B: startScaprocessResponse</text><path fill="#A80036" stroke="#a80036" d="M834.5 1880.715l10 4-10 4 4-4z"/><path stroke="#a80036" d="M89.5 1884.715h751"/><text font-family="sans-serif" font-size="13" font-weight="bold" lengthAdjust="spacingAndGlyphs" textLength="352" x="96.5" y="1864.662">Get Payment Initiation Authorisation Sub-Resources</text><text font-family="sans-serif" font-size="13" lengthAdjust="spacingAndGlyphs" textLength="632" x="96.5" y="1879.973">GET /psd2/paymentinitiation/v1/{payment-service}/{payment-product}/{paymentId}/authorisations</text><path fill="#FBFB77" stroke="#a80036" d="M94 1897.715h134v99H94z"/><text font-family="sans-serif" font-size="13" lengthAdjust="spacingAndGlyphs" textLength="121" x="98" y="1914.283">P: payment-service</text><text font-family="sans-serif" font-size="13" lengthAdjust="spacingAndGlyphs" textLength="126" x="98" y="1929.594">P: payment-product</text><text font-family="sans-serif" font-size="13" lengthAdjust="spacingAndGlyphs" textLength="81" x="98" y="1944.904">P: paymentId</text><text font-family="sans-serif" font-size="13" lengthAdjust="spacingAndGlyphs" textLength="104" x="98" y="1960.215">H: Authorization</text><text font-family="sans-serif" font-size="13" lengthAdjust="spacingAndGlyphs" textLength="106" x="98" y="1975.525">H: X-Request-ID</text><text font-family="sans-serif" font-size="13" lengthAdjust="spacingAndGlyphs" textLength="63" x="98" y="1990.836">H: X-BicFi</text><path fill="#A80036" stroke="#a80036" d="M95.5 2029.578l-10 4 10 4-4-4z"/><path stroke="#a80036" stroke-dasharray="2,2" d="M89.5 2033.578h761"/><path fill="#FBFB77" stroke="#a80036" d="M732 2046.578h114v53H732z"/><text font-family="sans-serif" font-size="13" lengthAdjust="spacingAndGlyphs" textLength="61" x="736" y="2063.146">HTTP 200</text><text font-family="sans-serif" font-size="13" lengthAdjust="spacingAndGlyphs" textLength="106" x="736" y="2078.457">H: X-Request-ID</text><text font-family="sans-serif" font-size="13" lengthAdjust="spacingAndGlyphs" textLength="106" x="736" y="2093.768">B: authorisations</text><path fill="#A80036" stroke="#a80036" d="M834.5 2163.13l10 4-10 4 4-4z"/><path stroke="#a80036" d="M89.5 2167.131h751"/><text font-family="sans-serif" font-size="13" font-weight="bold" lengthAdjust="spacingAndGlyphs" textLength="321" x="96.5" y="2147.078">Get Payment Initiation Authorisation SCA Status</text><text font-family="sans-serif" font-size="13" lengthAdjust="spacingAndGlyphs" textLength="743" x="96.5" y="2162.389">GET /psd2/paymentinitiation/v1/{payment-service}/{payment-product}/{paymentId}/authorisations/{authorisationId}</text><path fill="#FBFB77" stroke="#a80036" d="M94 2180.131h134v115H94z"/><text font-family="sans-serif" font-size="13" lengthAdjust="spacingAndGlyphs" textLength="121" x="98" y="2196.699">P: payment-service</text><text font-family="sans-serif" font-size="13" lengthAdjust="spacingAndGlyphs" textLength="126" x="98" y="2212.01">P: payment-product</text><text font-family="sans-serif" font-size="13" lengthAdjust="spacingAndGlyphs" textLength="81" x="98" y="2227.32">P: paymentId</text><text font-family="sans-serif" font-size="13" lengthAdjust="spacingAndGlyphs" textLength="111" x="98" y="2242.631">P: authorisationId</text><text font-family="sans-serif" font-size="13" lengthAdjust="spacingAndGlyphs" textLength="104" x="98" y="2257.941">H: Authorization</text><text font-family="sans-serif" font-size="13" lengthAdjust="spacingAndGlyphs" textLength="106" x="98" y="2273.252">H: X-Request-ID</text><text font-family="sans-serif" font-size="13" lengthAdjust="spacingAndGlyphs" textLength="63" x="98" y="2288.563">H: X-BicFi</text><path fill="#A80036" stroke="#a80036" d="M95.5 2327.305l-10 4 10 4-4-4z"/><path stroke="#a80036" stroke-dasharray="2,2" d="M89.5 2331.305h761"/><path fill="#FBFB77" stroke="#a80036" d="M703 2344.305h143v53H703z"/><text font-family="sans-serif" font-size="13" lengthAdjust="spacingAndGlyphs" textLength="61" x="707" y="2360.873">HTTP 200</text><text font-family="sans-serif" font-size="13" lengthAdjust="spacingAndGlyphs" textLength="106" x="707" y="2376.184">H: X-Request-ID</text><text font-family="sans-serif" font-size="13" lengthAdjust="spacingAndGlyphs" textLength="135" x="707" y="2391.494">B: scaStatusResponse</text><path fill="#A80036" stroke="#a80036" d="M834.5 2460.857l10 4-10 4 4-4z"/><path stroke="#a80036" d="M89.5 2464.857h751"/><text font-family="sans-serif" font-size="13" font-weight="bold" lengthAdjust="spacingAndGlyphs" textLength="263" x="96.5" y="2444.805">Update PSU Data for Payment Initiation</text><text font-family="sans-serif" font-size="13" lengthAdjust="spacingAndGlyphs" textLength="743" x="96.5" y="2460.115">PUT /psd2/paymentinitiation/v1/{payment-service}/{payment-product}/{paymentId}/authorisations/{authorisationId}</text><path fill="#FBFB77" stroke="#a80036" d="M94 2477.857h222v130H94z"/><text font-family="sans-serif" font-size="13" lengthAdjust="spacingAndGlyphs" textLength="121" x="98" y="2494.426">P: payment-service</text><text font-family="sans-serif" font-size="13" lengthAdjust="spacingAndGlyphs" textLength="126" x="98" y="2509.736">P: payment-product</text><text font-family="sans-serif" font-size="13" lengthAdjust="spacingAndGlyphs" textLength="81" x="98" y="2525.047">P: paymentId</text><text font-family="sans-serif" font-size="13" lengthAdjust="spacingAndGlyphs" textLength="111" x="98" y="2540.357">P: authorisationId</text><text font-family="sans-serif" font-size="13" lengthAdjust="spacingAndGlyphs" textLength="104" x="98" y="2555.668">H: Authorization</text><text font-family="sans-serif" font-size="13" lengthAdjust="spacingAndGlyphs" textLength="106" x="98" y="2570.979">H: X-Request-ID</text><text font-family="sans-serif" font-size="13" lengthAdjust="spacingAndGlyphs" textLength="63" x="98" y="2586.289">H: X-BicFi</text><text font-family="sans-serif" font-size="13" lengthAdjust="spacingAndGlyphs" textLength="214" x="98" y="2601.6">B: selectPsuAuthenticationMethod</text><path fill="#A80036" stroke="#a80036" d="M100.5 2640.342l-10 4 10 4-4-4z"/><path stroke="#a80036" stroke-dasharray="2,2" d="M94.5 2644.342h756"/><path fill="#FBFB77" stroke="#a80036" d="M564 2657.342h282v69H564z"/><text font-family="sans-serif" font-size="13" lengthAdjust="spacingAndGlyphs" textLength="61" x="568" y="2673.91">HTTP 200</text><text font-family="sans-serif" font-size="13" lengthAdjust="spacingAndGlyphs" textLength="106" x="568" y="2689.221">H: X-Request-ID</text><text font-family="sans-serif" font-size="13" lengthAdjust="spacingAndGlyphs" textLength="156" x="568" y="2704.531">H: ASPSP-SCA-Approach</text><text font-family="sans-serif" font-size="13" lengthAdjust="spacingAndGlyphs" textLength="274" x="568" y="2719.842">B: selectPsuAuthenticationMethodResponse</text><path d="M13 2738.584h62v7l-10 10H13v-17" fill="#EEE" stroke="#000"/><path fill="none" stroke="#000" stroke-width="2" d="M13 2738.584h1182.5V4452.99H13z"/><text font-family="sans-serif" font-size="13" font-weight="bold" lengthAdjust="spacingAndGlyphs" textLength="17" x="28" y="2752.152">alt</text><text font-family="sans-serif" font-size="11" font-weight="bold" lengthAdjust="spacingAndGlyphs" textLength="61" x="90" y="2751.219">[scaOAuth]</text><path stroke="#a80036" d="M89.5 2777.205h42m0 0v13m-41 0h41"/><path fill="#A80036" stroke="#a80036" d="M100.5 2786.205l-10 4 10 4-4-4z"/><text font-family="sans-serif" font-size="13" font-weight="bold" lengthAdjust="spacingAndGlyphs" textLength="540" x="96.5" y="2772.463">Process selectPsuAuthenticationMethodResponse._links.scaOAuth.href template</text><path fill="#A80036" stroke="#a80036" d="M1016.5 2830.826l10 4-10 4 4-4z"/><path stroke="#a80036" d="M89.5 2834.826h933"/><text font-family="sans-serif" font-size="13" font-weight="bold" lengthAdjust="spacingAndGlyphs" textLength="85" x="96.5" y="2814.773">Call authlink</text><text font-family="sans-serif" font-size="13" lengthAdjust="spacingAndGlyphs" textLength="151" x="96.5" y="2830.084">GET /connect/authorize</text><path fill="#FBFB77" stroke="#a80036" d="M94 2847.826h117v99H94z"/><text font-family="sans-serif" font-size="13" lengthAdjust="spacingAndGlyphs" textLength="72" x="98" y="2864.394">Q: client_id</text><text font-family="sans-serif" font-size="13" lengthAdjust="spacingAndGlyphs" textLength="55" x="98" y="2879.705">Q: scope</text><text font-family="sans-serif" font-size="13" lengthAdjust="spacingAndGlyphs" textLength="109" x="98" y="2895.016">Q: response_type</text><text font-family="sans-serif" font-size="13" lengthAdjust="spacingAndGlyphs" textLength="90" x="98" y="2910.326">Q: redirect_uri</text><text font-family="sans-serif" font-size="13" lengthAdjust="spacingAndGlyphs" textLength="49" x="98" y="2925.637">Q: state</text><text font-family="sans-serif" font-size="13" lengthAdjust="spacingAndGlyphs" textLength="84" x="98" y="2940.947">Q: acr_values</text><path fill="#A80036" stroke="#a80036" d="M100.5 2970l-10 4 10 4-4-4z"/><path stroke="#a80036" stroke-dasharray="2,2" d="M94.5 2974h938"/><text font-family="sans-serif" font-size="13" font-weight="bold" lengthAdjust="spacingAndGlyphs" textLength="117" x="106.5" y="2969.258">Redirect to ASPSP</text><path fill="#A80036" stroke="#a80036" d="M1140.5 2999.31l10 4-10 4 4-4z"/><path stroke="#a80036" d="M89.5 3003.311h1057"/><text font-family="sans-serif" font-size="13" font-weight="bold" lengthAdjust="spacingAndGlyphs" textLength="159" x="96.5" y="2998.568">Follow authlink redirect</text><path fill="#A80036" stroke="#a80036" d="M1140.5 3028.621l10 4-10 4 4-4z"/><path stroke="#a80036" d="M44 3032.621h1102.5"/><text font-family="sans-serif" font-size="13" font-weight="bold" lengthAdjust="spacingAndGlyphs" textLength="260" x="51" y="3027.879">Start PSU authentication/authorization</text><path fill="#A80036" stroke="#a80036" d="M50 3085.932l-10 4 10 4-4-4z"/><path stroke="#a80036" d="M44 3089.932h1107.5"/><text font-family="sans-serif" font-size="13" font-weight="bold" lengthAdjust="spacingAndGlyphs" textLength="255" x="56" y="3085.189">End PSU authentication/authorization</text><path fill="#A80036" stroke="#a80036" d="M1049.5 3115.242l-10 4 10 4-4-4z"/><path stroke="#a80036" d="M1043.5 3119.242h113"/><text font-family="sans-serif" font-size="13" font-weight="bold" lengthAdjust="spacingAndGlyphs" textLength="76" x="1055.5" y="3114.5">Auth result</text><path fill="#A80036" stroke="#a80036" d="M100.5 3159.863l-10 4 10 4-4-4z"/><path stroke="#a80036" d="M94.5 3163.863h938"/><text font-family="sans-serif" font-size="13" font-weight="bold" lengthAdjust="spacingAndGlyphs" textLength="86" x="106.5" y="3143.811">TPP Callback</text><text font-family="sans-serif" font-size="13" lengthAdjust="spacingAndGlyphs" textLength="138" x="106.5" y="3159.121">GET [TPP Redirect URI]</text><path fill="#FBFB77" stroke="#a80036" d="M965 3176.863h63v53h-63z"/><text font-family="sans-serif" font-size="13" lengthAdjust="spacingAndGlyphs" textLength="48" x="969" y="3193.432">Q: code</text><text font-family="sans-serif" font-size="13" lengthAdjust="spacingAndGlyphs" textLength="55" x="969" y="3208.742">Q: scope</text><text font-family="sans-serif" font-size="13" lengthAdjust="spacingAndGlyphs" textLength="49" x="969" y="3224.053">Q: state</text><path fill="#A80036" stroke="#a80036" d="M1016.5 3268.416l10 4-10 4 4-4z"/><path stroke="#a80036" d="M89.5 3272.416h933"/><text font-family="sans-serif" font-size="13" font-weight="bold" lengthAdjust="spacingAndGlyphs" textLength="113" x="96.5" y="3252.363">Get OAuth token</text><text font-family="sans-serif" font-size="13" lengthAdjust="spacingAndGlyphs" textLength="136" x="96.5" y="3267.674">POST /connect/token</text><path fill="#FBFB77" stroke="#a80036" d="M94 3285.416h193v130H94z"/><text font-family="sans-serif" font-size="13" lengthAdjust="spacingAndGlyphs" textLength="99" x="98" y="3301.984">H: X-PaymentId</text><text font-family="sans-serif" font-size="13" lengthAdjust="spacingAndGlyphs" textLength="185" x="98" y="3317.295">H: X-PaymentAuthorisationId</text><text font-family="sans-serif" font-size="13" lengthAdjust="spacingAndGlyphs" textLength="69" x="98" y="3332.606">B: client_id</text><text font-family="sans-serif" font-size="13" lengthAdjust="spacingAndGlyphs" textLength="95" x="98" y="3347.916">B: client_secret</text><text font-family="sans-serif" font-size="13" lengthAdjust="spacingAndGlyphs" textLength="45" x="98" y="3363.227">B: code</text><text font-family="sans-serif" font-size="13" lengthAdjust="spacingAndGlyphs" textLength="87" x="98" y="3378.537">B: redirect_uri</text><text font-family="sans-serif" font-size="13" lengthAdjust="spacingAndGlyphs" textLength="82" x="98" y="3393.848">B: grant_type</text><text font-family="sans-serif" font-size="13" lengthAdjust="spacingAndGlyphs" textLength="52" x="98" y="3409.158">B: scope</text><path fill="#A80036" stroke="#a80036" d="M100.5 3447.9l-10 4 10 4-4-4z"/><path stroke="#a80036" stroke-dasharray="2,2" d="M94.5 3451.9h938"/><path fill="#FBFB77" stroke="#a80036" d="M920 3464.9h108v84H920z"/><text font-family="sans-serif" font-size="13" lengthAdjust="spacingAndGlyphs" textLength="61" x="924" y="3481.469">HTTP 200</text><text font-family="sans-serif" font-size="13" lengthAdjust="spacingAndGlyphs" textLength="100" x="924" y="3496.779">B: access_token</text><text font-family="sans-serif" font-size="13" lengthAdjust="spacingAndGlyphs" textLength="80" x="924" y="3512.09">B: expires_in</text><text font-family="sans-serif" font-size="13" lengthAdjust="spacingAndGlyphs" textLength="85" x="924" y="3527.4">B: token_type</text><text font-family="sans-serif" font-size="13" lengthAdjust="spacingAndGlyphs" textLength="52" x="924" y="3542.711">B: scope</text><path stroke="#000" stroke-dasharray="2,2" d="M13 3580.453h1182.5"/><text font-family="sans-serif" font-size="11" font-weight="bold" lengthAdjust="spacingAndGlyphs" textLength="72" x="18" y="3591.088">[scaRedirect]</text><path stroke="#a80036" d="M89.5 3615.719h42m0 0v13m-41 0h41"/><path fill="#A80036" stroke="#a80036" d="M100.5 3624.719l-10 4 10 4-4-4z"/><text font-family="sans-serif" font-size="13" font-weight="bold" lengthAdjust="spacingAndGlyphs" textLength="552" x="96.5" y="3610.977">Process selectPsuAuthenticationMethodResponse._links.scaRedirect.href template</text><path fill="#A80036" stroke="#a80036" d="M1016.5 3669.34l10 4-10 4 4-4z"/><path stroke="#a80036" d="M89.5 3673.34h933"/><text font-family="sans-serif" font-size="13" font-weight="bold" lengthAdjust="spacingAndGlyphs" textLength="85" x="96.5" y="3653.287">Call authlink</text><text font-family="sans-serif" font-size="13" lengthAdjust="spacingAndGlyphs" textLength="151" x="96.5" y="3668.598">GET /connect/authorize</text><path fill="#FBFB77" stroke="#a80036" d="M94 3686.34h117v99H94z"/><text font-family="sans-serif" font-size="13" lengthAdjust="spacingAndGlyphs" textLength="72" x="98" y="3702.908">Q: client_id</text><text font-family="sans-serif" font-size="13" lengthAdjust="spacingAndGlyphs" textLength="55" x="98" y="3718.219">Q: scope</text><text font-family="sans-serif" font-size="13" lengthAdjust="spacingAndGlyphs" textLength="109" x="98" y="3733.529">Q: response_type</text><text font-family="sans-serif" font-size="13" lengthAdjust="spacingAndGlyphs" textLength="90" x="98" y="3748.84">Q: redirect_uri</text><text font-family="sans-serif" font-size="13" lengthAdjust="spacingAndGlyphs" textLength="49" x="98" y="3764.15">Q: state</text><text font-family="sans-serif" font-size="13" lengthAdjust="spacingAndGlyphs" textLength="84" x="98" y="3779.461">Q: acr_values</text><path fill="#A80036" stroke="#a80036" d="M100.5 3808.514l-10 4 10 4-4-4z"/><path stroke="#a80036" stroke-dasharray="2,2" d="M94.5 3812.514h938"/><text font-family="sans-serif" font-size="13" font-weight="bold" lengthAdjust="spacingAndGlyphs" textLength="117" x="106.5" y="3807.771">Redirect to ASPSP</text><path fill="#A80036" stroke="#a80036" d="M1140.5 3837.824l10 4-10 4 4-4z"/><path stroke="#a80036" d="M89.5 3841.824h1057"/><text font-family="sans-serif" font-size="13" font-weight="bold" lengthAdjust="spacingAndGlyphs" textLength="159" x="96.5" y="3837.082">Follow authlink redirect</text><path fill="#A80036" stroke="#a80036" d="M1140.5 3867.135l10 4-10 4 4-4z"/><path stroke="#a80036" d="M44 3871.135h1102.5"/><text font-family="sans-serif" font-size="13" font-weight="bold" lengthAdjust="spacingAndGlyphs" textLength="260" x="51" y="3866.393">Start PSU authentication/authorization</text><path fill="#A80036" stroke="#a80036" d="M50 3924.445l-10 4 10 4-4-4z"/><path stroke="#a80036" d="M44 3928.445h1107.5"/><text font-family="sans-serif" font-size="13" font-weight="bold" lengthAdjust="spacingAndGlyphs" textLength="255" x="56" y="3923.703">End PSU authentication/authorization</text><path fill="#A80036" stroke="#a80036" d="M1049.5 3953.756l-10 4 10 4-4-4z"/><path stroke="#a80036" d="M1043.5 3957.756h113"/><text font-family="sans-serif" font-size="13" font-weight="bold" lengthAdjust="spacingAndGlyphs" textLength="76" x="1055.5" y="3953.014">Auth result</text><path fill="#A80036" stroke="#a80036" d="M95.5 3998.377l-10 4 10 4-4-4z"/><path stroke="#a80036" d="M89.5 4002.377h943"/><text font-family="sans-serif" font-size="13" font-weight="bold" lengthAdjust="spacingAndGlyphs" textLength="86" x="101.5" y="3982.324">TPP Callback</text><text font-family="sans-serif" font-size="13" lengthAdjust="spacingAndGlyphs" textLength="138" x="101.5" y="3997.635">GET [TPP Redirect URI]</text><path fill="#FBFB77" stroke="#a80036" d="M965 4015.377h63v38h-63z"/><text font-family="sans-serif" font-size="13" lengthAdjust="spacingAndGlyphs" textLength="55" x="969" y="4031.945">Q: scope</text><text font-family="sans-serif" font-size="13" lengthAdjust="spacingAndGlyphs" textLength="49" x="969" y="4047.256">Q: state</text><path stroke="#000" stroke-dasharray="2,2" d="M13 4084.998h1182.5"/><text font-family="sans-serif" font-size="11" font-weight="bold" lengthAdjust="spacingAndGlyphs" textLength="65" x="18" y="4095.633">[decoupled]</text><path d="M55 4105.953h74v7l-10 10H55v-17" fill="#EEE" stroke="#000"/><path fill="none" stroke="#000" stroke-width="2" d="M55 4105.953h892.5v315.037H55z"/><text font-family="sans-serif" font-size="13" font-weight="bold" lengthAdjust="spacingAndGlyphs" textLength="29" x="70" y="4119.521">loop</text><text font-family="sans-serif" font-size="11" font-weight="bold" lengthAdjust="spacingAndGlyphs" textLength="404" x="144" y="4118.588">[until scaStatusResponse.scaStatus = &quot;finalised&quot;, &quot;failed&quot; or &quot;exempted&quot;]</text><path fill="#A80036" stroke="#a80036" d="M834.5 4180.885l10 4-10 4 4-4z"/><path stroke="#a80036" d="M89.5 4184.885h751"/><text font-family="sans-serif" font-size="13" font-weight="bold" lengthAdjust="spacingAndGlyphs" textLength="321" x="96.5" y="4164.832">Get Payment Initiation Authorisation SCA Status</text><text font-family="sans-serif" font-size="13" lengthAdjust="spacingAndGlyphs" textLength="743" x="96.5" y="4180.143">GET /psd2/paymentinitiation/v1/{payment-service}/{payment-product}/{paymentId}/authorisations/{authorisationId}</text><path fill="#FBFB77" stroke="#a80036" d="M94 4197.885h134v115H94z"/><text font-family="sans-serif" font-size="13" lengthAdjust="spacingAndGlyphs" textLength="121" x="98" y="4214.453">P: payment-service</text><text font-family="sans-serif" font-size="13" lengthAdjust="spacingAndGlyphs" textLength="126" x="98" y="4229.764">P: payment-product</text><text font-family="sans-serif" font-size="13" lengthAdjust="spacingAndGlyphs" textLength="81" x="98" y="4245.074">P: paymentId</text><text font-family="sans-serif" font-size="13" lengthAdjust="spacingAndGlyphs" textLength="111" x="98" y="4260.385">P: authorisationId</text><text font-family="sans-serif" font-size="13" lengthAdjust="spacingAndGlyphs" textLength="104" x="98" y="4275.695">H: Authorization</text><text font-family="sans-serif" font-size="13" lengthAdjust="spacingAndGlyphs" textLength="106" x="98" y="4291.006">H: X-Request-ID</text><text font-family="sans-serif" font-size="13" lengthAdjust="spacingAndGlyphs" textLength="63" x="98" y="4306.316">H: X-BicFi</text><path fill="#A80036" stroke="#a80036" d="M95.5 4345.059l-10 4 10 4-4-4z"/><path stroke="#a80036" stroke-dasharray="2,2" d="M89.5 4349.059h761"/><path fill="#FBFB77" stroke="#a80036" d="M703 4362.059h143v53H703z"/><text font-family="sans-serif" font-size="13" lengthAdjust="spacingAndGlyphs" textLength="61" x="707" y="4378.627">HTTP 200</text><text font-family="sans-serif" font-size="13" lengthAdjust="spacingAndGlyphs" textLength="106" x="707" y="4393.938">H: X-Request-ID</text><text font-family="sans-serif" font-size="13" lengthAdjust="spacingAndGlyphs" textLength="135" x="707" y="4409.248">B: scaStatusResponse</text></svg>